<?xml version="1.0" encoding="UTF-8"?>
<svg width="265px" height="40px" viewBox="0 0 265 40" version="1.1" xmlns="http://www.w3.org/2000/svg" xmlns:xlink="http://www.w3.org/1999/xlink">
    <title>Halftone</title>
    <g id="Halftone" stroke="none" stroke-width="1" fill="none" fill-rule="evenodd">
        <g transform="translate(53.000000, -64.000000)" fill="#066D59" fill-rule="nonzero">
            <path d="M-10,10 C-10,10.1123023 -9.97104243,10.213148 -9.96750022,10.3245883 C-9.97834769,10.3245571 -9.98914421,10.3245883 -10,10.3245883 L-10,30.4490607 C-9.65229565,30.4490607 -9.29866334,30.4185235 -8.96000693,30.3841431 C-8.96521799,30.512358 -8.99250672,30.6441565 -8.99250672,30.773649 C-8.99250672,31.3313522 -8.92356558,31.8656505 -8.8300078,32.3965903 C-9.21196259,32.3463181 -9.6043173,32.2992658 -10,32.2992658 L-10,49.9894128 C-9.20024533,49.9894128 -8.42940247,49.863431 -7.69253272,49.6648245 C-7.83109446,50.2707226 -7.92001387,50.9077812 -7.92001387,51.5517643 C-7.92001387,52.6245848 -7.7056713,53.6290254 -7.33501777,54.5704525 C-8.1650709,54.2726969 -9.06664089,54.1168945 -10,54.1168945 L-10,69.762222 C-8.47166086,69.762222 -7.04524103,69.2849474 -5.84002773,68.5287866 C-6.51494857,69.6336331 -6.91253792,70.9375258 -6.91253792,72.3265559 C-6.91253792,76.3531815 -3.63194912,79.597333 0.4,79.597333 C4.43170646,79.597333 7.71253792,76.3533546 7.71253792,72.3265559 C7.71253792,70.9376297 7.31498323,69.633737 6.64002773,68.5287866 C7.84524103,69.2849474 9.27166086,69.762222 10.8,69.762222 C12.3283391,69.762222 13.754759,69.2849474 14.9599723,68.5287866 C14.2850514,69.6336331 13.8874621,70.9375258 13.8874621,72.3265559 C13.8874621,76.3531815 17.1680509,79.597333 21.2,79.597333 C25.2317065,79.597333 28.5125379,76.3533546 28.5125379,72.3265559 C28.5125379,70.9376297 28.1149832,69.633737 27.4400277,68.5287866 C28.645241,69.2849474 30.0716609,69.762222 31.6,69.762222 C33.1283391,69.762222 34.554759,69.2849474 35.7599723,68.5287866 C35.0850514,69.6336331 34.6874621,70.9375258 34.6874621,72.3265559 C34.6874621,76.3531815 37.9680509,79.597333 42,79.597333 C46.0317065,79.597333 49.3125379,76.3533546 49.3125379,72.3265559 C49.3125379,70.9376297 48.9149832,69.633737 48.2400277,68.5287866 C49.445241,69.2849474 50.8716609,69.762222 52.4,69.762222 C53.9283391,69.762222 55.354759,69.2849474 56.5599723,68.5287866 C55.8850514,69.6336331 55.4874621,70.9375258 55.4874621,72.3265559 C55.4874621,76.3531815 58.7680509,79.597333 62.8,79.597333 C66.8317065,79.597333 70.1125379,76.3533546 70.1125379,72.3265559 C70.1125379,70.9376297 69.7149832,69.633737 69.0400277,68.5287866 C70.245241,69.2849474 71.6716609,69.762222 73.2,69.762222 C74.7283391,69.762222 76.154759,69.2849474 77.3599723,68.5287866 C76.6850514,69.6336331 76.2874621,70.9375258 76.2874621,72.3265559 C76.2874621,76.3531815 79.5680509,79.597333 83.6,79.597333 C87.6317065,79.597333 90.9125379,76.3533546 90.9125379,72.3265559 C90.9125379,70.9376297 90.5149832,69.633737 89.8400277,68.5287866 C91.045241,69.2849474 92.4716609,69.762222 94,69.762222 C95.5283391,69.762222 96.954759,69.2849474 98.1599723,68.5287866 C97.4850514,69.6336331 97.0874621,70.9375258 97.0874621,72.3265559 C97.0874621,76.3531815 100.368051,79.597333 104.4,79.597333 C108.431706,79.597333 111.712538,76.3533546 111.712538,72.3265559 C111.712538,70.9376297 111.314983,69.633737 110.640028,68.5287866 C111.845241,69.2849474 113.271661,69.762222 114.8,69.762222 C116.328339,69.762222 117.754759,69.2849474 118.959972,68.5287866 C118.285051,69.6336331 117.887462,70.9375258 117.887462,72.3265559 C117.887462,76.3531815 121.168051,79.597333 125.2,79.597333 C129.231706,79.597333 132.512538,76.3533546 132.512538,72.3265559 C132.512538,70.9376297 132.114983,69.633737 131.440028,68.5287866 C132.645241,69.2849474 134.071661,69.762222 135.6,69.762222 C137.128339,69.762222 138.554759,69.2849474 139.759972,68.5287866 C139.085051,69.6336331 138.687462,70.9375258 138.687462,72.3265559 C138.687462,76.3531815 141.968051,79.597333 146,79.597333 C150.031706,79.597333 153.312538,76.3533546 153.312538,72.3265559 C153.312538,70.9376297 152.914983,69.633737 152.240028,68.5287866 C153.445241,69.2849474 154.871661,69.762222 156.4,69.762222 C157.928339,69.762222 159.354759,69.2849474 160.559972,68.5287866 C159.885051,69.6336331 159.487462,70.9375258 159.487462,72.3265559 C159.487462,76.3531815 162.768051,79.597333 166.8,79.597333 C170.831706,79.597333 174.112538,76.3533546 174.112538,72.3265559 C174.112538,70.9376297 173.714983,69.633737 173.040028,68.5287866 C174.245241,69.2849474 175.671661,69.762222 177.2,69.762222 C178.728339,69.762222 180.154759,69.2849474 181.359972,68.5287866 C180.685051,69.6336331 180.287462,70.9375258 180.287462,72.3265559 C180.287462,76.3531815 183.568051,79.597333 187.6,79.597333 C191.631706,79.597333 194.912538,76.3533546 194.912538,72.3265559 C194.912538,70.9376297 194.514983,69.633737 193.840028,68.5287866 C195.045241,69.2849474 196.471661,69.762222 198,69.762222 L198,54.1168945 C197.066641,54.1168945 196.165071,54.2721152 195.335018,54.5713181 C195.705671,53.6299255 195.920014,52.6254504 195.920014,51.5526299 C195.920014,50.9092007 195.831094,50.2714497 195.692515,49.670018 C196.42942,49.8686244 197.200228,49.9946062 198,49.9946062 L198,32.3044592 C197.6043,32.3044592 197.211945,32.3516154 196.82999,32.4017837 C196.923548,31.8708785 196.992489,31.3365456 196.992489,30.7788424 C196.992489,30.6493499 196.965172,30.5175514 196.960007,30.3893365 C197.298649,30.4237169 197.652296,30.4542541 198,30.4542541 L198,10.3297817 C197.989149,10.3297817 197.978368,10.3297505 197.967518,10.3297817 C197.971158,10.2183414 198,10.1174958 198,10.0051934 L177.200139,10.0051934 C177.200139,10.1174958 177.229085,10.2183414 177.232621,10.3297817 C177.221771,10.3297505 177.210989,10.3297817 177.200139,10.3297817 C177.189288,10.3297817 177.178507,10.3297505 177.167656,10.3297817 C177.171296,10.2183414 177.200139,10.1174958 177.200139,10.0051934 L156.400277,10.0051934 C156.400277,10.1174958 156.429258,10.2183414 156.43276,10.3297817 C156.421909,10.3297505 156.411128,10.3297817 156.400277,10.3297817 C156.389427,10.3297817 156.378645,10.3297505 156.367795,10.3297817 C156.371435,10.2183414 156.400277,10.1174958 156.400277,10.0051934 L135.600416,10.0051934 C135.600416,10.1174958 135.629397,10.2183414 135.632898,10.3297817 C135.622048,10.3297505 135.611267,10.3297817 135.600416,10.3297817 C135.589565,10.3297817 135.578784,10.3297505 135.567934,10.3297817 C135.571574,10.2183414 135.600416,10.1174958 135.600416,10.0051934 L114.800555,10.0051934 C114.800555,10.1174958 114.829536,10.2183414 114.833037,10.3297817 C114.822187,10.3297505 114.811405,10.3297817 114.800555,10.3297817 C114.789704,10.3297817 114.778923,10.3297505 114.768072,10.3297817 C114.771712,10.2183414 114.800555,10.1174958 114.800555,10.0051934 L94.0006933,10.0051934 C94.0006933,10.1174958 94.0296745,10.2183414 94.0331758,10.3297817 C94.0223252,10.3297505 94.0115439,10.3297817 94.0006933,10.3297817 C93.9898427,10.3297817 93.9790615,10.3297505 93.9682109,10.3297817 C93.9718509,10.2183414 94.0006933,10.1174958 94.0006933,10.0051934 L73.200832,10.0051934 C73.200832,10.1174958 73.2298131,10.2183414 73.2333144,10.3297817 C73.2224292,10.3297505 73.2116826,10.3297817 73.200832,10.3297817 C73.1899467,10.3297817 73.1792001,10.3297505 73.1683495,10.3297817 C73.1719895,10.2183414 73.200832,10.1174958 73.200832,10.0051934 L52.4009707,10.0051934 C52.4009707,10.1174958 52.4299518,10.2183414 52.4334531,10.3297817 C52.4225678,10.3297505 52.4118213,10.3297817 52.4009707,10.3297817 C52.3900854,10.3297817 52.3793388,10.3297505 52.3684882,10.3297817 C52.3721282,10.2183414 52.4009707,10.1174958 52.4009707,10.0051934 L31.6011093,10.0051934 C31.6011093,10.1174958 31.6300558,10.2183414 31.6335918,10.3297817 C31.6227412,10.3297505 31.6119599,10.3297817 31.6011093,10.3297817 C31.5902587,10.3297817 31.5794428,10.3297505 31.5686269,10.3297817 C31.5721629,10.2183934 31.6011093,10.1175477 31.6011093,10.0052453 L10.801248,10.0052453 C10.801248,10.1175477 10.8302049,10.2183934 10.8337478,10.3298336 C10.8229006,10.3298025 10.8121055,10.3298336 10.801248,10.3298336 C10.7903905,10.3298336 10.7795953,10.3298025 10.7687482,10.3298336 C10.7722149,10.2190408 10.8013347,10.1151726 10.8013347,10.0043798 L-10,10.0043798 L-10,10 Z M0.0747595016,20.3542791 C0.18299158,20.3573952 0.290717529,20.386686 0.399757335,20.386686 C0.508797141,20.386686 0.61652309,20.357499 0.724755168,20.3542791 C0.724720849,20.3650814 0.724755168,20.3758837 0.724755168,20.386686 C0.724755168,20.7339522 0.755362164,21.0546973 0.789754735,21.3928923 C0.661655322,21.3876989 0.529129006,21.3928923 0.399757335,21.3928923 C0.270385664,21.3928923 0.137859348,21.3876989 0.00975993493,21.3928923 C0.0441525056,21.0546765 0.0747595016,20.7339522 0.0747595016,20.386686 C0.0747595016,20.3758837 0.0747938214,20.3650814 0.0747595016,20.3542791 Z M20.8746208,20.3542791 C20.9828529,20.3573952 21.0905789,20.386686 21.1996187,20.386686 C21.3086585,20.386686 21.4163844,20.357499 21.5246165,20.3542791 C21.5245822,20.3650814 21.5246165,20.3758837 21.5246165,20.386686 C21.5246165,20.7339522 21.5552235,21.0546973 21.5896161,21.3928923 C21.4615167,21.3876989 21.3289903,21.3928923 21.1996187,21.3928923 C21.070247,21.3928923 20.9377207,21.3876989 20.8096213,21.3928923 C20.8440138,21.0546765 20.8746208,20.7339522 20.8746208,20.386686 C20.8746208,20.3758837 20.8746552,20.3650814 20.8746208,20.3542791 Z M41.6744822,20.3542791 C41.7827142,20.3573952 41.8904402,20.386686 41.99948,20.386686 C42.1085233,20.386686 42.2162458,20.357499 42.3244778,20.3542791 C42.3244397,20.3650814 42.3244778,20.3758837 42.3244778,20.386686 C42.3244778,20.7339522 42.3550883,21.0546973 42.3894774,21.3928923 C42.2613815,21.3876989 42.1288482,21.3928923 41.99948,21.3928923 C41.8701083,21.3928923 41.737582,21.3876989 41.6094826,21.3928923 C41.6438717,21.0546765 41.6744822,20.7339522 41.6744822,20.386686 C41.6744822,20.3758837 41.6745168,20.3650814 41.6744822,20.3542791 Z M62.4743435,20.3542791 C62.5825756,20.3573952 62.6902981,20.386686 62.7993413,20.386686 C62.9083846,20.386686 63.0161071,20.357499 63.1243392,20.3542791 C63.124301,20.3650814 63.1243392,20.3758837 63.1243392,20.386686 C63.1243392,20.7339522 63.1549496,21.0546973 63.1893387,21.3928923 C63.0612428,21.3876989 62.928713,21.3928923 62.7993413,21.3928923 C62.6699697,21.3928923 62.5374399,21.3876989 62.4093439,21.3928923 C62.443733,21.0546765 62.4743435,20.7339522 62.4743435,20.386686 C62.4743435,20.3758837 62.4743782,20.3650814 62.4743435,20.3542791 Z M83.2742048,20.3542791 C83.3824369,20.3573952 83.4901594,20.386686 83.5992027,20.386686 C83.7082459,20.386686 83.8159684,20.357499 83.9242005,20.3542791 C83.9241658,20.3650814 83.9242005,20.3758837 83.9242005,20.386686 C83.9242005,20.7339522 83.954811,21.0546973 83.9892001,21.3928923 C83.8611041,21.3876989 83.7285743,21.3928923 83.5992027,21.3928923 C83.469831,21.3928923 83.3373012,21.3876989 83.2092053,21.3928923 C83.2435944,21.0546765 83.2742048,20.7339522 83.2742048,20.386686 C83.2742048,20.3758837 83.2742395,20.3650814 83.2742048,20.3542791 Z M104.074066,20.3542791 C104.182298,20.3573952 104.290021,20.386686 104.399064,20.386686 C104.508107,20.386686 104.61583,20.357499 104.724062,20.3542791 C104.724031,20.3650814 104.724062,20.3758837 104.724062,20.386686 C104.724062,20.7339522 104.754672,21.0546973 104.789061,21.3928923 C104.660965,21.3876989 104.528439,21.3928923 104.399064,21.3928923 C104.269689,21.3928923 104.137163,21.3876989 104.009067,21.3928923 C104.043456,21.0546765 104.074066,20.7339522 104.074066,20.386686 C104.074066,20.3758837 104.074097,20.3650814 104.074066,20.3542791 Z M124.873928,20.3542791 C124.98216,20.3573952 125.089882,20.386686 125.198925,20.386686 C125.307969,20.386686 125.415691,20.357499 125.523923,20.3542791 C125.523892,20.3650814 125.523923,20.3758837 125.523923,20.386686 C125.523923,20.7339522 125.554534,21.0546973 125.588923,21.3928923 C125.460827,21.3876989 125.3283,21.3928923 125.198925,21.3928923 C125.06955,21.3928923 124.937024,21.3876989 124.808928,21.3928923 C124.843317,21.0546765 124.873928,20.7339522 124.873928,20.386686 C124.873928,20.3758837 124.873959,20.3650814 124.873928,20.3542791 Z M145.673789,20.3542791 C145.782021,20.3573952 145.889743,20.386686 145.998787,20.386686 C146.10783,20.386686 146.215552,20.357499 146.323785,20.3542791 C146.323753,20.3650814 146.323785,20.3758837 146.323785,20.386686 C146.323785,20.7339522 146.354395,21.0546973 146.388784,21.3928923 C146.260688,21.3876989 146.128162,21.3928923 145.998787,21.3928923 C145.869412,21.3928923 145.736885,21.3876989 145.608789,21.3928923 C145.643178,21.0546765 145.673789,20.7339522 145.673789,20.386686 C145.673789,20.3758837 145.67382,20.3650814 145.673789,20.3542791 Z M166.47365,20.3542791 C166.581882,20.3573952 166.689605,20.386686 166.798648,20.386686 C166.907691,20.386686 167.015414,20.357499 167.123646,20.3542791 C167.123615,20.3650814 167.123646,20.3758837 167.123646,20.386686 C167.123646,20.7339522 167.154256,21.0546973 167.188645,21.3928923 C167.060549,21.3876989 166.928023,21.3928923 166.798648,21.3928923 C166.669273,21.3928923 166.536747,21.3876989 166.408651,21.3928923 C166.44304,21.0546765 166.47365,20.7339522 166.47365,20.386686 C166.47365,20.3758837 166.473681,20.3650814 166.47365,20.3542791 Z M187.273512,20.3542791 C187.381744,20.3573952 187.489466,20.386686 187.598509,20.386686 C187.707553,20.386686 187.815275,20.357499 187.923507,20.3542791 C187.923476,20.3650814 187.923507,20.3758837 187.923507,20.386686 C187.923507,20.7339522 187.954118,21.0546973 187.988507,21.3928923 C187.860411,21.3876989 187.727884,21.3928923 187.598509,21.3928923 C187.469134,21.3928923 187.336608,21.3876989 187.208512,21.3928923 C187.242901,21.0546765 187.273512,20.7339522 187.273512,20.386686 C187.273512,20.3758837 187.273543,20.3650814 187.273512,20.3542791 Z M9.7605616,30.3844893 C10.0992111,30.4188697 10.4528503,30.449407 10.8005547,30.449407 C11.148259,30.449407 11.5018913,30.4188697 11.8405477,30.3844893 C11.8353374,30.5127043 11.8080479,30.6445027 11.8080479,30.7739952 C11.8080479,31.3316985 11.8769891,31.8659967 11.9705469,32.3969365 C11.5885921,32.3466643 11.1962374,32.299612 10.8005547,32.299612 C10.404872,32.299612 10.0125172,32.3467682 9.63056246,32.3969365 C9.72412024,31.8660313 9.79306138,31.3316985 9.79306138,30.7739952 C9.79306138,30.6445027 9.76577196,30.5127043 9.7605616,30.3844893 Z M30.5604229,30.3844893 C30.8990689,30.4188697 31.2527116,30.449407 31.600416,30.449407 C31.9481203,30.449407 32.3017527,30.4188697 32.6404091,30.3844893 C32.6352091,30.5127043 32.6079266,30.6445027 32.6079266,30.7739952 C32.6079266,31.3316985 32.6768678,31.8659967 32.7704255,32.3969365 C32.3884707,32.3466643 31.996116,32.299612 31.6004333,32.299612 C31.2047506,32.299612 30.8123959,32.3467682 30.4304411,32.3969365 C30.5239989,31.8660313 30.59294,31.3316985 30.59294,30.7739952 C30.59294,30.6445027 30.5656576,30.5127043 30.5604576,30.3844893 L30.5604229,30.3844893 Z M51.3602843,30.3844893 C51.6989303,30.4188697 52.052573,30.449407 52.4002773,30.449407 C52.7479817,30.449407 53.101614,30.4188697 53.4402704,30.3844893 C53.4350704,30.5127043 53.4077879,30.6445027 53.4077879,30.7739952 C53.4077879,31.3316985 53.4767291,31.8659967 53.5702869,32.3969365 C53.1883321,32.3466643 52.7959774,32.299612 52.4002947,32.299612 C52.004612,32.299612 51.6122573,32.3467682 51.2303025,32.3969365 C51.3238602,31.8660313 51.3928014,31.3316985 51.3928014,30.7739952 C51.3928014,30.6445027 51.3654842,30.5127043 51.3603189,30.3844893 L51.3602843,30.3844893 Z M72.1601456,30.3844893 C72.4987916,30.4188697 72.8524343,30.449407 73.2001387,30.449407 C73.547843,30.449407 73.9014753,30.4188697 74.2401317,30.3844893 C74.2349318,30.5127043 74.2076493,30.6445027 74.2076493,30.7739952 C74.2076493,31.3316985 74.2765904,31.8659967 74.3701482,32.3969365 C73.9881934,32.3466643 73.5958387,32.299612 73.200156,32.299612 C72.8044733,32.299612 72.4121186,32.3467682 72.0301638,32.3969365 C72.1237216,31.8660313 72.1926627,31.3316985 72.1926627,30.7739952 C72.1926627,30.6445027 72.1653456,30.5127043 72.1601803,30.3844893 L72.1601456,30.3844893 Z M92.9600069,30.3844893 C93.2986529,30.4188697 93.6522957,30.449407 94,30.449407 C94.3477043,30.449407 94.7013367,30.4188697 95.0399931,30.3844893 C95.0347931,30.5127043 95.0075106,30.6445027 95.0075106,30.7739952 C95.0075106,31.3316985 95.0764518,31.8659967 95.1700095,32.3969365 C94.7880547,32.3466643 94.3957,32.299612 94.0000173,32.299612 C93.6043346,32.299612 93.2119799,32.3467682 92.8300251,32.3969365 C92.9235829,31.8660313 92.992524,31.3316985 92.992524,30.7739952 C92.992524,30.6445027 92.9652069,30.5127043 92.9600416,30.3844893 L92.9600069,30.3844893 Z M113.759868,30.3844893 C114.098511,30.4188697 114.452157,30.449407 114.799861,30.449407 C115.147566,30.449407 115.501198,30.4188697 115.839854,30.3844893 C115.834654,30.5127043 115.807372,30.6445027 115.807372,30.7739952 C115.807372,31.3316985 115.876313,31.8659967 115.969871,32.3969365 C115.587916,32.3466643 115.195561,32.299612 114.799879,32.299612 C114.404196,32.299612 114.011841,32.3467682 113.629886,32.3969365 C113.723444,31.8660313 113.792385,31.3316985 113.792385,30.7739952 C113.792385,30.6445027 113.765068,30.5127043 113.759903,30.3844893 L113.759868,30.3844893 Z M134.55973,30.3844893 C134.898372,30.4188697 135.252018,30.449407 135.599723,30.449407 C135.947427,30.449407 136.301059,30.4188697 136.639716,30.3844893 C136.634516,30.5127043 136.607233,30.6445027 136.607233,30.7739952 C136.607233,31.3316985 136.676174,31.8659967 136.769732,32.3969365 C136.387777,32.3466643 135.995423,32.299612 135.59974,32.299612 C135.204057,32.299612 134.811703,32.3467682 134.429748,32.3969365 C134.523306,31.8660313 134.592247,31.3316985 134.592247,30.7739952 C134.592247,30.6445027 134.56493,30.5127043 134.559764,30.3844893 L134.55973,30.3844893 Z M155.359591,30.3844893 C155.698233,30.4188697 156.05188,30.449407 156.399584,30.449407 C156.747288,30.449407 157.100921,30.4188697 157.439577,30.3844893 C157.434377,30.5127043 157.407095,30.6445027 157.407095,30.7739952 C157.407095,31.3316985 157.476036,31.8659967 157.569594,32.3969365 C157.187639,32.3466643 156.795284,32.299612 156.399601,32.299612 C156.003919,32.299612 155.611564,32.3467682 155.229609,32.3969365 C155.323167,31.8660313 155.392108,31.3316985 155.392108,30.7739952 C155.392108,30.6445027 155.364791,30.5127043 155.359626,30.3844893 L155.359591,30.3844893 Z M176.159452,30.3844893 C176.498095,30.4188697 176.851741,30.449407 177.199445,30.449407 C177.54715,30.449407 177.900782,30.4188697 178.239438,30.3844893 C178.234238,30.5127043 178.206956,30.6445027 178.206956,30.7739952 C178.206956,31.3316985 178.275897,31.8659967 178.369455,32.3969365 C177.9875,32.3466643 177.595145,32.299612 177.199463,32.299612 C176.80378,32.299612 176.411425,32.3467682 176.02947,32.3969365 C176.123028,31.8660313 176.191969,31.3316985 176.191969,30.7739952 C176.191969,30.6445027 176.164652,30.5127043 176.159487,30.3844893 L176.159452,30.3844893 Z M-1.22523183,39.9576792 C-0.695875361,40.0503297 -0.156153626,40.1199733 0.399757335,40.1199733 C0.955668296,40.1199733 1.49539003,40.0502778 2.0247465,39.9576792 C1.97161326,40.349401 1.95974694,40.7524098 1.95974694,41.1586731 C1.95974694,41.9492836 2.05728788,42.7015666 2.25224499,43.430791 C1.65931027,43.2968321 1.03326911,43.236038 0.399740002,43.236038 C-0.233754442,43.236038 -0.859795601,43.2968009 -1.45276498,43.430791 C-1.25780788,42.7015666 -1.16026693,41.9492836 -1.16026693,41.1586731 C-1.16026693,40.7524098 -1.17213325,40.349401 -1.2252665,39.9576792 L-1.22523183,39.9576792 Z M19.5746295,39.9576792 C20.103986,40.0503297 20.6437077,40.1199733 21.1996187,40.1199733 C21.7555296,40.1199733 22.2952514,40.0502778 22.8246078,39.9576792 C22.7714746,40.349401 22.7596083,40.7524098 22.7596083,41.1586731 C22.7596083,41.9492836 22.8571492,42.7015666 23.0521063,43.430791 C22.4591716,43.2968321 21.8331304,43.236038 21.1996013,43.236038 C20.5661069,43.236038 19.9400657,43.2968009 19.3470964,43.430791 C19.5420535,42.7015666 19.6395944,41.9492836 19.6395944,41.1586731 C19.6395944,40.7524098 19.6277281,40.349401 19.5745948,39.9576792 L19.5746295,39.9576792 Z M40.3744908,39.9576792 C40.9038473,40.0503297 41.443569,40.1199733 41.99948,40.1199733 C42.555391,40.1199733 43.0951127,40.0502778 43.6244692,39.9576792 C43.5713359,40.349401 43.5594696,40.7524098 43.5594696,41.1586731 C43.5594696,41.9492836 43.6570106,42.7015666 43.8519677,43.430791 C43.2590329,43.2968321 42.6329571,43.236038 41.9994627,43.236038 C41.3659682,43.236038 40.7399271,43.2968009 40.1469577,43.430791 C40.3419148,42.7015666 40.4394557,41.9492836 40.4394557,41.1586731 C40.4394557,40.7524098 40.4275998,40.349401 40.3744562,39.9576792 L40.3744908,39.9576792 Z M61.1743522,39.9576792 C61.7037086,40.0503297 62.2434304,40.1199733 62.7993413,40.1199733 C63.3552523,40.1199733 63.894974,40.0502778 64.4243305,39.9576792 C64.3711973,40.349401 64.3593309,40.7524098 64.3593309,41.1586731 C64.3593309,41.9492836 64.4568719,42.7015666 64.651829,43.430791 C64.0588943,43.2968321 63.4328531,43.236038 62.799324,43.236038 C62.1658296,43.236038 61.5397884,43.2968009 60.946819,43.430791 C61.1417761,42.7015666 61.2393171,41.9492836 61.2393171,41.1586731 C61.2393171,40.7524098 61.2274612,40.349401 61.1743175,39.9576792 L61.1743522,39.9576792 Z M81.9742135,39.9576792 C82.50357,40.0503297 83.0432917,40.1199733 83.5992027,40.1199733 C84.1551136,40.1199733 84.6948354,40.0502778 85.2241918,39.9576792 C85.1710586,40.349401 85.1591923,40.7524098 85.1591923,41.1586731 C85.1591923,41.9492836 85.2567332,42.7015666 85.4516903,43.430791 C84.8587556,43.2968321 84.2327144,43.236038 83.5991853,43.236038 C82.9656909,43.236038 82.3396497,43.2968009 81.7466804,43.430791 C81.9416375,42.7015666 82.0391784,41.9492836 82.0391784,41.1586731 C82.0391784,40.7524098 82.0273225,40.349401 81.9741788,39.9576792 L81.9742135,39.9576792 Z M102.774075,39.9576792 C103.303431,40.0503297 103.843118,40.1199733 104.399064,40.1199733 C104.954975,40.1199733 105.494697,40.0502778 106.024053,39.9576792 C105.97092,40.349401 105.959054,40.7524098 105.959054,41.1586731 C105.959054,41.9492836 106.056595,42.7015666 106.251552,43.430791 C105.658617,43.2968321 105.032576,43.236038 104.399047,43.236038 C103.765552,43.236038 103.139511,43.2968009 102.546542,43.430791 C102.741499,42.7015666 102.83904,41.9492836 102.83904,41.1586731 C102.83904,40.7524098 102.827184,40.349401 102.77404,39.9576792 L102.774075,39.9576792 Z M123.573936,39.9576792 C124.103293,40.0503297 124.64298,40.1199733 125.198925,40.1199733 C125.754836,40.1199733 126.294558,40.0502778 126.823915,39.9576792 C126.770781,40.349401 126.758915,40.7524098 126.758915,41.1586731 C126.758915,41.9492836 126.856456,42.7015666 127.051413,43.430791 C126.458478,43.2968321 125.832437,43.236038 125.198908,43.236038 C124.565414,43.236038 123.939372,43.2968009 123.346403,43.430791 C123.54136,42.7015666 123.638901,41.9492836 123.638901,41.1586731 C123.638901,40.7524098 123.627045,40.349401 123.573902,39.9576792 L123.573936,39.9576792 Z M144.373798,39.9576792 C144.903154,40.0503297 145.442841,40.1199733 145.998787,40.1199733 C146.554698,40.1199733 147.094419,40.0502778 147.623776,39.9576792 C147.570643,40.349401 147.558776,40.7524098 147.558776,41.1586731 C147.558776,41.9492836 147.656317,42.7015666 147.851274,43.430791 C147.25834,43.2968321 146.632298,43.236038 145.998769,43.236038 C145.365275,43.236038 144.739234,43.2968009 144.146264,43.430791 C144.341221,42.7015666 144.438762,41.9492836 144.438762,41.1586731 C144.438762,40.7524098 144.426906,40.349401 144.373763,39.9576792 L144.373798,39.9576792 Z M165.173659,39.9576792 C165.703015,40.0503297 166.242702,40.1199733 166.798648,40.1199733 C167.354559,40.1199733 167.894281,40.0502778 168.423637,39.9576792 C168.370504,40.349401 168.358638,40.7524098 168.358638,41.1586731 C168.358638,41.9492836 168.456179,42.7015666 168.651136,43.430791 C168.058201,43.2968321 167.43216,43.236038 166.798631,43.236038 C166.165136,43.236038 165.539095,43.2968009 164.946126,43.430791 C165.141083,42.7015666 165.238624,41.9492836 165.238624,41.1586731 C165.238624,40.7524098 165.226768,40.349401 165.173624,39.9576792 L165.173659,39.9576792 Z M185.97352,39.9576792 C186.502877,40.0503297 187.042564,40.1199733 187.598509,40.1199733 C188.15442,40.1199733 188.694142,40.0502778 189.223499,39.9576792 C189.170365,40.349401 189.158499,40.7524098 189.158499,41.1586731 C189.158499,41.9492836 189.25604,42.7015666 189.450997,43.430791 C188.858062,43.2968321 188.232021,43.236038 187.598492,43.236038 C186.964998,43.236038 186.338956,43.2968009 185.745987,43.430791 C185.940944,42.7015666 186.038485,41.9492836 186.038485,41.1586731 C186.038485,40.7524098 186.026629,40.349401 185.973486,39.9576792 L185.97352,39.9576792 Z M8.49177005,49.6624356 C9.22867448,49.861042 9.99948267,49.9870238 10.7992373,49.9870238 C11.598992,49.9870238 12.3698349,49.861042 13.1067046,49.6624356 C12.9680389,50.2648714 12.8792928,50.90193 12.8792928,51.5459131 C12.8792928,52.6187336 13.0936388,53.6231741 13.4642889,54.5646013 C12.6342358,54.2653984 11.7326658,54.1101777 10.7993067,54.1101777 C9.86594756,54.1101777 8.96437757,54.2653984 8.13432444,54.5646013 C8.50497797,53.6232087 8.71932054,52.6187336 8.71932054,51.5459131 C8.71932054,50.9024839 8.6304046,50.2647329 8.49182205,49.6633011 L8.49177005,49.6624356 Z M29.2916314,49.6624356 C30.0285358,49.861042 30.799344,49.9870238 31.5990987,49.9870238 C32.3988533,49.9870238 33.1696962,49.861042 33.906566,49.6624356 C33.7679834,50.2638673 33.6790675,50.9016184 33.6790675,51.5450475 C33.6790675,52.617868 33.89341,53.6223085 34.2640636,54.5637357 C33.4340104,54.2645328 32.5324405,54.1093121 31.5990813,54.1093121 C30.6657222,54.1093121 29.7641522,54.2645328 28.9340991,54.5637357 C29.3047526,53.6223432 29.5190952,52.617868 29.5190952,51.5450475 C29.5190952,50.9016184 29.4301793,50.2638673 29.2915967,49.6624356 L29.2916314,49.6624356 Z M50.0914927,49.6624356 C50.8283971,49.861042 51.5992053,49.9870238 52.39896,49.9870238 C53.1987147,49.9870238 53.9695575,49.861042 54.7064273,49.6624356 C54.5678413,50.2638673 54.4789288,50.9016184 54.4789288,51.5450475 C54.4789288,52.617868 54.6932714,53.6223085 55.0639249,54.5637357 C54.2338718,54.2645328 53.3323018,54.1093121 52.3989427,54.1093121 C51.4655836,54.1093121 50.5640136,54.2645328 49.7339604,54.5637357 C50.104614,53.6223432 50.3189565,52.617868 50.3189565,51.5450475 C50.3189565,50.9016184 50.2300406,50.2638673 50.0914581,49.6624356 L50.0914927,49.6624356 Z M70.8913541,49.6624356 C71.6282585,49.861042 72.3990667,49.9870238 73.1988213,49.9870238 C73.998576,49.9870238 74.7694189,49.861042 75.5062886,49.6624356 C75.3677026,50.2638673 75.2787901,50.9016184 75.2787901,51.5450475 C75.2787901,52.617868 75.4931327,53.6223085 75.8637862,54.5637357 C75.0337331,54.2645328 74.1321631,54.1093121 73.198804,54.1093121 C72.2654449,54.1093121 71.3638749,54.2645328 70.5338218,54.5637357 C70.9044753,53.6223432 71.1188179,52.617868 71.1188179,51.5450475 C71.1188179,50.9016184 71.0299019,50.2638673 70.8913194,49.6624356 L70.8913541,49.6624356 Z M91.6912154,49.6624356 C92.4281198,49.861042 93.198928,49.9870238 93.9986827,49.9870238 C94.7984373,49.9870238 95.5692802,49.861042 96.30615,49.6624356 C96.1709509,50.2648714 96.0808181,50.90193 96.0808181,51.5459131 C96.0808181,52.6187336 96.2951607,53.6231741 96.6658142,54.5646013 C95.8357611,54.2653984 94.9341911,54.1101777 94.000832,54.1101777 C93.0674729,54.1101777 92.1659029,54.2653984 91.3358498,54.5646013 C91.7065033,53.6232087 91.9208459,52.6187336 91.9208459,51.5459131 C91.9208459,50.9024839 91.8319299,50.2647329 91.6933474,49.6633011 L91.6912154,49.6624356 Z M112.491077,49.6624356 C113.227981,49.861042 113.998789,49.9870238 114.798544,49.9870238 C115.598299,49.9870238 116.369142,49.861042 117.106011,49.6624356 C116.970812,50.2648714 116.880679,50.90193 116.880679,51.5459131 C116.880679,52.6187336 117.095022,53.6231741 117.465676,54.5646013 C116.635622,54.2653984 115.734052,54.1101777 114.800693,54.1101777 C113.867334,54.1101777 112.965764,54.2653984 112.135711,54.5646013 C112.506365,53.6232087 112.720707,52.6187336 112.720707,51.5459131 C112.720707,50.9024839 112.631788,50.2647329 112.493209,49.6633011 L112.491077,49.6624356 Z M133.290938,49.6624356 C134.027842,49.861042 134.798651,49.9870238 135.598405,49.9870238 C136.39816,49.9870238 137.169003,49.861042 137.905873,49.6624356 C137.770674,50.2648714 137.680541,50.90193 137.680541,51.5459131 C137.680541,52.6187336 137.894883,53.6231741 138.265537,54.5646013 C137.435484,54.2653984 136.533914,54.1101777 135.600555,54.1101777 C134.667196,54.1101777 133.765626,54.2653984 132.935572,54.5646013 C133.306226,53.6232087 133.520569,52.6187336 133.520569,51.5459131 C133.520569,50.9024839 133.431649,50.2647329 133.29307,49.6633011 L133.290938,49.6624356 Z M154.090799,49.6624356 C154.827704,49.861042 155.598512,49.9870238 156.398267,49.9870238 C157.198021,49.9870238 157.968864,49.861042 158.705734,49.6624356 C158.570535,50.2648714 158.480402,50.90193 158.480402,51.5459131 C158.480402,52.6187336 158.694745,53.6231741 159.065398,54.5646013 C158.235345,54.2653984 157.333775,54.1101777 156.400416,54.1101777 C155.467057,54.1101777 154.565487,54.2653984 153.735434,54.5646013 C154.106087,53.6232087 154.32043,52.6187336 154.32043,51.5459131 C154.32043,50.9024839 154.23151,50.2647329 154.092931,49.6633011 L154.090799,49.6624356 Z M174.890661,49.6624356 C175.627565,49.861042 176.398373,49.9870238 177.198128,49.9870238 C177.997883,49.9870238 178.768726,49.861042 179.505595,49.6624356 C179.370396,50.2648714 179.280263,50.90193 179.280263,51.5459131 C179.280263,52.6187336 179.494606,53.6231741 179.86526,54.5646013 C179.035206,54.2653984 178.133636,54.1101777 177.200277,54.1101777 C176.266918,54.1101777 175.365348,54.2653984 174.535295,54.5646013 C174.905949,53.6232087 175.120291,52.6187336 175.120291,51.5459131 C175.120291,50.9024839 175.031372,50.2647329 174.892793,49.6633011 L174.890661,49.6624356 Z M-2.65348898,59.2390878 C-1.70816995,59.6117324 -0.67642749,59.8557882 0.401490657,59.8557882 C1.4794088,59.8557882 2.51115126,59.6117289 3.45647029,59.2390878 C3.14907607,60.0775815 2.96899087,60.9883329 2.96899087,61.933153 C2.96899087,63.4595662 3.41438524,64.8517122 4.17150019,66.0553375 C3.07181152,65.3924849 1.7796548,65.016655 0.401525323,65.016655 C-0.976604156,65.016655 -2.26876087,65.3924849 -3.36844954,66.0553375 C-2.61133459,64.851643 -2.16594023,63.4594969 -2.16594023,61.933153 C-2.16594023,60.9883329 -2.34604276,60.0775469 -2.65341964,59.2390878 L-2.65348898,59.2390878 Z M18.1463724,59.2390878 C19.0916914,59.6117324 20.1234338,59.8557882 21.201352,59.8557882 C22.2792701,59.8557882 23.3110126,59.6117289 24.2563316,59.2390878 C23.9489374,60.0775815 23.7688522,60.9883329 23.7688522,61.933153 C23.7688522,63.4595662 24.2142466,64.8517122 24.9713615,66.0553375 C23.8716729,65.3924849 22.5795161,65.016655 21.2013867,65.016655 C19.8232572,65.016655 18.5311005,65.3924849 17.4314118,66.0553375 C18.1885267,64.851643 18.6339211,63.4594969 18.6339211,61.933153 C18.6339211,60.9883329 18.4538186,60.0775469 18.1464417,59.2390878 L18.1463724,59.2390878 Z M38.9462337,59.2390878 C39.8915527,59.6117324 40.9232952,59.8557882 42.0012133,59.8557882 C43.0791315,59.8557882 44.1108739,59.6117289 45.056193,59.2390878 C44.7487953,60.0775815 44.5687135,60.9883329 44.5687135,61.933153 C44.5687135,63.4595662 45.0141079,64.8517122 45.7712229,66.0553375 C44.6715342,65.3924849 43.3793428,65.016655 42.001248,65.016655 C40.6231185,65.016655 39.3309618,65.3924849 38.2312731,66.0553375 C38.9883881,64.851643 39.4337824,63.4594969 39.4337824,61.933153 C39.4337824,60.9883329 39.2536799,60.0775469 38.946303,59.2390878 L38.9462337,59.2390878 Z M59.746095,59.2390878 C60.6914141,59.6117324 61.7231565,59.8557882 62.8010747,59.8557882 C63.8789928,59.8557882 64.9107353,59.6117289 65.8560543,59.2390878 C65.5486566,60.0775815 65.3685749,60.9883329 65.3685749,61.933153 C65.3685749,63.4595662 65.8139692,64.8517122 66.5710842,66.0553375 C65.4713955,65.3924849 64.1792041,65.016655 62.8011093,65.016655 C61.4229798,65.016655 60.1308231,65.3924849 59.0311345,66.0553375 C59.7882494,64.851643 60.2336438,63.4594969 60.2336438,61.933153 C60.2336438,60.9883329 60.0535447,60.0775469 59.7461644,59.2390878 L59.746095,59.2390878 Z M80.5459564,59.2390878 C81.4912754,59.6117324 82.5230178,59.8557882 83.600936,59.8557882 C84.6788541,59.8557882 85.7105966,59.6117289 86.6559156,59.2390878 C86.3485179,60.0775815 86.1684362,60.9883329 86.1684362,61.933153 C86.1684362,63.4595662 86.6138306,64.8517122 87.3709455,66.0553375 C86.2712569,65.3924849 84.9790655,65.016655 83.6009707,65.016655 C82.2228412,65.016655 80.9306845,65.3924849 79.8309958,66.0553375 C80.5881107,64.851643 81.0335051,63.4594969 81.0335051,61.933153 C81.0335051,60.9883329 80.853406,60.0775469 80.5460257,59.2390878 L80.5459564,59.2390878 Z M101.345818,59.2390878 C102.291137,59.6117324 103.322879,59.8557882 104.400797,59.8557882 C105.478715,59.8557882 106.510458,59.6117289 107.455777,59.2390878 C107.148386,60.0775815 106.968298,60.9883329 106.968298,61.933153 C106.968298,63.4595662 107.413692,64.8517122 108.170807,66.0553375 C107.071118,65.3924849 105.778961,65.016655 104.400832,65.016655 C103.022703,65.016655 101.730546,65.3924849 100.630857,66.0553375 C101.387972,64.851643 101.833366,63.4594969 101.833366,61.933153 C101.833366,60.9883329 101.65326,60.0775469 101.345887,59.2390878 L101.345818,59.2390878 Z M122.145679,59.2390878 C123.090998,59.6117324 124.122741,59.8557882 125.200659,59.8557882 C126.278577,59.8557882 127.310319,59.6117289 128.255638,59.2390878 C127.948248,60.0775815 127.768159,60.9883329 127.768159,61.933153 C127.768159,63.4595662 128.213553,64.8517122 128.970668,66.0553375 C127.87098,65.3924849 126.578823,65.016655 125.200693,65.016655 C123.822564,65.016655 122.530407,65.3924849 121.430718,66.0553375 C122.187833,64.851643 122.633228,63.4594969 122.633228,61.933153 C122.633228,60.9883329 122.453122,60.0775469 122.145748,59.2390878 L122.145679,59.2390878 Z M142.94554,59.2390878 C143.890859,59.6117324 144.922602,59.8557882 146.00052,59.8557882 C147.078438,59.8557882 148.110181,59.6117289 149.0555,59.2390878 C148.748109,60.0775815 148.56802,60.9883329 148.56802,61.933153 C148.56802,63.4595662 149.013415,64.8517122 149.77053,66.0553375 C148.670841,65.3924849 147.378684,65.016655 146.000555,65.016655 C144.622425,65.016655 143.330268,65.3924849 142.23058,66.0553375 C142.987695,64.851643 143.433089,63.4594969 143.433089,61.933153 C143.433089,60.9883329 143.252983,60.0775469 142.94561,59.2390878 L142.94554,59.2390878 Z M163.745402,59.2390878 C164.690721,59.6117324 165.722463,59.8557882 166.800381,59.8557882 C167.878299,59.8557882 168.910042,59.6117289 169.855361,59.2390878 C169.54797,60.0775815 169.367882,60.9883329 169.367882,61.933153 C169.367882,63.4595662 169.813276,64.8517122 170.570391,66.0553375 C169.470702,65.3924849 168.178545,65.016655 166.800416,65.016655 C165.422287,65.016655 164.13013,65.3924849 163.030441,66.0553375 C163.787556,64.851643 164.23295,63.4594969 164.23295,61.933153 C164.23295,60.9883329 164.052844,60.0775469 163.745471,59.2390878 L163.745402,59.2390878 Z M184.545263,59.2390878 C185.490582,59.6117324 186.522325,59.8557882 187.600243,59.8557882 C188.678161,59.8557882 189.709903,59.6117289 190.655222,59.2390878 C190.347832,60.0775815 190.167743,60.9883329 190.167743,61.933153 C190.167743,63.4595662 190.613137,64.8517122 191.370252,66.0553375 C190.270564,65.3924849 188.978407,65.016655 187.600277,65.016655 C186.222148,65.016655 184.929991,65.3924849 183.830302,66.0553375 C184.587417,64.851643 185.032812,63.4594969 185.032812,61.933153 C185.032812,60.9883329 184.852706,60.0775469 184.545332,59.2390878 L184.545263,59.2390878 Z M-9.99930667,75.9237902 L-9.99930667,89.4578225 C-6.26018493,89.4578225 -3.23935174,86.440727 -3.23935174,82.7063866 C-3.23935174,78.9720462 -6.26025426,75.9224053 -9.99930667,75.9224053 L-9.99930667,75.9237902 Z M10.8005547,75.9237902 C7.06143292,75.9237902 4.04059973,78.9733618 4.04059973,82.7077715 C4.04059973,86.4421811 7.06150226,89.4592074 10.8005547,89.4592074 C14.5396071,89.4592074 17.5605096,86.4421119 17.5605096,82.7077715 C17.5605096,78.9734311 14.5396071,75.9237902 10.8005547,75.9237902 Z M31.600416,75.9237902 C27.8612943,75.9237902 24.8404611,78.9733618 24.8404611,82.7077715 C24.8404611,86.4421811 27.8613636,89.4592074 31.600416,89.4592074 C35.3394684,89.4592074 38.3603709,86.4421119 38.3603709,82.7077715 C38.3603709,78.9734311 35.3394684,75.9237902 31.600416,75.9237902 Z M52.4002773,75.9237902 C48.6611556,75.9237902 45.6403224,78.9733618 45.6403224,82.7077715 C45.6403224,86.4421811 48.6612249,89.4592074 52.4002773,89.4592074 C56.1393297,89.4592074 59.1602323,86.4421119 59.1602323,82.7077715 C59.1602323,78.9734311 56.1393297,75.9237902 52.4002773,75.9237902 Z M73.2001387,75.9237902 C69.4610169,75.9237902 66.4401837,78.9733618 66.4401837,82.7077715 C66.4401837,86.4421811 69.4610863,89.4592074 73.2001387,89.4592074 C76.9391911,89.4592074 79.9600936,86.4421119 79.9600936,82.7077715 C79.9600936,78.9734311 76.9391911,75.9237902 73.2001387,75.9237902 Z M94,75.9237902 C90.2608783,75.9237902 87.2400451,78.9733618 87.2400451,82.7077715 C87.2400451,86.4421811 90.2609476,89.4592074 94,89.4592074 C97.7390524,89.4592074 100.759955,86.4421119 100.759955,82.7077715 C100.759955,78.9734311 97.7390524,75.9237902 94,75.9237902 Z M114.799861,75.9237902 C111.06074,75.9237902 108.039906,78.9733618 108.039906,82.7077715 C108.039906,86.4421811 111.060809,89.4592074 114.799861,89.4592074 C118.538914,89.4592074 121.559816,86.4421119 121.559816,82.7077715 C121.559816,78.9734311 118.538914,75.9237902 114.799861,75.9237902 Z M135.599723,75.9237902 C131.860601,75.9237902 128.839768,78.9733618 128.839768,82.7077715 C128.839768,86.4421811 131.86067,89.4592074 135.599723,89.4592074 C139.338775,89.4592074 142.359678,86.4421119 142.359678,82.7077715 C142.359678,78.9734311 139.338775,75.9237902 135.599723,75.9237902 Z M156.399584,75.9237902 C152.660462,75.9237902 149.639629,78.9733618 149.639629,82.7077715 C149.639629,86.4421811 152.660532,89.4592074 156.399584,89.4592074 C160.138636,89.4592074 163.159539,86.4421119 163.159539,82.7077715 C163.159539,78.9734311 160.138636,75.9237902 156.399584,75.9237902 Z M177.199445,75.9237902 C173.460324,75.9237902 170.43949,78.9733618 170.43949,82.7077715 C170.43949,86.4421811 173.460393,89.4592074 177.199445,89.4592074 C180.938498,89.4592074 183.9594,86.4421119 183.9594,82.7077715 C183.9594,78.9734311 180.938498,75.9237902 177.199445,75.9237902 Z M197.999307,75.9237902 C194.260185,75.9237902 191.239352,78.9733618 191.239352,82.7077715 C191.239352,86.4421811 194.260254,89.4592074 197.999307,89.4592074 L197.999307,75.9237902 Z M0.400623996,86.7953331 C-3.06809955,86.7953331 -5.87192085,89.6279587 -5.87192085,93.0925186 C-5.87192085,96.5568708 -3.06823821,99.3571587 0.400623996,99.3571587 C3.8694862,99.3571587 6.67316885,96.5570093 6.67316885,93.0925186 C6.67316885,89.6280279 3.8694862,86.7953331 0.400623996,86.7953331 Z M21.2004853,86.7953331 C17.7317618,86.7953331 14.9279405,89.6279587 14.9279405,93.0925186 C14.9279405,96.5568708 17.7316231,99.3571587 21.2004853,99.3571587 C24.6693475,99.3571587 27.4730302,96.5570093 27.4730302,93.0925186 C27.4730302,89.6280279 24.6693129,86.7953331 21.2004853,86.7953331 Z M42.0003467,86.7953331 C38.5316231,86.7953331 35.7278018,89.6279587 35.7278018,93.0925186 C35.7278018,96.5568708 38.5314845,99.3571587 42.0003467,99.3571587 C45.4692089,99.3571587 48.2728915,96.5570093 48.2728915,93.0925186 C48.2728915,89.6280279 45.4692089,86.7953331 42.0003467,86.7953331 Z M62.800208,86.7953331 C59.3314845,86.7953331 56.5276631,89.6279587 56.5276631,93.0925186 C56.5276631,96.5568708 59.3313458,99.3571587 62.800208,99.3571587 C66.2690702,99.3571587 69.0727528,96.5570093 69.0727528,93.0925186 C69.0727528,89.6280279 66.2690355,86.7953331 62.800208,86.7953331 Z M83.6000693,86.7953331 C80.1313458,86.7953331 77.3275245,89.6279587 77.3275245,93.0925186 C77.3275245,96.5568708 80.1312418,99.3571587 83.6000693,99.3571587 C87.0688969,99.3571587 89.8726142,96.5570093 89.8726142,93.0925186 C89.8726142,89.6280279 87.0689315,86.7953331 83.6000693,86.7953331 Z M104.399931,86.7953331 C100.931207,86.7953331 98.1273858,89.6279587 98.1273858,93.0925186 C98.1273858,96.5568708 100.931068,99.3571587 104.399931,99.3571587 C107.868793,99.3571587 110.672476,96.5570093 110.672476,93.0925186 C110.672476,89.6280279 107.868793,86.7953331 104.399931,86.7953331 Z M125.199792,86.7953331 C121.731068,86.7953331 118.927247,89.6279587 118.927247,93.0925186 C118.927247,96.5568708 121.73093,99.3571587 125.199792,99.3571587 C128.668654,99.3571587 131.472337,96.5570093 131.472337,93.0925186 C131.472337,89.6280279 128.668654,86.7953331 125.199792,86.7953331 Z M145.999653,86.7953331 C142.53093,86.7953331 139.727108,89.6279587 139.727108,93.0925186 C139.727108,96.5568708 142.530791,99.3571587 145.999653,99.3571587 C149.468516,99.3571587 152.272198,96.5570093 152.272198,93.0925186 C152.272198,89.6280279 149.468516,86.7953331 145.999653,86.7953331 Z M166.799515,86.7953331 C163.330791,86.7953331 160.52697,89.6279587 160.52697,93.0925186 C160.52697,96.5568708 163.330652,99.3571587 166.799515,99.3571587 C170.268377,99.3571587 173.07206,96.5570093 173.07206,93.0925186 C173.07206,89.6280279 170.268377,86.7953331 166.799515,86.7953331 L166.799515,86.7953331 Z M187.599376,86.7953331 C184.130652,86.7953331 181.326831,89.6279587 181.326831,93.0925186 C181.326831,96.5568708 184.130514,99.3571587 187.599376,99.3571587 C191.068238,99.3571587 193.871921,96.5570093 193.871921,93.0925186 C193.871921,89.6280279 191.068238,86.7953331 187.599376,86.7953331 Z M-9.99930667,97.7340443 L-9.99930667,109.224642 C-6.82334118,109.224642 -4.24675835,106.651375 -4.24675835,103.479343 C-4.24675835,100.307415 -6.82327184,97.7340443 -9.99930667,97.7340443 L-9.99930667,97.7340443 Z M10.8005547,97.7340443 C7.62458917,97.7340443 5.04800635,100.307311 5.04800635,103.479343 C5.04800635,106.651272 7.62451984,109.224642 10.8005547,109.224642 C13.9764855,109.224642 16.553103,106.651375 16.553103,103.479343 C16.553103,100.307415 13.9765895,97.7340443 10.8005547,97.7340443 L10.8005547,97.7340443 Z M31.600416,97.7340443 C28.4244852,97.7340443 25.8478677,100.307311 25.8478677,103.479343 C25.8478677,106.651272 28.4243812,109.224642 31.600416,109.224642 C34.7763468,109.224642 37.3529643,106.651375 37.3529643,103.479343 C37.3529643,100.307415 34.7764508,97.7340443 31.600416,97.7340443 Z M52.4002773,97.7340443 C49.2243118,97.7340443 46.647729,100.307311 46.647729,103.479343 C46.647729,106.651272 49.2242425,109.224642 52.4002773,109.224642 C55.5762082,109.224642 58.1528256,106.651375 58.1528256,103.479343 C58.1528256,100.307415 55.5763122,97.7340443 52.4002773,97.7340443 Z M73.2001387,97.7340443 C70.0242078,97.7340443 67.4475903,100.307311 67.4475903,103.479343 C67.4475903,106.651272 70.0241038,109.224642 73.2001387,109.224642 C76.3760695,109.224642 78.952687,106.651375 78.952687,103.479343 C78.952687,100.307415 76.3761735,97.7340443 73.2001387,97.7340443 Z M94,97.7340443 C90.8240692,97.7340443 88.2474517,100.307311 88.2474517,103.479343 C88.2474517,106.651272 90.8239652,109.224642 94,109.224642 C97.1759308,109.224642 99.7525483,106.651375 99.7525483,103.479343 C99.7525483,100.307415 97.1760348,97.7340443 94,97.7340443 Z M114.799861,97.7340443 C111.623931,97.7340443 109.047313,100.307311 109.047313,103.479343 C109.047313,106.651272 111.623827,109.224642 114.799861,109.224642 C117.975792,109.224642 120.55241,106.651375 120.55241,103.479343 C120.55241,100.307415 117.975896,97.7340443 114.799861,97.7340443 Z M135.599723,97.7340443 C132.423792,97.7340443 129.847174,100.307311 129.847174,103.479343 C129.847174,106.651272 132.423688,109.224642 135.599723,109.224642 C138.775653,109.224642 141.352271,106.651375 141.352271,103.479343 C141.352271,100.307415 138.775757,97.7340443 135.599723,97.7340443 Z M156.399584,97.7340443 C153.223653,97.7340443 150.647036,100.307311 150.647036,103.479343 C150.647036,106.651272 153.223549,109.224642 156.399584,109.224642 C159.575515,109.224642 162.152132,106.651375 162.152132,103.479343 C162.152132,100.307415 159.575619,97.7340443 156.399584,97.7340443 Z M177.199445,97.7340443 C174.023515,97.7340443 171.446897,100.307311 171.446897,103.479343 C171.446897,106.651272 174.023411,109.224642 177.199445,109.224642 C180.375376,109.224642 182.951994,106.651375 182.951994,103.479343 C182.951994,100.307415 180.37548,97.7340443 177.199445,97.7340443 Z M197.999307,97.7340443 C194.823376,97.7340443 192.246758,100.307311 192.246758,103.479343 C192.246758,106.651272 194.823272,109.224642 197.999307,109.224642 L197.999307,97.7340443 L197.999307,97.7340443 Z M0.400623996,108.64021 C-2.48251412,108.64021 -4.83192779,110.986594 -4.83192779,113.866168 C-4.83192779,116.745672 -2.48258345,119.05958 0.400623996,119.05958 C3.28376211,119.05958 5.63317578,116.745672 5.63317578,113.866168 C5.63317578,110.986663 3.28383144,108.64021 0.400623996,108.64021 Z M21.2004853,108.64021 C18.3173472,108.64021 15.9679335,110.986594 15.9679335,113.866168 C15.9679335,116.745672 18.3172779,119.05958 21.2004853,119.05958 C24.0835888,119.05958 26.4330371,116.745672 26.4330371,113.866168 C26.4330371,110.986663 24.0836928,108.64021 21.2004853,108.64021 Z M42.0003467,108.64021 C39.1172086,108.64021 36.7677949,110.986594 36.7677949,113.866168 C36.7677949,116.745672 39.1171392,119.05958 42.0003467,119.05958 C44.8834848,119.05958 47.2328984,116.745672 47.2328984,113.866168 C47.2328984,110.986663 44.8835541,108.64021 42.0003467,108.64021 Z M62.800208,108.64021 C59.9170699,108.64021 57.5676562,110.986594 57.5676562,113.866168 C57.5676562,116.745672 59.9170006,119.05958 62.800208,119.05958 C65.6833461,119.05958 68.0327598,116.745672 68.0327598,113.866168 C68.0327598,110.986663 65.6834154,108.64021 62.800208,108.64021 Z M83.6000693,108.64021 C80.7169312,108.64021 78.3675175,110.986594 78.3675175,113.866168 C78.3675175,116.745672 80.7168619,119.05958 83.6000693,119.05958 C86.4832074,119.05958 88.8326211,116.745672 88.8326211,113.866168 C88.8326211,110.986663 86.4832768,108.64021 83.6000693,108.64021 Z M104.399931,108.64021 C101.516793,108.64021 99.1673789,110.986594 99.1673789,113.866168 C99.1673789,116.745672 101.516723,119.05958 104.399931,119.05958 C107.283069,119.05958 109.632482,116.745672 109.632482,113.866168 C109.632482,110.986663 107.283138,108.64021 104.399931,108.64021 Z M125.199792,108.64021 C122.316654,108.64021 119.96724,110.986594 119.96724,113.866168 C119.96724,116.745672 122.316585,119.05958 125.199792,119.05958 C128.08293,119.05958 130.432344,116.745672 130.432344,113.866168 C130.432344,110.986663 128.082999,108.64021 125.199792,108.64021 Z M145.999653,108.64021 C143.116515,108.64021 140.767102,110.986594 140.767102,113.866168 C140.767102,116.745672 143.116446,119.05958 145.999653,119.05958 C148.882791,119.05958 151.232205,116.745672 151.232205,113.866168 C151.232205,110.986663 148.882861,108.64021 145.999653,108.64021 Z M166.799515,108.64021 C163.916377,108.64021 161.566963,110.986594 161.566963,113.866168 C161.566963,116.745672 163.916307,119.05958 166.799515,119.05958 C169.682653,119.05958 172.032066,116.745672 172.032066,113.866168 C172.032066,110.986663 169.682722,108.64021 166.799515,108.64021 L166.799515,108.64021 Z M187.599376,108.64021 C184.716238,108.64021 182.366824,110.986594 182.366824,113.866168 C182.366824,116.745672 184.716169,119.05958 187.599376,119.05958 C190.482514,119.05958 192.831928,116.745672 192.831928,113.866168 C192.831928,110.986663 190.482583,108.64021 187.599376,108.64021 Z M-9.99930667,119.546376 L-9.99930667,128.927063 C-7.40899594,128.927063 -5.31933787,126.840038 -5.31933787,124.252992 C-5.31933787,121.665946 -7.40899594,119.546376 -9.99930667,119.546376 Z M10.8005547,119.546376 C8.21024393,119.546376 6.12058586,121.665876 6.12058586,124.252992 C6.12058586,126.840038 8.21024393,128.927063 10.8005547,128.927063 C13.3908654,128.927063 15.4805235,126.840038 15.4805235,124.252992 C15.4805235,121.665946 13.3908654,119.546376 10.8005547,119.546376 Z M31.600416,119.546376 C29.0101053,119.546376 26.9204472,121.665876 26.9204472,124.252992 C26.9204472,126.840038 29.0101053,128.927063 31.600416,128.927063 C34.1907267,128.927063 36.2803848,126.840038 36.2803848,124.252992 C36.2803848,121.665946 34.1907267,119.546376 31.600416,119.546376 Z M52.4002773,119.546376 C49.8099666,119.546376 47.7203085,121.665876 47.7203085,124.252992 C47.7203085,126.840038 49.8099666,128.927063 52.4002773,128.927063 C54.9905881,128.927063 57.0802461,126.840038 57.0802461,124.252992 C57.0802461,121.665946 54.9905881,119.546376 52.4002773,119.546376 Z M73.2001387,119.546376 C70.6098279,119.546376 68.5201699,121.665876 68.5201699,124.252992 C68.5201699,126.840038 70.6098279,128.927063 73.2001387,128.927063 C75.7904494,128.927063 77.8801075,126.840038 77.8801075,124.252992 C77.8801075,121.665946 75.7904494,119.546376 73.2001387,119.546376 Z M94,119.546376 C91.4096893,119.546376 89.3200312,121.665876 89.3200312,124.252992 C89.3200312,126.840038 91.4096893,128.927063 94,128.927063 C96.5903107,128.927063 98.6799688,126.840038 98.6799688,124.252992 C98.6799688,121.665946 96.5903107,119.546376 94,119.546376 Z M114.799861,119.546376 C112.209551,119.546376 110.119893,121.665876 110.119893,124.252992 C110.119893,126.840038 112.209551,128.927063 114.799861,128.927063 C117.390172,128.927063 119.47983,126.840038 119.47983,124.252992 C119.47983,121.665946 117.390172,119.546376 114.799861,119.546376 Z M135.599723,119.546376 C133.009412,119.546376 130.919754,121.665876 130.919754,124.252992 C130.919754,126.840038 133.009412,128.927063 135.599723,128.927063 C138.190033,128.927063 140.279691,126.840038 140.279691,124.252992 C140.279691,121.665946 138.190033,119.546376 135.599723,119.546376 Z M156.399584,119.546376 C153.809273,119.546376 151.719615,121.665876 151.719615,124.252992 C151.719615,126.840038 153.809273,128.927063 156.399584,128.927063 C158.989895,128.927063 161.079553,126.840038 161.079553,124.252992 C161.079553,121.665946 158.989895,119.546376 156.399584,119.546376 Z M177.199445,119.546376 C174.609135,119.546376 172.519477,121.665876 172.519477,124.252992 C172.519477,126.840038 174.609135,128.927063 177.199445,128.927063 C179.789756,128.927063 181.879414,126.840038 181.879414,124.252992 C181.879414,121.665946 179.789756,119.546376 177.199445,119.546376 Z M197.999307,119.546376 C195.408996,119.546376 193.319338,121.665876 193.319338,124.252992 C193.319338,126.840038 195.408996,128.927063 197.999307,128.927063 L197.999307,119.546376 Z M0.400623996,130.487164 C-1.89685935,130.487164 -3.75934827,132.347306 -3.75934827,134.641894 C-3.75934827,136.936482 -1.89685935,138.796624 0.400623996,138.796624 C2.69810735,138.796624 4.56059626,136.936482 4.56059626,134.641894 C4.56059626,132.347306 2.69810735,130.487164 0.400623996,130.487164 Z M21.2004853,130.487164 C18.9029673,130.487164 17.0405131,132.347306 17.0405131,134.641894 C17.0405131,136.936482 18.9029673,138.796624 21.2004853,138.796624 C23.4979687,138.796624 25.3604576,136.936482 25.3604576,134.641894 C25.3604576,132.347306 23.4979687,130.487164 21.2004853,130.487164 Z M42.0003467,130.487164 C39.7028633,130.487164 37.8403744,132.347306 37.8403744,134.641894 C37.8403744,136.936482 39.7028633,138.796624 42.0003467,138.796624 C44.29783,138.796624 46.1603189,136.936482 46.1603189,134.641894 C46.1603189,132.347306 44.29783,130.487164 42.0003467,130.487164 Z M62.800208,130.487164 C60.5027246,130.487164 58.6402357,132.347306 58.6402357,134.641894 C58.6402357,136.936482 60.5027246,138.796624 62.800208,138.796624 C65.0976913,138.796624 66.9601803,136.936482 66.9601803,134.641894 C66.9601803,132.347306 65.0976913,130.487164 62.800208,130.487164 Z M83.6000693,130.487164 C81.302586,130.487164 79.4400971,132.347306 79.4400971,134.641894 C79.4400971,136.936482 81.302586,138.796624 83.6000693,138.796624 C85.8975527,138.796624 87.7600416,136.936482 87.7600416,134.641894 C87.7600416,132.347306 85.8975527,130.487164 83.6000693,130.487164 Z M104.399931,130.487164 C102.102447,130.487164 100.239958,132.347306 100.239958,134.641894 C100.239958,136.936482 102.102447,138.796624 104.399931,138.796624 C106.697414,138.796624 108.559903,136.936482 108.559903,134.641894 C108.559903,132.347306 106.697414,130.487164 104.399931,130.487164 Z M125.199792,130.487164 C122.902309,130.487164 121.03982,132.347306 121.03982,134.641894 C121.03982,136.936482 122.902309,138.796624 125.199792,138.796624 C127.497275,138.796624 129.359764,136.936482 129.359764,134.641894 C129.359764,132.347306 127.497275,130.487164 125.199792,130.487164 Z M145.999653,130.487164 C143.70217,130.487164 141.839681,132.347306 141.839681,134.641894 C141.839681,136.936482 143.70217,138.796624 145.999653,138.796624 C148.297137,138.796624 150.159626,136.936482 150.159626,134.641894 C150.159626,132.347306 148.297137,130.487164 145.999653,130.487164 Z M166.799515,130.487164 C164.502031,130.487164 162.639542,132.347306 162.639542,134.641894 C162.639542,136.936482 164.502031,138.796624 166.799515,138.796624 C169.096998,138.796624 170.959487,136.936482 170.959487,134.641894 C170.959487,132.347306 169.096998,130.487164 166.799515,130.487164 Z M187.599376,130.487164 C185.301893,130.487164 183.439404,132.347306 183.439404,134.641894 C183.439404,136.936482 185.301893,138.796624 187.599376,138.796624 C189.896859,138.796624 191.759348,136.936482 191.759348,134.641894 C191.759348,132.347306 189.896859,130.487164 187.599376,130.487164 Z M-9.99930667,141.360785 L-9.99930667,148.696652 C-7.97211752,148.696652 -6.32674449,147.053457 -6.32674449,145.028718 C-6.32674449,143.004084 -7.97201352,141.360785 -9.99930667,141.360785 L-9.99930667,141.360785 Z M10.8005547,141.360785 C8.77336551,141.360785 7.12799248,143.00398 7.12799248,145.028718 C7.12799248,147.053353 8.77326151,148.696652 10.8005547,148.696652 C12.8277438,148.696652 14.4731168,147.053457 14.4731168,145.028718 C14.4731168,143.004084 12.8278478,141.360785 10.8005547,141.360785 L10.8005547,141.360785 Z M31.600416,141.360785 C29.5732268,141.360785 27.9278538,143.00398 27.9278538,145.028718 C27.9278538,147.053353 29.5731228,148.696652 31.600416,148.696652 C33.6276398,148.696652 35.2729782,147.053457 35.2729782,145.028718 C35.2729782,143.004084 33.6277091,141.360785 31.600416,141.360785 Z M52.4002773,141.360785 C50.3730535,141.360785 48.7277151,143.00398 48.7277151,145.028718 C48.7277151,147.053353 50.3729842,148.696652 52.4002773,148.696652 C54.4274665,148.696652 56.0728395,147.053457 56.0728395,145.028718 C56.0728395,143.004084 54.4275705,141.360785 52.4002773,141.360785 Z M73.2001387,141.360785 C71.1729495,141.360785 69.5275765,143.00398 69.5275765,145.028718 C69.5275765,147.053353 71.1728455,148.696652 73.2001387,148.696652 C75.2273278,148.696652 76.8727008,147.053457 76.8727008,145.028718 C76.8727008,143.004084 75.2274318,141.360785 73.2001387,141.360785 Z M94,141.360785 C91.9728108,141.360785 90.3274378,143.00398 90.3274378,145.028718 C90.3274378,147.053353 91.9727068,148.696652 94,148.696652 C96.0271892,148.696652 97.6725622,147.053457 97.6725622,145.028718 C97.6725622,143.004084 96.0272932,141.360785 94,141.360785 Z M114.799861,141.360785 C112.772672,141.360785 111.127299,143.00398 111.127299,145.028718 C111.127299,147.053353 112.772568,148.696652 114.799861,148.696652 C116.82705,148.696652 118.472424,147.053457 118.472424,145.028718 C118.472424,143.004084 116.827154,141.360785 114.799861,141.360785 Z M135.599723,141.360785 C133.572534,141.360785 131.92716,143.00398 131.92716,145.028718 C131.92716,147.053353 133.57243,148.696652 135.599723,148.696652 C137.626912,148.696652 139.272285,147.053457 139.272285,145.028718 C139.272285,143.004084 137.627016,141.360785 135.599723,141.360785 Z M156.399584,141.360785 C154.372395,141.360785 152.727022,143.00398 152.727022,145.028718 C152.727022,147.053353 154.372291,148.696652 156.399584,148.696652 C158.426773,148.696652 160.072146,147.053457 160.072146,145.028718 C160.072146,143.004084 158.426877,141.360785 156.399584,141.360785 Z M177.199445,141.360785 C175.172256,141.360785 173.526883,143.00398 173.526883,145.028718 C173.526883,147.053353 175.172152,148.696652 177.199445,148.696652 C179.226634,148.696652 180.872008,147.053457 180.872008,145.028718 C180.872008,143.004084 179.226738,141.360785 177.199445,141.360785 Z M197.999307,141.360785 C195.972118,141.360785 194.326744,143.00398 194.326744,145.028718 C194.326744,147.053353 195.972014,148.696652 197.999307,148.696652 L197.999307,141.360785 L197.999307,141.360785 Z M0.400623996,152.26695 C-1.33377244,152.26695 -2.75187232,153.683263 -2.75187232,155.415474 C-2.75187232,157.14765 -1.33377244,158.531521 0.400623996,158.531521 C2.13502043,158.531521 3.55312031,157.14765 3.55312031,155.415474 C3.55312031,153.683298 2.13502043,152.26695 0.400623996,152.26695 Z M21.2004853,152.26695 C19.4660889,152.26695 18.047989,153.683263 18.047989,155.415474 C18.047989,157.14765 19.4660889,158.531521 21.2004853,158.531521 C22.9348471,158.531521 24.3529816,157.14765 24.3529816,155.415474 C24.3529816,153.683298 22.9348818,152.26695 21.2004853,152.26695 Z M42.0003467,152.26695 C40.2659502,152.26695 38.8478503,153.683263 38.8478503,155.415474 C38.8478503,157.14765 40.2659502,158.531521 42.0003467,158.531521 C43.7347084,158.531521 45.152843,157.14765 45.152843,155.415474 C45.152843,153.683298 43.7347431,152.26695 42.0003467,152.26695 Z M62.800208,152.26695 C61.0658116,152.26695 59.6477117,153.683263 59.6477117,155.415474 C59.6477117,157.14765 61.0658116,158.531521 62.800208,158.531521 C64.5346044,158.531521 65.9527043,157.14765 65.9527043,155.415474 C65.9527043,153.683298 64.5346044,152.26695 62.800208,152.26695 Z M83.6000693,152.26695 C81.8656729,152.26695 80.447573,153.683263 80.447573,155.415474 C80.447573,157.14765 81.8656729,158.531521 83.6000693,158.531521 C85.3344658,158.531521 86.7525656,157.14765 86.7525656,155.415474 C86.7525656,153.683298 85.3344658,152.26695 83.6000693,152.26695 Z M104.399931,152.26695 C102.665569,152.26695 101.247434,153.683263 101.247434,155.415474 C101.247434,157.14765 102.665534,158.531521 104.399931,158.531521 C106.134292,158.531521 107.552427,157.14765 107.552427,155.415474 C107.552427,153.683298 106.134327,152.26695 104.399931,152.26695 Z M125.199792,152.26695 C123.46543,152.26695 122.047296,153.683263 122.047296,155.415474 C122.047296,157.14765 123.465396,158.531521 125.199792,158.531521 C126.934154,158.531521 128.352288,157.14765 128.352288,155.415474 C128.352288,153.683298 126.934188,152.26695 125.199792,152.26695 Z M145.999653,152.26695 C144.265292,152.26695 142.847157,153.683263 142.847157,155.415474 C142.847157,157.14765 144.265257,158.531521 145.999653,158.531521 C147.734015,158.531521 149.15215,157.14765 149.15215,155.415474 C149.15215,153.683298 147.73405,152.26695 145.999653,152.26695 Z M166.799515,152.26695 C165.065153,152.26695 163.647018,153.683263 163.647018,155.415474 C163.647018,157.14765 165.065118,158.531521 166.799515,158.531521 C168.533876,158.531521 169.952011,157.14765 169.952011,155.415474 C169.952011,153.683298 168.533911,152.26695 166.799515,152.26695 Z M187.599376,152.26695 C185.865014,152.26695 184.44688,153.683263 184.44688,155.415474 C184.44688,157.14765 185.86498,158.531521 187.599376,158.531521 C189.333738,158.531521 190.751872,157.14765 190.751872,155.415474 C190.751872,153.683298 189.333772,152.26695 187.599376,152.26695 Z M-9.99930667,163.173116 L-9.99930667,168.399074 C-8.55773762,168.399074 -7.399324,167.242085 -7.399324,165.802367 C-7.399324,164.36265 -8.55773762,163.173185 -9.99930667,163.173185 L-9.99930667,163.173116 Z M10.8005547,163.173116 C9.35898561,163.173116 8.200572,164.362546 8.200572,165.802298 C8.200572,167.242016 9.35898561,168.399004 10.8005547,168.399004 C12.2421237,168.399004 13.4005373,167.242016 13.4005373,165.802298 C13.4005373,164.36258 12.2421237,163.173116 10.8005547,163.173116 Z M31.600416,163.173116 C30.1588469,163.173116 29.0004333,164.362546 29.0004333,165.802298 C29.0004333,167.242016 30.1588469,168.399004 31.600416,168.399004 C33.0419851,168.399004 34.2003987,167.242016 34.2003987,165.802298 C34.2003987,164.36258 33.0419851,163.173116 31.600416,163.173116 Z M52.4002773,163.173116 C50.9587083,163.173116 49.8002947,164.362546 49.8002947,165.802298 C49.8002947,167.242016 50.9587083,168.399004 52.4002773,168.399004 C53.8418464,168.399004 55.00026,167.242016 55.00026,165.802298 C55.00026,164.36258 53.8418464,163.173116 52.4002773,163.173116 Z M73.2001387,163.173116 C71.7585696,163.173116 70.600156,164.362546 70.600156,165.802298 C70.600156,167.242016 71.7585696,168.399004 73.2001387,168.399004 C74.6417077,168.399004 75.8001213,167.242016 75.8001213,165.802298 C75.8001213,164.36258 74.6417077,163.173116 73.2001387,163.173116 Z M94,163.173116 C92.5584309,163.173116 91.4000173,164.362546 91.4000173,165.802298 C91.4000173,167.242016 92.5584309,168.399004 94,168.399004 C95.4415691,168.399004 96.5999827,167.242016 96.5999827,165.802298 C96.5999827,164.36258 95.4415691,163.173116 94,163.173116 Z M114.799861,163.173116 C113.358292,163.173116 112.199879,164.362546 112.199879,165.802298 C112.199879,167.242016 113.358292,168.399004 114.799861,168.399004 C116.24143,168.399004 117.399844,167.242016 117.399844,165.802298 C117.399844,164.36258 116.24143,163.173116 114.799861,163.173116 Z M135.599723,163.173116 C134.158154,163.173116 132.99974,164.362546 132.99974,165.802298 C132.99974,167.242016 134.158154,168.399004 135.599723,168.399004 C137.041292,168.399004 138.199705,167.242016 138.199705,165.802298 C138.199705,164.36258 137.041292,163.173116 135.599723,163.173116 Z M156.399584,163.173116 C154.958015,163.173116 153.799601,164.362546 153.799601,165.802298 C153.799601,167.242016 154.958015,168.399004 156.399584,168.399004 C157.841153,168.399004 158.999567,167.242016 158.999567,165.802298 C158.999567,164.36258 157.841153,163.173116 156.399584,163.173116 Z M177.199445,163.173116 C175.757876,163.173116 174.599463,164.362546 174.599463,165.802298 C174.599463,167.242016 175.757876,168.399004 177.199445,168.399004 C178.641014,168.399004 179.799428,167.242016 179.799428,165.802298 C179.799428,164.36258 178.641014,163.173116 177.199445,163.173116 Z M197.999307,163.173116 C196.557738,163.173116 195.399324,164.362546 195.399324,165.802298 C195.399324,167.242016 196.557738,168.399004 197.999307,168.399004 L197.999307,163.173047 L197.999307,163.173116 Z M0.400623996,174.110442 C-0.748117679,174.110442 -1.67936214,175.040478 -1.67936214,176.187807 C-1.67936214,177.335136 -0.748117679,178.265172 0.400623996,178.265172 C1.54936567,178.265172 2.48061013,177.335136 2.48061013,176.187807 C2.48061013,175.040478 1.54936567,174.110442 0.400623996,174.110442 Z M21.2004853,174.110442 C20.0517437,174.110442 19.1204992,175.040478 19.1204992,176.187807 C19.1204992,177.335136 20.0517437,178.265172 21.2004853,178.265172 C22.349227,178.265172 23.2804715,177.335136 23.2804715,176.187807 C23.2804715,175.040478 22.349227,174.110442 21.2004853,174.110442 Z M42.0003467,174.110442 C40.851605,174.110442 39.9203605,175.040478 39.9203605,176.187807 C39.9203605,177.335136 40.851605,178.265172 42.0003467,178.265172 C43.1490883,178.265172 44.0803328,177.335136 44.0803328,176.187807 C44.0803328,175.040478 43.1490883,174.110442 42.0003467,174.110442 Z M62.800208,174.110442 C61.6514663,174.110442 60.7202219,175.040478 60.7202219,176.187807 C60.7202219,177.335136 61.6514663,178.265172 62.800208,178.265172 C63.9489497,178.265172 64.8801941,177.335136 64.8801941,176.187807 C64.8801941,175.040478 63.9489497,174.110442 62.800208,174.110442 Z M83.6000693,174.110442 C82.4513277,174.110442 81.5200832,175.040478 81.5200832,176.187807 C81.5200832,177.335136 82.4513277,178.265172 83.6000693,178.265172 C84.748811,178.265172 85.6800555,177.335136 85.6800555,176.187807 C85.6800555,175.040478 84.748811,174.110442 83.6000693,174.110442 Z M104.399931,174.110442 C103.251189,174.110442 102.319945,175.040478 102.319945,176.187807 C102.319945,177.335136 103.251189,178.265172 104.399931,178.265172 C105.548672,178.265172 106.479917,177.335136 106.479917,176.187807 C106.479917,175.040478 105.548672,174.110442 104.399931,174.110442 Z M125.199792,174.110442 C124.05105,174.110442 123.119806,175.040478 123.119806,176.187807 C123.119806,177.335136 124.05105,178.265172 125.199792,178.265172 C126.348534,178.265172 127.279778,177.335136 127.279778,176.187807 C127.279778,175.040478 126.348534,174.110442 125.199792,174.110442 Z M145.999653,174.110442 C144.850912,174.110442 143.919667,175.040478 143.919667,176.187807 C143.919667,177.335136 144.850912,178.265172 145.999653,178.265172 C147.148395,178.265172 148.079639,177.335136 148.079639,176.187807 C148.079639,175.040478 147.148395,174.110442 145.999653,174.110442 Z M166.799515,174.110442 C165.650773,174.110442 164.719529,175.040478 164.719529,176.187807 C164.719529,177.335136 165.650773,178.265172 166.799515,178.265172 C167.948256,178.265172 168.879501,177.335136 168.879501,176.187807 C168.879501,175.040478 167.948256,174.110442 166.799515,174.110442 Z M187.599376,174.110442 C186.450634,174.110442 185.51939,175.040478 185.51939,176.187807 C185.51939,177.335136 186.450634,178.265172 187.599376,178.265172 C188.748118,178.265172 189.679362,177.335136 189.679362,176.187807 C189.679362,175.040478 188.748118,174.110442 187.599376,174.110442 Z M-9.99930667,184.984062 L-9.99930667,188.164924 C-9.12085919,188.164924 -8.40679995,187.451868 -8.40679995,186.574493 C-8.40679995,185.697118 -9.12082453,184.984062 -9.99930667,184.984062 L-9.99930667,184.984062 Z M10.8005547,184.984062 C9.92210719,184.984062 9.20804795,185.697118 9.20804795,186.574493 C9.20804795,187.451868 9.92207252,188.164924 10.8005547,188.164924 C11.6790021,188.164924 12.3930614,187.451868 12.3930614,186.574493 C12.3930614,185.697118 11.6790021,184.984062 10.8005547,184.984062 Z M31.600416,184.984062 C30.7219685,184.984062 30.0079093,185.697118 30.0079093,186.574493 C30.0079093,187.451868 30.7219685,188.164924 31.600416,188.164924 C32.4788635,188.164924 33.1929227,187.451868 33.1929227,186.574493 C33.1929227,185.697118 32.4788981,184.984062 31.600416,184.984062 Z M52.4002773,184.984062 C51.5218299,184.984062 50.8077706,185.697118 50.8077706,186.574493 C50.8077706,187.451868 51.5217952,188.164924 52.4002773,188.164924 C53.2787248,188.164924 53.992784,187.451868 53.992784,186.574493 C53.992784,185.697118 53.2787248,184.984062 52.4002773,184.984062 Z M73.2001387,184.984062 C72.3216912,184.984062 71.6076319,185.697118 71.6076319,186.574493 C71.6076319,187.451868 72.3216565,188.164924 73.2001387,188.164924 C74.0785861,188.164924 74.7926454,187.451868 74.7926454,186.574493 C74.7926454,185.697118 74.0786208,184.984062 73.2001387,184.984062 Z M94,184.984062 C93.1215525,184.984062 92.4074933,185.697118 92.4074933,186.574493 C92.4074933,187.451868 93.1215179,188.164924 94,188.164924 C94.8784475,188.164924 95.5925067,187.451868 95.5925067,186.574493 C95.5925067,185.697118 94.8784821,184.984062 94,184.984062 Z M114.799861,184.984062 C113.921414,184.984062 113.207355,185.697118 113.207355,186.574493 C113.207355,187.451868 113.921379,188.164924 114.799861,188.164924 C115.678309,188.164924 116.392368,187.451868 116.392368,186.574493 C116.392368,185.697118 115.678343,184.984062 114.799861,184.984062 Z M135.599723,184.984062 C134.721275,184.984062 134.007216,185.697118 134.007216,186.574493 C134.007216,187.451868 134.721241,188.164924 135.599723,188.164924 C136.47817,188.164924 137.192229,187.451868 137.192229,186.574493 C137.192229,185.697118 136.478205,184.984062 135.599723,184.984062 Z M156.399584,184.984062 C155.521137,184.984062 154.807077,185.697118 154.807077,186.574493 C154.807077,187.451868 155.521102,188.164924 156.399584,188.164924 C157.278031,188.164924 157.992091,187.451868 157.992091,186.574493 C157.992091,185.697118 157.278066,184.984062 156.399584,184.984062 Z M177.199445,184.984062 C176.320998,184.984062 175.606939,185.697118 175.606939,186.574493 C175.606939,187.451868 176.320963,188.164924 177.199445,188.164924 C178.077893,188.164924 178.791952,187.451868 178.791952,186.574493 C178.791952,185.697118 178.077927,184.984062 177.199445,184.984062 Z M197.999307,184.984062 C197.120859,184.984062 196.4068,185.697118 196.4068,186.574493 C196.4068,187.451868 197.120825,188.164924 197.999307,188.164924 L197.999307,184.984062 L197.999307,184.984062 Z M0.400623996,195.890228 C-0.1849961,195.890228 -0.671886187,196.376435 -0.671886187,196.961318 C-0.671886187,197.5462 -0.185030766,198 0.400623996,198 C0.986244092,198 1.47313418,197.5462 1.47313418,196.961318 C1.47313418,196.376435 0.986278758,195.890228 0.400623996,195.890228 Z M21.2004853,195.890228 C20.6148652,195.890228 20.1279751,196.376435 20.1279751,196.961318 C20.1279751,197.5462 20.6148306,198 21.2004853,198 C21.7861054,198 22.2729955,197.5462 22.2729955,196.961318 C22.2729955,196.376435 21.7861401,195.890228 21.2004853,195.890228 Z M42.0003467,195.890228 C41.4146919,195.890228 40.9278365,196.376435 40.9278365,196.961318 C40.9278365,197.5462 41.4146919,198 42.0003467,198 C42.5859668,198 43.0728568,197.5462 43.0728568,196.961318 C43.0728568,196.376435 42.5860014,195.890228 42.0003467,195.890228 Z M62.800208,195.890228 C62.2145532,195.890228 61.7276978,196.376435 61.7276978,196.961318 C61.7276978,197.5462 62.2145532,198 62.800208,198 C63.3858281,198 63.8727182,197.5462 63.8727182,196.961318 C63.8727182,196.376435 63.3858628,195.890228 62.800208,195.890228 Z M83.6000693,195.890228 C83.0144146,195.890228 82.5275591,196.376435 82.5275591,196.961318 C82.5275591,197.5462 83.0144146,198 83.6000693,198 C84.1856894,198 84.6725795,197.5462 84.6725795,196.961318 C84.6725795,196.376435 84.1857241,195.890228 83.6000693,195.890228 Z M104.399931,195.890228 C103.814311,195.890228 103.32742,196.376435 103.32742,196.961318 C103.32742,197.5462 103.814276,198 104.399931,198 C104.985551,198 105.472441,197.5462 105.472441,196.961318 C105.472441,196.376435 104.985585,195.890228 104.399931,195.890228 Z M125.199792,195.890228 C124.614172,195.890228 124.127282,196.376435 124.127282,196.961318 C124.127282,197.5462 124.614137,198 125.199792,198 C125.785412,198 126.272302,197.5462 126.272302,196.961318 C126.272302,196.376435 125.785447,195.890228 125.199792,195.890228 Z M145.999653,195.890228 C145.414033,195.890228 144.927143,196.376435 144.927143,196.961318 C144.927143,197.5462 145.413999,198 145.999653,198 C146.585273,198 147.072164,197.5462 147.072164,196.961318 C147.072164,196.376435 146.585308,195.890228 145.999653,195.890228 Z M166.799515,195.890228 C166.213895,195.890228 165.727004,196.376435 165.727004,196.961318 C165.727004,197.5462 166.21386,198 166.799515,198 C167.385135,198 167.872025,197.5462 167.872025,196.961318 C167.872025,196.376435 167.385169,195.890228 166.799515,195.890228 Z M187.599376,195.890228 C187.013756,195.890228 186.526866,196.376435 186.526866,196.961318 C186.526866,197.5462 187.013721,198 187.599376,198 C188.184996,198 188.671886,197.5462 188.671886,196.961318 C188.671886,196.376435 188.185031,195.890228 187.599376,195.890228 Z" id="use19704" transform="translate(94.000000, 104.000000) rotate(90.000000) translate(-94.000000, -104.000000) "></path>
            <rect id="Rectangle" x="188" y="0" width="24" height="208"></rect>
        </g>
    </g>
</svg>