<?xml version="1.0" encoding="UTF-8"?>
<svg width="265px" height="40px" viewBox="0 0 265 40" version="1.1" xmlns="http://www.w3.org/2000/svg" xmlns:xlink="http://www.w3.org/1999/xlink">
    <title>Halftone</title>
    <g id="Halftone" stroke="none" stroke-width="1" fill="none" fill-rule="evenodd">
        <g transform="translate(0.000000, -64.000000)" fill="#066D59" fill-rule="nonzero">
            <path d="M-12,13 C-12,13.1403779 -11.963803,13.266435 -11.9593753,13.4057353 C-11.9729346,13.4056964 -11.9864303,13.4057353 -12,13.4057353 L-12,38.5613259 C-11.5653696,38.5613259 -11.1233292,38.5231543 -10.7000087,38.4801788 C-10.7065225,38.6404475 -10.7406334,38.8051956 -10.7406334,38.9670612 C-10.7406334,39.6641903 -10.654457,40.3320631 -10.5375097,40.9957379 C-11.0149532,40.9328976 -11.5053966,40.8740822 -12,40.8740822 L-12,62.986766 C-11.0003067,62.986766 -10.0367531,62.8292888 -9.1156659,62.5810307 C-9.28886807,63.3384033 -9.40001733,64.1347265 -9.40001733,64.9397054 C-9.40001733,66.280731 -9.13208912,67.5362817 -8.66877221,68.7130656 C-9.70633862,68.3408711 -10.8333011,68.1461181 -12,68.1461181 L-12,87.7027775 C-10.0895761,87.7027775 -8.30655129,87.1061843 -6.80003467,86.1609833 C-7.64368571,87.5420414 -8.1406724,89.1719073 -8.1406724,90.9081948 C-8.1406724,95.9414769 -4.0399364,99.9966663 1,99.9966663 C6.03963307,99.9966663 10.1406724,95.9416933 10.1406724,90.9081948 C10.1406724,89.1720371 9.64372904,87.5421712 8.80003467,86.1609833 C10.3065513,87.1061843 12.0895761,87.7027775 14,87.7027775 C15.9104239,87.7027775 17.6934487,87.1061843 19.1999653,86.1609833 C18.3563143,87.5420414 17.8593276,89.1719073 17.8593276,90.9081948 C17.8593276,95.9414769 21.9600636,99.9966663 27,99.9966663 C32.0396331,99.9966663 36.1406724,95.9416933 36.1406724,90.9081948 C36.1406724,89.1720371 35.643729,87.5421712 34.8000347,86.1609833 C36.3065513,87.1061843 38.0895761,87.7027775 40,87.7027775 C41.9104239,87.7027775 43.6934487,87.1061843 45.1999653,86.1609833 C44.3563143,87.5420414 43.8593276,89.1719073 43.8593276,90.9081948 C43.8593276,95.9414769 47.9600636,99.9966663 53,99.9966663 C58.0396331,99.9966663 62.1406724,95.9416933 62.1406724,90.9081948 C62.1406724,89.1720371 61.643729,87.5421712 60.8000347,86.1609833 C62.3065513,87.1061843 64.0895761,87.7027775 66,87.7027775 C67.9104239,87.7027775 69.6934487,87.1061843 71.1999653,86.1609833 C70.3563143,87.5420414 69.8593276,89.1719073 69.8593276,90.9081948 C69.8593276,95.9414769 73.9600636,99.9966663 79,99.9966663 C84.0396331,99.9966663 88.1406724,95.9416933 88.1406724,90.9081948 C88.1406724,89.1720371 87.643729,87.5421712 86.8000347,86.1609833 C88.3065513,87.1061843 90.0895761,87.7027775 92,87.7027775 C93.9104239,87.7027775 95.6934487,87.1061843 97.1999653,86.1609833 C96.3563143,87.5420414 95.8593276,89.1719073 95.8593276,90.9081948 C95.8593276,95.9414769 99.9600636,99.9966663 105,99.9966663 C110.039633,99.9966663 114.140672,95.9416933 114.140672,90.9081948 C114.140672,89.1720371 113.643729,87.5421712 112.800035,86.1609833 C114.306551,87.1061843 116.089576,87.7027775 118,87.7027775 C119.910424,87.7027775 121.693449,87.1061843 123.199965,86.1609833 C122.356314,87.5420414 121.859328,89.1719073 121.859328,90.9081948 C121.859328,95.9414769 125.960064,99.9966663 131,99.9966663 C136.039633,99.9966663 140.140672,95.9416933 140.140672,90.9081948 C140.140672,89.1720371 139.643729,87.5421712 138.800035,86.1609833 C140.306551,87.1061843 142.089576,87.7027775 144,87.7027775 C145.910424,87.7027775 147.693449,87.1061843 149.199965,86.1609833 C148.356314,87.5420414 147.859328,89.1719073 147.859328,90.9081948 C147.859328,95.9414769 151.960064,99.9966663 157,99.9966663 C162.039633,99.9966663 166.140672,95.9416933 166.140672,90.9081948 C166.140672,89.1720371 165.643729,87.5421712 164.800035,86.1609833 C166.306551,87.1061843 168.089576,87.7027775 170,87.7027775 C171.910424,87.7027775 173.693449,87.1061843 175.199965,86.1609833 C174.356314,87.5420414 173.859328,89.1719073 173.859328,90.9081948 C173.859328,95.9414769 177.960064,99.9966663 183,99.9966663 C188.039633,99.9966663 192.140672,95.9416933 192.140672,90.9081948 C192.140672,89.1720371 191.643729,87.5421712 190.800035,86.1609833 C192.306551,87.1061843 194.089576,87.7027775 196,87.7027775 C197.910424,87.7027775 199.693449,87.1061843 201.199965,86.1609833 C200.356314,87.5420414 199.859328,89.1719073 199.859328,90.9081948 C199.859328,95.9414769 203.960064,99.9966663 209,99.9966663 C214.039633,99.9966663 218.140672,95.9416933 218.140672,90.9081948 C218.140672,89.1720371 217.643729,87.5421712 216.800035,86.1609833 C218.306551,87.1061843 220.089576,87.7027775 222,87.7027775 C223.910424,87.7027775 225.693449,87.1061843 227.199965,86.1609833 C226.356314,87.5420414 225.859328,89.1719073 225.859328,90.9081948 C225.859328,95.9414769 229.960064,99.9966663 235,99.9966663 C240.039633,99.9966663 244.140672,95.9416933 244.140672,90.9081948 C244.140672,89.1720371 243.643729,87.5421712 242.800035,86.1609833 C244.306551,87.1061843 246.089576,87.7027775 248,87.7027775 L248,68.1461181 C246.833301,68.1461181 245.706339,68.340144 244.668772,68.7141476 C245.132089,67.5374069 245.400017,66.281813 245.400017,64.9407874 C245.400017,64.1365009 245.288868,63.3393121 245.115644,62.5875224 C246.036775,62.8357805 247.000285,62.9932578 248,62.9932578 L248,40.880574 C247.505375,40.880574 247.014932,40.9395192 246.537488,41.0022297 C246.654435,40.3385981 246.740612,39.670682 246.740612,38.973553 C246.740612,38.8116873 246.706465,38.6469393 246.700009,38.4866706 C247.123312,38.5296461 247.56537,38.5678177 248,38.5678177 L248,13.4122271 C247.986437,13.4122271 247.97296,13.4121881 247.959397,13.4122271 C247.963947,13.2729268 248,13.1468697 248,13.0064918 L222.000173,13.0064918 C222.000173,13.1468697 222.036356,13.2729268 222.040776,13.4122271 C222.027213,13.4121881 222.013737,13.4122271 222.000173,13.4122271 C221.98661,13.4122271 221.973134,13.4121881 221.95957,13.4122271 C221.96412,13.2729268 222.000173,13.1468697 222.000173,13.0064918 L196.000347,13.0064918 C196.000347,13.1468697 196.036573,13.2729268 196.04095,13.4122271 C196.027386,13.4121881 196.01391,13.4122271 196.000347,13.4122271 C195.986783,13.4122271 195.973307,13.4121881 195.959744,13.4122271 C195.964294,13.2729268 196.000347,13.1468697 196.000347,13.0064918 L170.00052,13.0064918 C170.00052,13.1468697 170.036746,13.2729268 170.041123,13.4122271 C170.02756,13.4121881 170.014083,13.4122271 170.00052,13.4122271 C169.986957,13.4122271 169.97348,13.4121881 169.959917,13.4122271 C169.964467,13.2729268 170.00052,13.1468697 170.00052,13.0064918 L144.000693,13.0064918 C144.000693,13.1468697 144.03692,13.2729268 144.041296,13.4122271 C144.027733,13.4121881 144.014257,13.4122271 144.000693,13.4122271 C143.98713,13.4122271 143.973654,13.4121881 143.96009,13.4122271 C143.96464,13.2729268 144.000693,13.1468697 144.000693,13.0064918 L118.000867,13.0064918 C118.000867,13.1468697 118.037093,13.2729268 118.04147,13.4122271 C118.027906,13.4121881 118.01443,13.4122271 118.000867,13.4122271 C117.987303,13.4122271 117.973827,13.4121881 117.960264,13.4122271 C117.964814,13.2729268 118.000867,13.1468697 118.000867,13.0064918 L92.00104,13.0064918 C92.00104,13.1468697 92.0372664,13.2729268 92.0416431,13.4122271 C92.0280365,13.4121881 92.0146032,13.4122271 92.00104,13.4122271 C91.9874334,13.4122271 91.9740002,13.4121881 91.9604369,13.4122271 C91.9649869,13.2729268 92.00104,13.1468697 92.00104,13.0064918 L66.0012133,13.0064918 C66.0012133,13.1468697 66.0374398,13.2729268 66.0418164,13.4122271 C66.0282098,13.4121881 66.0147766,13.4122271 66.0012133,13.4122271 C65.9876067,13.4122271 65.9741735,13.4121881 65.9606103,13.4122271 C65.9651602,13.2729268 66.0012133,13.1468697 66.0012133,13.0064918 L40.0013867,13.0064918 C40.0013867,13.1468697 40.0375697,13.2729268 40.0419897,13.4122271 C40.0284265,13.4121881 40.0149499,13.4122271 40.0013867,13.4122271 C39.9878234,13.4122271 39.9743035,13.4121881 39.9607836,13.4122271 C39.9652036,13.2729917 40.0013867,13.1469346 40.0013867,13.0065567 L14.00156,13.0065567 C14.00156,13.1469346 14.0377561,13.2729917 14.0421847,13.412292 C14.0286258,13.4122531 14.0151319,13.412292 14.00156,13.412292 C13.9879881,13.412292 13.9744942,13.4122531 13.9609353,13.412292 C13.9652686,13.273801 14.0016683,13.1439657 14.0016683,13.0054747 L-12,13.0054747 L-12,13 Z M0.593449377,25.9428489 C0.728739475,25.946744 0.863396911,25.9833575 0.999696669,25.9833575 C1.13599643,25.9833575 1.27065386,25.9468738 1.40594396,25.9428489 C1.40590106,25.9563518 1.40594396,25.9698546 1.40594396,25.9833575 C1.40594396,26.4174402 1.44420271,26.8183716 1.48719342,27.2411154 C1.32706915,27.2346236 1.16141126,27.2411154 0.999696669,27.2411154 C0.83798208,27.2411154 0.672324185,27.2346236 0.512199919,27.2411154 C0.555190632,26.8183457 0.593449377,26.4174402 0.593449377,25.9833575 C0.593449377,25.9698546 0.593492277,25.9563518 0.593449377,25.9428489 Z M26.593276,25.9428489 C26.7285661,25.946744 26.8632236,25.9833575 26.9995233,25.9833575 C27.1358231,25.9833575 27.2704805,25.9468738 27.4057706,25.9428489 C27.4057277,25.9563518 27.4057706,25.9698546 27.4057706,25.9833575 C27.4057706,26.4174402 27.4440294,26.8183716 27.4870201,27.2411154 C27.3268958,27.2346236 27.1612379,27.2411154 26.9995233,27.2411154 C26.8378087,27.2411154 26.6721509,27.2346236 26.5120266,27.2411154 C26.5550173,26.8183457 26.593276,26.4174402 26.593276,25.9833575 C26.593276,25.9698546 26.5933189,25.9563518 26.593276,25.9428489 Z M52.5931027,25.9428489 C52.7283928,25.946744 52.8630502,25.9833575 52.99935,25.9833575 C53.1356541,25.9833575 53.2703072,25.9468738 53.4055973,25.9428489 C53.4055496,25.9563518 53.4055973,25.9698546 53.4055973,25.9833575 C53.4055973,26.4174402 53.4438604,26.8183716 53.4868468,27.2411154 C53.3267268,27.2346236 53.1610603,27.2411154 52.99935,27.2411154 C52.8376354,27.2411154 52.6719775,27.2346236 52.5118533,27.2411154 C52.5548396,26.8183457 52.5931027,26.4174402 52.5931027,25.9833575 C52.5931027,25.9698546 52.593146,25.9563518 52.5931027,25.9428489 Z M78.5929294,25.9428489 C78.7282195,25.946744 78.8628726,25.9833575 78.9991767,25.9833575 C79.1354808,25.9833575 79.2701339,25.9468738 79.405424,25.9428489 C79.4053763,25.9563518 79.405424,25.9698546 79.405424,25.9833575 C79.405424,26.4174402 79.443687,26.8183716 79.4866734,27.2411154 C79.3265535,27.2346236 79.1608913,27.2411154 78.9991767,27.2411154 C78.8374621,27.2411154 78.6717999,27.2346236 78.5116799,27.2411154 C78.5546663,26.8183457 78.5929294,26.4174402 78.5929294,25.9833575 C78.5929294,25.9698546 78.5929727,25.9563518 78.5929294,25.9428489 Z M104.592756,25.9428489 C104.728046,25.946744 104.862699,25.9833575 104.999003,25.9833575 C105.135307,25.9833575 105.269961,25.9468738 105.405251,25.9428489 C105.405207,25.9563518 105.405251,25.9698546 105.405251,25.9833575 C105.405251,26.4174402 105.443514,26.8183716 105.4865,27.2411154 C105.32638,27.2346236 105.160718,27.2411154 104.999003,27.2411154 C104.837289,27.2411154 104.671627,27.2346236 104.511507,27.2411154 C104.554493,26.8183457 104.592756,26.4174402 104.592756,25.9833575 C104.592756,25.9698546 104.592799,25.9563518 104.592756,25.9428489 Z M130.592583,25.9428489 C130.727873,25.946744 130.862526,25.9833575 130.99883,25.9833575 C131.135134,25.9833575 131.269787,25.9468738 131.405077,25.9428489 C131.405038,25.9563518 131.405077,25.9698546 131.405077,25.9833575 C131.405077,26.4174402 131.44334,26.8183716 131.486327,27.2411154 C131.326207,27.2346236 131.160549,27.2411154 130.99883,27.2411154 C130.837111,27.2411154 130.671453,27.2346236 130.511333,27.2411154 C130.55432,26.8183457 130.592583,26.4174402 130.592583,25.9833575 C130.592583,25.9698546 130.592622,25.9563518 130.592583,25.9428489 Z M156.592409,25.9428489 C156.727699,25.946744 156.862353,25.9833575 156.998657,25.9833575 C157.134961,25.9833575 157.269614,25.9468738 157.404904,25.9428489 C157.404865,25.9563518 157.404904,25.9698546 157.404904,25.9833575 C157.404904,26.4174402 157.443167,26.8183716 157.486153,27.2411154 C157.326033,27.2346236 157.160376,27.2411154 156.998657,27.2411154 C156.836938,27.2411154 156.67128,27.2346236 156.51116,27.2411154 C156.554146,26.8183457 156.592409,26.4174402 156.592409,25.9833575 C156.592409,25.9698546 156.592448,25.9563518 156.592409,25.9428489 Z M182.592236,25.9428489 C182.727526,25.946744 182.862179,25.9833575 182.998483,25.9833575 C183.134787,25.9833575 183.269441,25.9468738 183.404731,25.9428489 C183.404692,25.9563518 183.404731,25.9698546 183.404731,25.9833575 C183.404731,26.4174402 183.442994,26.8183716 183.48598,27.2411154 C183.32586,27.2346236 183.160202,27.2411154 182.998483,27.2411154 C182.836764,27.2411154 182.671107,27.2346236 182.510987,27.2411154 C182.553973,26.8183457 182.592236,26.4174402 182.592236,25.9833575 C182.592236,25.9698546 182.592275,25.9563518 182.592236,25.9428489 Z M208.592063,25.9428489 C208.727353,25.946744 208.862006,25.9833575 208.99831,25.9833575 C209.134614,25.9833575 209.269267,25.9468738 209.404557,25.9428489 C209.404518,25.9563518 209.404557,25.9698546 209.404557,25.9833575 C209.404557,26.4174402 209.44282,26.8183716 209.485807,27.2411154 C209.325687,27.2346236 209.160029,27.2411154 208.99831,27.2411154 C208.836591,27.2411154 208.670933,27.2346236 208.510813,27.2411154 C208.5538,26.8183457 208.592063,26.4174402 208.592063,25.9833575 C208.592063,25.9698546 208.592102,25.9563518 208.592063,25.9428489 Z M234.591889,25.9428489 C234.727179,25.946744 234.861833,25.9833575 234.998137,25.9833575 C235.134441,25.9833575 235.269094,25.9468738 235.404384,25.9428489 C235.404345,25.9563518 235.404384,25.9698546 235.404384,25.9833575 C235.404384,26.4174402 235.442647,26.8183716 235.485633,27.2411154 C235.325513,27.2346236 235.159856,27.2411154 234.998137,27.2411154 C234.836418,27.2411154 234.67076,27.2346236 234.51064,27.2411154 C234.553626,26.8183457 234.591889,26.4174402 234.591889,25.9833575 C234.591889,25.9698546 234.591928,25.9563518 234.591889,25.9428489 Z M12.700702,38.4806116 C13.1240138,38.5235871 13.5660629,38.5617587 14.0006933,38.5617587 C14.4353238,38.5617587 14.8773642,38.5235871 15.3006847,38.4806116 C15.2941717,38.6408803 15.2600599,38.8056284 15.2600599,38.967494 C15.2600599,39.6646231 15.3462364,40.3324959 15.4631836,40.9961707 C14.9857401,40.9333304 14.4952967,40.874515 14.0006933,40.874515 C13.50609,40.874515 13.0156466,40.9334602 12.5382031,40.9961707 C12.6551503,40.3325392 12.7413267,39.6646231 12.7413267,38.967494 C12.7413267,38.8056284 12.707215,38.6408803 12.700702,38.4806116 Z M38.7005287,38.4806116 C39.1238362,38.5235871 39.5658896,38.5617587 40.00052,38.5617587 C40.4351504,38.5617587 40.8771908,38.5235871 41.3005113,38.4806116 C41.2940114,38.6408803 41.2599083,38.8056284 41.2599083,38.967494 C41.2599083,39.6646231 41.3460847,40.3324959 41.4630319,40.9961707 C40.9855884,40.9333304 40.495145,40.874515 40.0005417,40.874515 C39.5059383,40.874515 39.0154949,40.9334602 38.5380514,40.9961707 C38.6549986,40.3325392 38.7411751,39.6646231 38.7411751,38.967494 C38.7411751,38.8056284 38.707072,38.6408803 38.700572,38.4806116 L38.7005287,38.4806116 Z M64.7003553,38.4806116 C65.1236628,38.5235871 65.5657162,38.5617587 66.0003467,38.5617587 C66.4349771,38.5617587 66.8770175,38.5235871 67.300338,38.4806116 C67.293838,38.6408803 67.2597349,38.8056284 67.2597349,38.967494 C67.2597349,39.6646231 67.3459114,40.3324959 67.4628586,40.9961707 C66.9854151,40.9333304 66.4949717,40.874515 66.0003683,40.874515 C65.505765,40.874515 65.0153216,40.9334602 64.5378781,40.9961707 C64.6548253,40.3325392 64.7410017,39.6646231 64.7410017,38.967494 C64.7410017,38.8056284 64.7068553,38.6408803 64.7003987,38.4806116 L64.7003553,38.4806116 Z M90.700182,38.4806116 C91.1234895,38.5235871 91.5655429,38.5617587 92.0001733,38.5617587 C92.4348038,38.5617587 92.8768442,38.5235871 93.3001647,38.4806116 C93.2936647,38.6408803 93.2595616,38.8056284 93.2595616,38.967494 C93.2595616,39.6646231 93.345738,40.3324959 93.4626852,40.9961707 C92.9852418,40.9333304 92.4947984,40.874515 92.000195,40.874515 C91.5055916,40.874515 91.0151482,40.9334602 90.5377047,40.9961707 C90.654652,40.3325392 90.7408284,39.6646231 90.7408284,38.967494 C90.7408284,38.8056284 90.706682,38.6408803 90.7002253,38.4806116 L90.700182,38.4806116 Z M116.700009,38.4806116 C117.123316,38.5235871 117.56537,38.5617587 118,38.5617587 C118.43463,38.5617587 118.876671,38.5235871 119.299991,38.4806116 C119.293491,38.6408803 119.259388,38.8056284 119.259388,38.967494 C119.259388,39.6646231 119.345565,40.3324959 119.462512,40.9961707 C118.985068,40.9333304 118.494625,40.874515 118.000022,40.874515 C117.505418,40.874515 117.014975,40.9334602 116.537531,40.9961707 C116.654479,40.3325392 116.740655,39.6646231 116.740655,38.967494 C116.740655,38.8056284 116.706509,38.6408803 116.700052,38.4806116 L116.700009,38.4806116 Z M142.699835,38.4806116 C143.123139,38.5235871 143.565196,38.5617587 143.999827,38.5617587 C144.434457,38.5617587 144.876497,38.5235871 145.299818,38.4806116 C145.293318,38.6408803 145.259215,38.8056284 145.259215,38.967494 C145.259215,39.6646231 145.345391,40.3324959 145.462339,40.9961707 C144.984895,40.9333304 144.494452,40.874515 143.999848,40.874515 C143.505245,40.874515 143.014802,40.9334602 142.537358,40.9961707 C142.654305,40.3325392 142.740482,39.6646231 142.740482,38.967494 C142.740482,38.8056284 142.706335,38.6408803 142.699879,38.4806116 L142.699835,38.4806116 Z M168.699662,38.4806116 C169.122965,38.5235871 169.565023,38.5617587 169.999653,38.5617587 C170.434284,38.5617587 170.876324,38.5235871 171.299645,38.4806116 C171.293145,38.6408803 171.259042,38.8056284 171.259042,38.967494 C171.259042,39.6646231 171.345218,40.3324959 171.462165,40.9961707 C170.984722,40.9333304 170.494278,40.874515 169.999675,40.874515 C169.505072,40.874515 169.014628,40.9334602 168.537185,40.9961707 C168.654132,40.3325392 168.740308,39.6646231 168.740308,38.967494 C168.740308,38.8056284 168.706162,38.6408803 168.699705,38.4806116 L168.699662,38.4806116 Z M194.699489,38.4806116 C195.122792,38.5235871 195.56485,38.5617587 195.99948,38.5617587 C196.43411,38.5617587 196.876151,38.5235871 197.299471,38.4806116 C197.292971,38.6408803 197.258868,38.8056284 197.258868,38.967494 C197.258868,39.6646231 197.345045,40.3324959 197.461992,40.9961707 C196.984548,40.9333304 196.494105,40.874515 195.999502,40.874515 C195.504898,40.874515 195.014455,40.9334602 194.537011,40.9961707 C194.653959,40.3325392 194.740135,39.6646231 194.740135,38.967494 C194.740135,38.8056284 194.705989,38.6408803 194.699532,38.4806116 L194.699489,38.4806116 Z M220.699315,38.4806116 C221.122619,38.5235871 221.564676,38.5617587 221.999307,38.5617587 C222.433937,38.5617587 222.875977,38.5235871 223.299298,38.4806116 C223.292798,38.6408803 223.258695,38.8056284 223.258695,38.967494 C223.258695,39.6646231 223.344871,40.3324959 223.461819,40.9961707 C222.984375,40.9333304 222.493932,40.874515 221.999328,40.874515 C221.504725,40.874515 221.014282,40.9334602 220.536838,40.9961707 C220.653785,40.3325392 220.739962,39.6646231 220.739962,38.967494 C220.739962,38.8056284 220.705815,38.6408803 220.699359,38.4806116 L220.699315,38.4806116 Z M-1.03153979,50.447099 C-0.369844201,50.5629121 0.304807968,50.6499667 0.999696669,50.6499667 C1.69458537,50.6499667 2.36923754,50.5628472 3.03093313,50.447099 C2.96451657,50.9367512 2.94968367,51.4405122 2.94968367,51.9483414 C2.94968367,52.9366045 3.07160986,53.8769583 3.31530623,54.7884887 C2.57413784,54.6210401 1.79158639,54.5450475 0.999675002,54.5450475 C0.207806948,54.5450475 -0.574744502,54.6210012 -1.31595623,54.7884887 C-1.07225985,53.8769583 -0.950333664,52.9366045 -0.950333664,51.9483414 C-0.950333664,51.4405122 -0.965166566,50.9367512 -1.03158312,50.447099 L-1.03153979,50.447099 Z M24.9682869,50.447099 C25.6299825,50.5629121 26.3046346,50.6499667 26.9995233,50.6499667 C27.694412,50.6499667 28.3690642,50.5628472 29.0307598,50.447099 C28.9643432,50.9367512 28.9495103,51.4405122 28.9495103,51.9483414 C28.9495103,52.9366045 29.0714365,53.8769583 29.3151329,54.7884887 C28.5739645,54.6210401 27.7914131,54.5450475 26.9995017,54.5450475 C26.2076336,54.5450475 25.4250822,54.6210012 24.6838704,54.7884887 C24.9275668,53.8769583 25.049493,52.9366045 25.049493,51.9483414 C25.049493,51.4405122 25.0346601,50.9367512 24.9682435,50.447099 L24.9682869,50.447099 Z M50.9681135,50.447099 C51.6298091,50.5629121 52.3044613,50.6499667 52.99935,50.6499667 C53.6942387,50.6499667 54.3688909,50.5628472 55.0305865,50.447099 C54.9641699,50.9367512 54.949337,51.4405122 54.949337,51.9483414 C54.949337,52.9366045 55.0712632,53.8769583 55.3149596,54.7884887 C54.5737912,54.6210401 53.7911964,54.5450475 52.9993283,54.5450475 C52.2074603,54.5450475 51.4249088,54.6210012 50.6836971,54.7884887 C50.9273935,53.8769583 51.0493197,52.9366045 51.0493197,51.9483414 C51.0493197,51.4405122 51.0344998,50.9367512 50.9680702,50.447099 L50.9681135,50.447099 Z M76.9679402,50.447099 C77.6296358,50.5629121 78.304288,50.6499667 78.9991767,50.6499667 C79.6940654,50.6499667 80.3687175,50.5628472 81.0304131,50.447099 C80.9639966,50.9367512 80.9491637,51.4405122 80.9491637,51.9483414 C80.9491637,52.9366045 81.0710899,53.8769583 81.3147862,54.7884887 C80.5736178,54.6210401 79.7910664,54.5450475 78.999155,54.5450475 C78.207287,54.5450475 77.4247355,54.6210012 76.6835238,54.7884887 C76.9272202,53.8769583 77.0491463,52.9366045 77.0491463,51.9483414 C77.0491463,51.4405122 77.0343264,50.9367512 76.9678969,50.447099 L76.9679402,50.447099 Z M102.967767,50.447099 C103.629462,50.5629121 104.304115,50.6499667 104.999003,50.6499667 C105.693892,50.6499667 106.368544,50.5628472 107.03024,50.447099 C106.963823,50.9367512 106.94899,51.4405122 106.94899,51.9483414 C106.94899,52.9366045 107.070917,53.8769583 107.314613,54.7884887 C106.573445,54.6210401 105.790893,54.5450475 104.998982,54.5450475 C104.207114,54.5450475 103.424562,54.6210012 102.68335,54.7884887 C102.927047,53.8769583 103.048973,52.9366045 103.048973,51.9483414 C103.048973,51.4405122 103.034153,50.9367512 102.967724,50.447099 L102.967767,50.447099 Z M128.967594,50.447099 C129.629289,50.5629121 130.303898,50.6499667 130.99883,50.6499667 C131.693719,50.6499667 132.368371,50.5628472 133.030066,50.447099 C132.96365,50.9367512 132.948817,51.4405122 132.948817,51.9483414 C132.948817,52.9366045 133.070743,53.8769583 133.31444,54.7884887 C132.573271,54.6210401 131.79072,54.5450475 130.998808,54.5450475 C130.20694,54.5450475 129.424389,54.6210012 128.683177,54.7884887 C128.926873,53.8769583 129.0488,52.9366045 129.0488,51.9483414 C129.0488,51.4405122 129.03398,50.9367512 128.96755,50.447099 L128.967594,50.447099 Z M154.96742,50.447099 C155.629116,50.5629121 156.303725,50.6499667 156.998657,50.6499667 C157.693545,50.6499667 158.368198,50.5628472 159.029893,50.447099 C158.963477,50.9367512 158.948644,51.4405122 158.948644,51.9483414 C158.948644,52.9366045 159.07057,53.8769583 159.314266,54.7884887 C158.573098,54.6210401 157.790546,54.5450475 156.998635,54.5450475 C156.206767,54.5450475 155.424216,54.6210012 154.683004,54.7884887 C154.9267,53.8769583 155.048626,52.9366045 155.048626,51.9483414 C155.048626,51.4405122 155.033806,50.9367512 154.967377,50.447099 L154.96742,50.447099 Z M180.967247,50.447099 C181.628942,50.5629121 182.303551,50.6499667 182.998483,50.6499667 C183.693372,50.6499667 184.368024,50.5628472 185.02972,50.447099 C184.963303,50.9367512 184.94847,51.4405122 184.94847,51.9483414 C184.94847,52.9366045 185.070397,53.8769583 185.314093,54.7884887 C184.572925,54.6210401 183.790373,54.5450475 182.998462,54.5450475 C182.206594,54.5450475 181.424042,54.6210012 180.68283,54.7884887 C180.926527,53.8769583 181.048453,52.9366045 181.048453,51.9483414 C181.048453,51.4405122 181.033633,50.9367512 180.967204,50.447099 L180.967247,50.447099 Z M206.967074,50.447099 C207.628769,50.5629121 208.303378,50.6499667 208.99831,50.6499667 C209.693199,50.6499667 210.367851,50.5628472 211.029546,50.447099 C210.96313,50.9367512 210.948297,51.4405122 210.948297,51.9483414 C210.948297,52.9366045 211.070223,53.8769583 211.31392,54.7884887 C210.572751,54.6210401 209.7902,54.5450475 208.998288,54.5450475 C208.20642,54.5450475 207.423869,54.6210012 206.682657,54.7884887 C206.926353,53.8769583 207.04828,52.9366045 207.04828,51.9483414 C207.04828,51.4405122 207.03346,50.9367512 206.96703,50.447099 L206.967074,50.447099 Z M232.9669,50.447099 C233.628596,50.5629121 234.303205,50.6499667 234.998137,50.6499667 C235.693025,50.6499667 236.367678,50.5628472 237.029373,50.447099 C236.962957,50.9367512 236.948124,51.4405122 236.948124,51.9483414 C236.948124,52.9366045 237.07005,53.8769583 237.313746,54.7884887 C236.572578,54.6210401 235.790026,54.5450475 234.998115,54.5450475 C234.206247,54.5450475 233.423696,54.6210012 232.682484,54.7884887 C232.92618,53.8769583 233.048106,52.9366045 233.048106,51.9483414 C233.048106,51.4405122 233.033286,50.9367512 232.966857,50.447099 L232.9669,50.447099 Z M11.1147126,62.5780445 C12.0358431,62.8263026 12.9993533,62.9837798 13.9990467,62.9837798 C14.99874,62.9837798 15.9622936,62.8263026 16.8833808,62.5780445 C16.7100486,63.3310892 16.599116,64.1274125 16.599116,64.9323913 C16.599116,66.2734169 16.8670486,67.5289676 17.3303611,68.7057516 C16.2927947,68.331748 15.1658322,68.1377221 13.9991333,68.1377221 C12.8324345,68.1377221 11.705472,68.331748 10.6679055,68.7057516 C11.1312225,67.5290109 11.3991507,66.2734169 11.3991507,64.9323913 C11.3991507,64.1281049 11.2880057,63.3309161 11.1147776,62.5791264 L11.1147126,62.5780445 Z M37.1145392,62.5780445 C38.0356698,62.8263026 38.99918,62.9837798 39.9988733,62.9837798 C40.9985667,62.9837798 41.9621203,62.8263026 42.8832074,62.5780445 C42.7099793,63.3298342 42.5988343,64.1270229 42.5988343,64.9313094 C42.5988343,66.272335 42.8667626,67.5278857 43.3300795,68.7046696 C42.292513,68.330666 41.1655506,68.1366401 39.9988517,68.1366401 C38.8321528,68.1366401 37.7051903,68.330666 36.6676239,68.7046696 C37.1309408,67.527929 37.398869,66.272335 37.398869,64.9313094 C37.398869,64.1270229 37.2877241,63.3298342 37.1144959,62.5780445 L37.1145392,62.5780445 Z M63.1143659,62.5780445 C64.0354964,62.8263026 64.9990067,62.9837798 65.9987,62.9837798 C66.9983933,62.9837798 67.9619469,62.8263026 68.8830341,62.5780445 C68.7098016,63.3298342 68.598661,64.1270229 68.598661,64.9313094 C68.598661,66.272335 68.8665892,67.5278857 69.3299061,68.7046696 C68.2923397,68.330666 67.1653772,68.1366401 65.9986783,68.1366401 C64.8319795,68.1366401 63.705017,68.330666 62.6674506,68.7046696 C63.1307675,67.527929 63.3986957,66.272335 63.3986957,64.9313094 C63.3986957,64.1270229 63.2875507,63.3298342 63.1143226,62.5780445 L63.1143659,62.5780445 Z M89.1141926,62.5780445 C90.0353231,62.8263026 90.9988333,62.9837798 91.9985267,62.9837798 C92.99822,62.9837798 93.9617736,62.8263026 94.8828608,62.5780445 C94.7096283,63.3298342 94.5984877,64.1270229 94.5984877,64.9313094 C94.5984877,66.272335 94.8664159,67.5278857 95.3297328,68.7046696 C94.2921664,68.330666 93.1652039,68.1366401 91.998505,68.1366401 C90.8318061,68.1366401 89.7048436,68.330666 88.6672772,68.7046696 C89.1305941,67.527929 89.3985223,66.272335 89.3985223,64.9313094 C89.3985223,64.1270229 89.2873774,63.3298342 89.1141492,62.5780445 L89.1141926,62.5780445 Z M115.114019,62.5780445 C116.03515,62.8263026 116.99866,62.9837798 117.998353,62.9837798 C118.998047,62.9837798 119.9616,62.8263026 120.882687,62.5780445 C120.713689,63.3310892 120.601023,64.1274125 120.601023,64.9323913 C120.601023,66.2734169 120.868951,67.5289676 121.332268,68.7057516 C120.294701,68.331748 119.167739,68.1377221 118.00104,68.1377221 C116.834341,68.1377221 115.707379,68.331748 114.669812,68.7057516 C115.133129,67.5290109 115.401057,66.2734169 115.401057,64.9323913 C115.401057,64.1281049 115.289912,63.3309161 115.116684,62.5791264 L115.114019,62.5780445 Z M141.113846,62.5780445 C142.034976,62.8263026 142.998487,62.9837798 143.99818,62.9837798 C144.997873,62.9837798 145.961427,62.8263026 146.882514,62.5780445 C146.713515,63.3310892 146.600849,64.1274125 146.600849,64.9323913 C146.600849,66.2734169 146.868778,67.5289676 147.332094,68.7057516 C146.294528,68.331748 145.167566,68.1377221 144.000867,68.1377221 C142.834168,68.1377221 141.707205,68.331748 140.669639,68.7057516 C141.132956,67.5290109 141.400884,66.2734169 141.400884,64.9323913 C141.400884,64.1281049 141.289735,63.3309161 141.116511,62.5791264 L141.113846,62.5780445 Z M167.113673,62.5780445 C168.034803,62.8263026 168.998313,62.9837798 169.998007,62.9837798 C170.9977,62.9837798 171.961254,62.8263026 172.882341,62.5780445 C172.713342,63.3310892 172.600676,64.1274125 172.600676,64.9323913 C172.600676,66.2734169 172.868604,67.5289676 173.331921,68.7057516 C172.294355,68.331748 171.167392,68.1377221 170.000693,68.1377221 C168.833994,68.1377221 167.707032,68.331748 166.669466,68.7057516 C167.132782,67.5290109 167.400711,66.2734169 167.400711,64.9323913 C167.400711,64.1281049 167.289561,63.3309161 167.116338,62.5791264 L167.113673,62.5780445 Z M193.113499,62.5780445 C194.03463,62.8263026 194.99814,62.9837798 195.997833,62.9837798 C196.997527,62.9837798 197.96108,62.8263026 198.882167,62.5780445 C198.713169,63.3310892 198.600503,64.1274125 198.600503,64.9323913 C198.600503,66.2734169 198.868431,67.5289676 199.331748,68.7057516 C198.294181,68.331748 197.167219,68.1377221 196.00052,68.1377221 C194.833821,68.1377221 193.706859,68.331748 192.669292,68.7057516 C193.132609,67.5290109 193.400537,66.2734169 193.400537,64.9323913 C193.400537,64.1281049 193.289388,63.3309161 193.116164,62.5791264 L193.113499,62.5780445 Z M219.113326,62.5780445 C220.034456,62.8263026 220.997967,62.9837798 221.99766,62.9837798 C222.997353,62.9837798 223.960907,62.8263026 224.881994,62.5780445 C224.712995,63.3310892 224.600329,64.1274125 224.600329,64.9323913 C224.600329,66.2734169 224.868258,67.5289676 225.331574,68.7057516 C224.294008,68.331748 223.167046,68.1377221 222.000347,68.1377221 C220.833648,68.1377221 219.706685,68.331748 218.669119,68.7057516 C219.132436,67.5290109 219.400364,66.2734169 219.400364,64.9323913 C219.400364,64.1281049 219.289215,63.3309161 219.115991,62.5791264 L219.113326,62.5780445 Z M-2.81686122,74.5488597 C-1.63521243,75.0146655 -0.345534363,75.3197352 1.00186332,75.3197352 C2.349261,75.3197352 3.63893907,75.0146612 4.82058786,74.5488597 C4.43634509,75.5969768 4.21123859,76.7354161 4.21123859,77.9164413 C4.21123859,79.8244577 4.76798155,81.5646403 5.71437524,83.0691718 C4.3397644,82.2406062 2.7245685,81.7708188 1.00190665,81.7708188 C-0.720755195,81.7708188 -2.33595109,82.2406062 -3.71056193,83.0691718 C-2.76416824,81.5645537 -2.20742528,79.8243711 -2.20742528,77.9164413 C-2.20742528,76.7354161 -2.43255345,75.5969336 -2.81677455,74.5488597 L-2.81686122,74.5488597 Z M23.1829654,74.5488597 C24.3646142,75.0146655 25.6542923,75.3197352 27.00169,75.3197352 C28.3490877,75.3197352 29.6387657,75.0146612 30.8204145,74.5488597 C30.4361718,75.5969768 30.2110653,76.7354161 30.2110653,77.9164413 C30.2110653,79.8244577 30.7678082,81.5646403 31.7142019,83.0691718 C30.3395911,82.2406062 28.7243952,81.7708188 27.0017333,81.7708188 C25.2790715,81.7708188 23.6638756,82.2406062 22.2892647,83.0691718 C23.2356584,81.5645537 23.7924014,79.8243711 23.7924014,77.9164413 C23.7924014,76.7354161 23.5672732,75.5969336 23.1830521,74.5488597 L23.1829654,74.5488597 Z M49.1827921,74.5488597 C50.3644409,75.0146655 51.654119,75.3197352 53.0015167,75.3197352 C54.3489143,75.3197352 55.6385924,75.0146612 56.8202412,74.5488597 C56.4359941,75.5969768 56.2108919,76.7354161 56.2108919,77.9164413 C56.2108919,79.8244577 56.7676349,81.5646403 57.7140286,83.0691718 C56.3394177,82.2406062 54.7241785,81.7708188 53.00156,81.7708188 C51.2788981,81.7708188 49.6637022,82.2406062 48.2890914,83.0691718 C49.2354851,81.5645537 49.7922281,79.8243711 49.7922281,77.9164413 C49.7922281,76.7354161 49.5670999,75.5969336 49.1828788,74.5488597 L49.1827921,74.5488597 Z M75.1826188,74.5488597 C76.3642676,75.0146655 77.6539456,75.3197352 79.0013433,75.3197352 C80.348741,75.3197352 81.6384191,75.0146612 82.8200679,74.5488597 C82.4358208,75.5969768 82.2107186,76.7354161 82.2107186,77.9164413 C82.2107186,79.8244577 82.7674616,81.5646403 83.7138552,83.0691718 C82.3392444,82.2406062 80.7240052,81.7708188 79.0013867,81.7708188 C77.2787248,81.7708188 75.6635289,82.2406062 74.2889181,83.0691718 C75.2353118,81.5645537 75.7920547,79.8243711 75.7920547,77.9164413 C75.7920547,76.7354161 75.5669309,75.5969336 75.1827054,74.5488597 L75.1826188,74.5488597 Z M101.182445,74.5488597 C102.364094,75.0146655 103.653772,75.3197352 105.00117,75.3197352 C106.348568,75.3197352 107.638246,75.0146612 108.819895,74.5488597 C108.435647,75.5969768 108.210545,76.7354161 108.210545,77.9164413 C108.210545,79.8244577 108.767288,81.5646403 109.713682,83.0691718 C108.339071,82.2406062 106.723832,81.7708188 105.001213,81.7708188 C103.278551,81.7708188 101.663356,82.2406062 100.288745,83.0691718 C101.235138,81.5645537 101.791881,79.8243711 101.791881,77.9164413 C101.791881,76.7354161 101.566758,75.5969336 101.182532,74.5488597 L101.182445,74.5488597 Z M127.182272,74.5488597 C128.363921,75.0146655 129.653599,75.3197352 131.000997,75.3197352 C132.348394,75.3197352 133.638072,75.0146612 134.819721,74.5488597 C134.435483,75.5969768 134.210372,76.7354161 134.210372,77.9164413 C134.210372,79.8244577 134.767115,81.5646403 135.713509,83.0691718 C134.338898,82.2406062 132.723702,81.7708188 131.00104,81.7708188 C129.278378,81.7708188 127.663182,82.2406062 126.288571,83.0691718 C127.234965,81.5645537 127.791708,79.8243711 127.791708,77.9164413 C127.791708,76.7354161 127.566576,75.5969336 127.182359,74.5488597 L127.182272,74.5488597 Z M153.182099,74.5488597 C154.363748,75.0146655 155.653426,75.3197352 157.000823,75.3197352 C158.348221,75.3197352 159.637899,75.0146612 160.819548,74.5488597 C160.435309,75.5969768 160.210199,76.7354161 160.210199,77.9164413 C160.210199,79.8244577 160.766942,81.5646403 161.713335,83.0691718 C160.338724,82.2406062 158.723529,81.7708188 157.000867,81.7708188 C155.278205,81.7708188 153.663009,82.2406062 152.288398,83.0691718 C153.234792,81.5645537 153.791535,79.8243711 153.791535,77.9164413 C153.791535,76.7354161 153.566402,75.5969336 153.182185,74.5488597 L153.182099,74.5488597 Z M179.181925,74.5488597 C180.363574,75.0146655 181.653252,75.3197352 183.00065,75.3197352 C184.348048,75.3197352 185.637726,75.0146612 186.819375,74.5488597 C186.435136,75.5969768 186.210025,76.7354161 186.210025,77.9164413 C186.210025,79.8244577 186.766768,81.5646403 187.713162,83.0691718 C186.338551,82.2406062 184.723355,81.7708188 183.000693,81.7708188 C181.278031,81.7708188 179.662836,82.2406062 178.288225,83.0691718 C179.234618,81.5645537 179.791361,79.8243711 179.791361,77.9164413 C179.791361,76.7354161 179.566229,75.5969336 179.182012,74.5488597 L179.181925,74.5488597 Z M205.181752,74.5488597 C206.363401,75.0146655 207.653079,75.3197352 209.000477,75.3197352 C210.347874,75.3197352 211.637552,75.0146612 212.819201,74.5488597 C212.434963,75.5969768 212.209852,76.7354161 212.209852,77.9164413 C212.209852,79.8244577 212.766595,81.5646403 213.712989,83.0691718 C212.338378,82.2406062 210.723182,81.7708188 209.00052,81.7708188 C207.277858,81.7708188 205.662662,82.2406062 204.288051,83.0691718 C205.234445,81.5645537 205.791188,79.8243711 205.791188,77.9164413 C205.791188,76.7354161 205.566056,75.5969336 205.181839,74.5488597 L205.181752,74.5488597 Z M231.181579,74.5488597 C232.363228,75.0146655 233.652906,75.3197352 235.000303,75.3197352 C236.347701,75.3197352 237.637379,75.0146612 238.819028,74.5488597 C238.434789,75.5969768 238.209679,76.7354161 238.209679,77.9164413 C238.209679,79.8244577 238.766422,81.5646403 239.712815,83.0691718 C238.338204,82.2406062 236.723009,81.7708188 235.000347,81.7708188 C233.277685,81.7708188 231.662489,82.2406062 230.287878,83.0691718 C231.234272,81.5645537 231.791015,79.8243711 231.791015,77.9164413 C231.791015,76.7354161 231.565882,75.5969336 231.181665,74.5488597 L231.181579,74.5488597 Z M-11.9991333,95.4047377 L-11.9991333,112.322278 C-7.32523117,112.322278 -3.54918967,108.550909 -3.54918967,103.882983 C-3.54918967,99.2150577 -7.32531783,95.4030066 -11.9991333,95.4030066 L-11.9991333,95.4047377 Z M14.0006933,95.4047377 C9.32679115,95.4047377 5.55074966,99.2167023 5.55074966,103.884714 C5.55074966,108.552726 9.32687782,112.324009 14.0006933,112.324009 C18.6745088,112.324009 22.450637,108.55264 22.450637,103.884714 C22.450637,99.2167889 18.6745088,95.4047377 14.0006933,95.4047377 Z M40.00052,95.4047377 C35.3266178,95.4047377 31.5505763,99.2167023 31.5505763,103.884714 C31.5505763,108.552726 35.3267045,112.324009 40.00052,112.324009 C44.6743355,112.324009 48.4504637,108.55264 48.4504637,103.884714 C48.4504637,99.2167889 44.6743355,95.4047377 40.00052,95.4047377 Z M66.0003467,95.4047377 C61.3264445,95.4047377 57.550403,99.2167023 57.550403,103.884714 C57.550403,108.552726 61.3265312,112.324009 66.0003467,112.324009 C70.6741622,112.324009 74.4502903,108.55264 74.4502903,103.884714 C74.4502903,99.2167889 70.6741622,95.4047377 66.0003467,95.4047377 Z M92.0001733,95.4047377 C87.3262712,95.4047377 83.5502297,99.2167023 83.5502297,103.884714 C83.5502297,108.552726 87.3263578,112.324009 92.0001733,112.324009 C96.6739888,112.324009 100.450117,108.55264 100.450117,103.884714 C100.450117,99.2167889 96.6739888,95.4047377 92.0001733,95.4047377 Z M118,95.4047377 C113.326098,95.4047377 109.550056,99.2167023 109.550056,103.884714 C109.550056,108.552726 113.326184,112.324009 118,112.324009 C122.673816,112.324009 126.449944,108.55264 126.449944,103.884714 C126.449944,99.2167889 122.673816,95.4047377 118,95.4047377 Z M143.999827,95.4047377 C139.325924,95.4047377 135.549883,99.2167023 135.549883,103.884714 C135.549883,108.552726 139.326011,112.324009 143.999827,112.324009 C148.673642,112.324009 152.44977,108.55264 152.44977,103.884714 C152.44977,99.2167889 148.673642,95.4047377 143.999827,95.4047377 Z M169.999653,95.4047377 C165.325751,95.4047377 161.54971,99.2167023 161.54971,103.884714 C161.54971,108.552726 165.325838,112.324009 169.999653,112.324009 C174.673469,112.324009 178.449597,108.55264 178.449597,103.884714 C178.449597,99.2167889 174.673469,95.4047377 169.999653,95.4047377 Z M195.99948,95.4047377 C191.325578,95.4047377 187.549536,99.2167023 187.549536,103.884714 C187.549536,108.552726 191.325664,112.324009 195.99948,112.324009 C200.673296,112.324009 204.449424,108.55264 204.449424,103.884714 C204.449424,99.2167889 200.673296,95.4047377 195.99948,95.4047377 Z M221.999307,95.4047377 C217.325404,95.4047377 213.549363,99.2167023 213.549363,103.884714 C213.549363,108.552726 217.325491,112.324009 221.999307,112.324009 C226.673122,112.324009 230.44925,108.55264 230.44925,103.884714 C230.44925,99.2167889 226.673122,95.4047377 221.999307,95.4047377 Z M247.999133,95.4047377 C243.325231,95.4047377 239.54919,99.2167023 239.54919,103.884714 C239.54919,108.552726 243.325318,112.324009 247.999133,112.324009 L247.999133,95.4047377 Z M1.00077999,108.994166 C-3.33512443,108.994166 -6.83990107,112.534948 -6.83990107,116.865648 C-6.83990107,121.196089 -3.33529776,124.696448 1.00077999,124.696448 C5.33685775,124.696448 8.84146106,121.196262 8.84146106,116.865648 C8.84146106,112.535035 5.33685775,108.994166 1.00077999,108.994166 Z M27.0006067,108.994166 C22.6647022,108.994166 19.1599256,112.534948 19.1599256,116.865648 C19.1599256,121.196089 22.6645289,124.696448 27.0006067,124.696448 C31.3366844,124.696448 34.8412877,121.196262 34.8412877,116.865648 C34.8412877,112.535035 31.3366411,108.994166 27.0006067,108.994166 Z M53.0004333,108.994166 C48.6645289,108.994166 45.1597523,112.534948 45.1597523,116.865648 C45.1597523,121.196089 48.6643556,124.696448 53.0004333,124.696448 C57.3365111,124.696448 60.8411144,121.196262 60.8411144,116.865648 C60.8411144,112.535035 57.3365111,108.994166 53.0004333,108.994166 Z M79.00026,108.994166 C74.6643556,108.994166 71.1595789,112.534948 71.1595789,116.865648 C71.1595789,121.196089 74.6641822,124.696448 79.00026,124.696448 C83.3363378,124.696448 86.8409411,121.196262 86.8409411,116.865648 C86.8409411,112.535035 83.3362944,108.994166 79.00026,108.994166 Z M105.000087,108.994166 C100.664182,108.994166 97.1594056,112.534948 97.1594056,116.865648 C97.1594056,121.196089 100.664052,124.696448 105.000087,124.696448 C109.336121,124.696448 112.840768,121.196262 112.840768,116.865648 C112.840768,112.535035 109.336164,108.994166 105.000087,108.994166 Z M130.999913,108.994166 C126.664009,108.994166 123.159232,112.534948 123.159232,116.865648 C123.159232,121.196089 126.663836,124.696448 130.999913,124.696448 C135.335991,124.696448 138.840594,121.196262 138.840594,116.865648 C138.840594,112.535035 135.335991,108.994166 130.999913,108.994166 Z M156.99974,108.994166 C152.663836,108.994166 149.159059,112.534948 149.159059,116.865648 C149.159059,121.196089 152.663662,124.696448 156.99974,124.696448 C161.335818,124.696448 164.840421,121.196262 164.840421,116.865648 C164.840421,112.535035 161.335818,108.994166 156.99974,108.994166 Z M182.999567,108.994166 C178.663662,108.994166 175.158886,112.534948 175.158886,116.865648 C175.158886,121.196089 178.663489,124.696448 182.999567,124.696448 C187.335644,124.696448 190.840248,121.196262 190.840248,116.865648 C190.840248,112.535035 187.335644,108.994166 182.999567,108.994166 Z M208.999393,108.994166 C204.663489,108.994166 201.158712,112.534948 201.158712,116.865648 C201.158712,121.196089 204.663316,124.696448 208.999393,124.696448 C213.335471,124.696448 216.840074,121.196262 216.840074,116.865648 C216.840074,112.535035 213.335471,108.994166 208.999393,108.994166 L208.999393,108.994166 Z M234.99922,108.994166 C230.663316,108.994166 227.158539,112.534948 227.158539,116.865648 C227.158539,121.196089 230.663142,124.696448 234.99922,124.696448 C239.335298,124.696448 242.839901,121.196262 242.839901,116.865648 C242.839901,112.535035 239.335298,108.994166 234.99922,108.994166 Z M-11.9991333,122.667555 L-11.9991333,137.030802 C-8.02917647,137.030802 -4.80844794,133.814219 -4.80844794,129.849179 C-4.80844794,125.884268 -8.02908981,122.667555 -11.9991333,122.667555 L-11.9991333,122.667555 Z M14.0006933,122.667555 C10.0307365,122.667555 6.81000793,125.884138 6.81000793,129.849179 C6.81000793,133.814089 10.0306498,137.030802 14.0006933,137.030802 C17.9706069,137.030802 21.1913787,133.814219 21.1913787,129.849179 C21.1913787,125.884268 17.9707369,122.667555 14.0006933,122.667555 L14.0006933,122.667555 Z M40.00052,122.667555 C36.0306065,122.667555 32.8098346,125.884138 32.8098346,129.849179 C32.8098346,133.814089 36.0304765,137.030802 40.00052,137.030802 C43.9704335,137.030802 47.1912054,133.814219 47.1912054,129.849179 C47.1912054,125.884268 43.9705635,122.667555 40.00052,122.667555 Z M66.0003467,122.667555 C62.0303898,122.667555 58.8096613,125.884138 58.8096613,129.849179 C58.8096613,133.814089 62.0303031,137.030802 66.0003467,137.030802 C69.9702602,137.030802 73.1910321,133.814219 73.1910321,129.849179 C73.1910321,125.884268 69.9703902,122.667555 66.0003467,122.667555 Z M92.0001733,122.667555 C88.0302598,122.667555 84.8094879,125.884138 84.8094879,129.849179 C84.8094879,133.814089 88.0301298,137.030802 92.0001733,137.030802 C95.9700869,137.030802 99.1908587,133.814219 99.1908587,129.849179 C99.1908587,125.884268 95.9702169,122.667555 92.0001733,122.667555 Z M118,122.667555 C114.030086,122.667555 110.809315,125.884138 110.809315,129.849179 C110.809315,133.814089 114.029956,137.030802 118,137.030802 C121.969914,137.030802 125.190685,133.814219 125.190685,129.849179 C125.190685,125.884268 121.970044,122.667555 118,122.667555 Z M143.999827,122.667555 C140.029913,122.667555 136.809141,125.884138 136.809141,129.849179 C136.809141,133.814089 140.029783,137.030802 143.999827,137.030802 C147.96974,137.030802 151.190512,133.814219 151.190512,129.849179 C151.190512,125.884268 147.96987,122.667555 143.999827,122.667555 Z M169.999653,122.667555 C166.02974,122.667555 162.808968,125.884138 162.808968,129.849179 C162.808968,133.814089 166.02961,137.030802 169.999653,137.030802 C173.969567,137.030802 177.190339,133.814219 177.190339,129.849179 C177.190339,125.884268 173.969697,122.667555 169.999653,122.667555 Z M195.99948,122.667555 C192.029566,122.667555 188.808795,125.884138 188.808795,129.849179 C188.808795,133.814089 192.029436,137.030802 195.99948,137.030802 C199.969394,137.030802 203.190165,133.814219 203.190165,129.849179 C203.190165,125.884268 199.969524,122.667555 195.99948,122.667555 Z M221.999307,122.667555 C218.029393,122.667555 214.808621,125.884138 214.808621,129.849179 C214.808621,133.814089 218.029263,137.030802 221.999307,137.030802 C225.96922,137.030802 229.189992,133.814219 229.189992,129.849179 C229.189992,125.884268 225.96935,122.667555 221.999307,122.667555 Z M247.999133,122.667555 C244.02922,122.667555 240.808448,125.884138 240.808448,129.849179 C240.808448,133.814089 244.02909,137.030802 247.999133,137.030802 L247.999133,122.667555 L247.999133,122.667555 Z M1.00077999,136.300262 C-2.60314265,136.300262 -5.53990973,139.233242 -5.53990973,142.83271 C-5.53990973,146.43209 -2.60322931,149.324475 1.00077999,149.324475 C4.60470264,149.324475 7.54146972,146.43209 7.54146972,142.83271 C7.54146972,139.233329 4.6047893,136.300262 1.00077999,136.300262 Z M27.0006067,136.300262 C23.396684,136.300262 20.4599169,139.233242 20.4599169,142.83271 C20.4599169,146.43209 23.3965974,149.324475 27.0006067,149.324475 C30.604486,149.324475 33.5412964,146.43209 33.5412964,142.83271 C33.5412964,139.233329 30.604616,136.300262 27.0006067,136.300262 Z M53.0004333,136.300262 C49.3965107,136.300262 46.4597436,139.233242 46.4597436,142.83271 C46.4597436,146.43209 49.396424,149.324475 53.0004333,149.324475 C56.604356,149.324475 59.5411231,146.43209 59.5411231,142.83271 C59.5411231,139.233329 56.6044426,136.300262 53.0004333,136.300262 Z M79.00026,136.300262 C75.3963374,136.300262 72.4595703,139.233242 72.4595703,142.83271 C72.4595703,146.43209 75.3962507,149.324475 79.00026,149.324475 C82.6041826,149.324475 85.5409497,146.43209 85.5409497,142.83271 C85.5409497,139.233329 82.6042693,136.300262 79.00026,136.300262 Z M105.000087,136.300262 C101.396164,136.300262 98.4593969,139.233242 98.4593969,142.83271 C98.4593969,146.43209 101.396077,149.324475 105.000087,149.324475 C108.604009,149.324475 111.540776,146.43209 111.540776,142.83271 C111.540776,139.233329 108.604096,136.300262 105.000087,136.300262 Z M130.999913,136.300262 C127.395991,136.300262 124.459224,139.233242 124.459224,142.83271 C124.459224,146.43209 127.395904,149.324475 130.999913,149.324475 C134.603836,149.324475 137.540603,146.43209 137.540603,142.83271 C137.540603,139.233329 134.603923,136.300262 130.999913,136.300262 Z M156.99974,136.300262 C153.395817,136.300262 150.45905,139.233242 150.45905,142.83271 C150.45905,146.43209 153.395731,149.324475 156.99974,149.324475 C160.603663,149.324475 163.54043,146.43209 163.54043,142.83271 C163.54043,139.233329 160.603749,136.300262 156.99974,136.300262 Z M182.999567,136.300262 C179.395644,136.300262 176.458877,139.233242 176.458877,142.83271 C176.458877,146.43209 179.395557,149.324475 182.999567,149.324475 C186.603489,149.324475 189.540256,146.43209 189.540256,142.83271 C189.540256,139.233329 186.603576,136.300262 182.999567,136.300262 Z M208.999393,136.300262 C205.395471,136.300262 202.458704,139.233242 202.458704,142.83271 C202.458704,146.43209 205.395384,149.324475 208.999393,149.324475 C212.603316,149.324475 215.540083,146.43209 215.540083,142.83271 C215.540083,139.233329 212.603403,136.300262 208.999393,136.300262 L208.999393,136.300262 Z M234.99922,136.300262 C231.395297,136.300262 228.45853,139.233242 228.45853,142.83271 C228.45853,146.43209 231.395211,149.324475 234.99922,149.324475 C238.603143,149.324475 241.53991,146.43209 241.53991,142.83271 C241.53991,139.233329 238.603229,136.300262 234.99922,136.300262 Z M-11.9991333,149.93297 L-11.9991333,161.658829 C-8.76124493,161.658829 -6.14917234,159.050048 -6.14917234,155.81624 C-6.14917234,152.582432 -8.76124493,149.93297 -11.9991333,149.93297 Z M14.0006933,149.93297 C10.7628049,149.93297 8.15073233,152.582346 8.15073233,155.81624 C8.15073233,159.050048 10.7628049,161.658829 14.0006933,161.658829 C17.2385817,161.658829 19.8506543,159.050048 19.8506543,155.81624 C19.8506543,152.582432 17.2385817,149.93297 14.0006933,149.93297 Z M40.00052,149.93297 C36.7626316,149.93297 34.150559,152.582346 34.150559,155.81624 C34.150559,159.050048 36.7626316,161.658829 40.00052,161.658829 C43.2384084,161.658829 45.850481,159.050048 45.850481,155.81624 C45.850481,152.582432 43.2384084,149.93297 40.00052,149.93297 Z M66.0003467,149.93297 C62.7624583,149.93297 60.1503857,152.582346 60.1503857,155.81624 C60.1503857,159.050048 62.7624583,161.658829 66.0003467,161.658829 C69.2382351,161.658829 71.8503077,159.050048 71.8503077,155.81624 C71.8503077,152.582432 69.2382351,149.93297 66.0003467,149.93297 Z M92.0001733,149.93297 C88.7622849,149.93297 86.1502123,152.582346 86.1502123,155.81624 C86.1502123,159.050048 88.7622849,161.658829 92.0001733,161.658829 C95.2380617,161.658829 97.8501343,159.050048 97.8501343,155.81624 C97.8501343,152.582432 95.2380617,149.93297 92.0001733,149.93297 Z M118,149.93297 C114.762112,149.93297 112.150039,152.582346 112.150039,155.81624 C112.150039,159.050048 114.762112,161.658829 118,161.658829 C121.237888,161.658829 123.849961,159.050048 123.849961,155.81624 C123.849961,152.582432 121.237888,149.93297 118,149.93297 Z M143.999827,149.93297 C140.761938,149.93297 138.149866,152.582346 138.149866,155.81624 C138.149866,159.050048 140.761938,161.658829 143.999827,161.658829 C147.237715,161.658829 149.849788,159.050048 149.849788,155.81624 C149.849788,152.582432 147.237715,149.93297 143.999827,149.93297 Z M169.999653,149.93297 C166.761765,149.93297 164.149692,152.582346 164.149692,155.81624 C164.149692,159.050048 166.761765,161.658829 169.999653,161.658829 C173.237542,161.658829 175.849614,159.050048 175.849614,155.81624 C175.849614,152.582432 173.237542,149.93297 169.999653,149.93297 Z M195.99948,149.93297 C192.761592,149.93297 190.149519,152.582346 190.149519,155.81624 C190.149519,159.050048 192.761592,161.658829 195.99948,161.658829 C199.237368,161.658829 201.849441,159.050048 201.849441,155.81624 C201.849441,152.582432 199.237368,149.93297 195.99948,149.93297 Z M221.999307,149.93297 C218.761418,149.93297 216.149346,152.582346 216.149346,155.81624 C216.149346,159.050048 218.761418,161.658829 221.999307,161.658829 C225.237195,161.658829 227.849268,159.050048 227.849268,155.81624 C227.849268,152.582432 225.237195,149.93297 221.999307,149.93297 Z M247.999133,149.93297 C244.761245,149.93297 242.149172,152.582346 242.149172,155.81624 C242.149172,159.050048 244.761245,161.658829 247.999133,161.658829 L247.999133,149.93297 Z M1.00077999,163.608955 C-1.87107419,163.608955 -4.19918534,165.934132 -4.19918534,168.802367 C-4.19918534,171.670602 -1.87107419,173.99578 1.00077999,173.99578 C3.87263418,173.99578 6.20074533,171.670602 6.20074533,168.802367 C6.20074533,165.934132 3.87263418,163.608955 1.00077999,163.608955 Z M27.0006067,163.608955 C24.1287091,163.608955 21.8006413,165.934132 21.8006413,168.802367 C21.8006413,171.670602 24.1287091,173.99578 27.0006067,173.99578 C29.8724609,173.99578 32.200572,171.670602 32.200572,168.802367 C32.200572,165.934132 29.8724609,163.608955 27.0006067,163.608955 Z M53.0004333,163.608955 C50.1285791,163.608955 47.800468,165.934132 47.800468,168.802367 C47.800468,171.670602 50.1285791,173.99578 53.0004333,173.99578 C55.8722875,173.99578 58.2003987,171.670602 58.2003987,168.802367 C58.2003987,165.934132 55.8722875,163.608955 53.0004333,163.608955 Z M79.00026,163.608955 C76.1284058,163.608955 73.8002947,165.934132 73.8002947,168.802367 C73.8002947,171.670602 76.1284058,173.99578 79.00026,173.99578 C81.8721142,173.99578 84.2002253,171.670602 84.2002253,168.802367 C84.2002253,165.934132 81.8721142,163.608955 79.00026,163.608955 Z M105.000087,163.608955 C102.128232,163.608955 99.8001213,165.934132 99.8001213,168.802367 C99.8001213,171.670602 102.128232,173.99578 105.000087,173.99578 C107.871941,173.99578 110.200052,171.670602 110.200052,168.802367 C110.200052,165.934132 107.871941,163.608955 105.000087,163.608955 Z M130.999913,163.608955 C128.128059,163.608955 125.799948,165.934132 125.799948,168.802367 C125.799948,171.670602 128.128059,173.99578 130.999913,173.99578 C133.871768,173.99578 136.199879,171.670602 136.199879,168.802367 C136.199879,165.934132 133.871768,163.608955 130.999913,163.608955 Z M156.99974,163.608955 C154.127886,163.608955 151.799775,165.934132 151.799775,168.802367 C151.799775,171.670602 154.127886,173.99578 156.99974,173.99578 C159.871594,173.99578 162.199705,171.670602 162.199705,168.802367 C162.199705,165.934132 159.871594,163.608955 156.99974,163.608955 Z M182.999567,163.608955 C180.127712,163.608955 177.799601,165.934132 177.799601,168.802367 C177.799601,171.670602 180.127712,173.99578 182.999567,173.99578 C185.871421,173.99578 188.199532,171.670602 188.199532,168.802367 C188.199532,165.934132 185.871421,163.608955 182.999567,163.608955 Z M208.999393,163.608955 C206.127539,163.608955 203.799428,165.934132 203.799428,168.802367 C203.799428,171.670602 206.127539,173.99578 208.999393,173.99578 C211.871248,173.99578 214.199359,171.670602 214.199359,168.802367 C214.199359,165.934132 211.871248,163.608955 208.999393,163.608955 Z M234.99922,163.608955 C232.127366,163.608955 229.799255,165.934132 229.799255,168.802367 C229.799255,171.670602 232.127366,173.99578 234.99922,173.99578 C237.871074,173.99578 240.199185,171.670602 240.199185,168.802367 C240.199185,165.934132 237.871074,163.608955 234.99922,163.608955 Z M-11.9991333,177.200981 L-11.9991333,186.370816 C-9.4651469,186.370816 -7.40843061,184.316821 -7.40843061,181.785898 C-7.40843061,179.255105 -9.4650169,177.200981 -11.9991333,177.200981 L-11.9991333,177.200981 Z M14.0006933,177.200981 C11.4667069,177.200981 9.4099906,179.254975 9.4099906,181.785898 C9.4099906,184.316691 11.4665769,186.370816 14.0006933,186.370816 C16.5346798,186.370816 18.5913961,184.316821 18.5913961,181.785898 C18.5913961,179.255105 16.5348098,177.200981 14.0006933,177.200981 L14.0006933,177.200981 Z M40.00052,177.200981 C37.4665336,177.200981 35.4098173,179.254975 35.4098173,181.785898 C35.4098173,184.316691 37.4664036,186.370816 40.00052,186.370816 C42.5345498,186.370816 44.5912227,184.316821 44.5912227,181.785898 C44.5912227,179.255105 42.5346364,177.200981 40.00052,177.200981 Z M66.0003467,177.200981 C63.4663169,177.200981 61.4096439,179.254975 61.4096439,181.785898 C61.4096439,184.316691 63.4662302,186.370816 66.0003467,186.370816 C68.5343331,186.370816 70.5910494,184.316821 70.5910494,181.785898 C70.5910494,179.255105 68.5344631,177.200981 66.0003467,177.200981 Z M92.0001733,177.200981 C89.4661869,177.200981 87.4094706,179.254975 87.4094706,181.785898 C87.4094706,184.316691 89.4660569,186.370816 92.0001733,186.370816 C94.5341598,186.370816 96.5908761,184.316821 96.5908761,181.785898 C96.5908761,179.255105 94.5342898,177.200981 92.0001733,177.200981 Z M118,177.200981 C115.466014,177.200981 113.409297,179.254975 113.409297,181.785898 C113.409297,184.316691 115.465884,186.370816 118,186.370816 C120.533986,186.370816 122.590703,184.316821 122.590703,181.785898 C122.590703,179.255105 120.534116,177.200981 118,177.200981 Z M143.999827,177.200981 C141.46584,177.200981 139.409124,179.254975 139.409124,181.785898 C139.409124,184.316691 141.46571,186.370816 143.999827,186.370816 C146.533813,186.370816 148.590529,184.316821 148.590529,181.785898 C148.590529,179.255105 146.533943,177.200981 143.999827,177.200981 Z M169.999653,177.200981 C167.465667,177.200981 165.408951,179.254975 165.408951,181.785898 C165.408951,184.316691 167.465537,186.370816 169.999653,186.370816 C172.53364,186.370816 174.590356,184.316821 174.590356,181.785898 C174.590356,179.255105 172.53377,177.200981 169.999653,177.200981 Z M195.99948,177.200981 C193.465494,177.200981 191.408777,179.254975 191.408777,181.785898 C191.408777,184.316691 193.465364,186.370816 195.99948,186.370816 C198.533466,186.370816 200.590183,184.316821 200.590183,181.785898 C200.590183,179.255105 198.533596,177.200981 195.99948,177.200981 Z M221.999307,177.200981 C219.46532,177.200981 217.408604,179.254975 217.408604,181.785898 C217.408604,184.316691 219.46519,186.370816 221.999307,186.370816 C224.533293,186.370816 226.590009,184.316821 226.590009,181.785898 C226.590009,179.255105 224.533423,177.200981 221.999307,177.200981 Z M247.999133,177.200981 C245.465147,177.200981 243.408431,179.254975 243.408431,181.785898 C243.408431,184.316691 245.465017,186.370816 247.999133,186.370816 L247.999133,177.200981 L247.999133,177.200981 Z M1.00077999,190.833688 C-1.16721555,190.833688 -2.9398404,192.604079 -2.9398404,194.769342 C-2.9398404,196.934562 -1.16721555,198.664401 1.00077999,198.664401 C3.16877554,198.664401 4.94140039,196.934562 4.94140039,194.769342 C4.94140039,192.604122 3.16877554,190.833688 1.00077999,190.833688 Z M27.0006067,190.833688 C24.8326111,190.833688 23.0599863,192.604079 23.0599863,194.769342 C23.0599863,196.934562 24.8326111,198.664401 27.0006067,198.664401 C29.1685589,198.664401 30.9412271,196.934562 30.9412271,194.769342 C30.9412271,192.604122 29.1686022,190.833688 27.0006067,190.833688 Z M53.0004333,190.833688 C50.8324378,190.833688 49.0598129,192.604079 49.0598129,194.769342 C49.0598129,196.934562 50.8324378,198.664401 53.0004333,198.664401 C55.1683855,198.664401 56.9410537,196.934562 56.9410537,194.769342 C56.9410537,192.604122 55.1684289,190.833688 53.0004333,190.833688 Z M79.00026,190.833688 C76.8322645,190.833688 75.0596396,192.604079 75.0596396,194.769342 C75.0596396,196.934562 76.8322645,198.664401 79.00026,198.664401 C81.1682555,198.664401 82.9408804,196.934562 82.9408804,194.769342 C82.9408804,192.604122 81.1682555,190.833688 79.00026,190.833688 Z M105.000087,190.833688 C102.832091,190.833688 101.059466,192.604079 101.059466,194.769342 C101.059466,196.934562 102.832091,198.664401 105.000087,198.664401 C107.168082,198.664401 108.940707,196.934562 108.940707,194.769342 C108.940707,192.604122 107.168082,190.833688 105.000087,190.833688 Z M130.999913,190.833688 C128.831961,190.833688 127.059293,192.604079 127.059293,194.769342 C127.059293,196.934562 128.831918,198.664401 130.999913,198.664401 C133.167866,198.664401 134.940534,196.934562 134.940534,194.769342 C134.940534,192.604122 133.167909,190.833688 130.999913,190.833688 Z M156.99974,190.833688 C154.831788,190.833688 153.05912,192.604079 153.05912,194.769342 C153.05912,196.934562 154.831744,198.664401 156.99974,198.664401 C159.167692,198.664401 160.94036,196.934562 160.94036,194.769342 C160.94036,192.604122 159.167736,190.833688 156.99974,190.833688 Z M182.999567,190.833688 C180.831614,190.833688 179.058946,192.604079 179.058946,194.769342 C179.058946,196.934562 180.831571,198.664401 182.999567,198.664401 C185.167519,198.664401 186.940187,196.934562 186.940187,194.769342 C186.940187,192.604122 185.167562,190.833688 182.999567,190.833688 Z M208.999393,190.833688 C206.831441,190.833688 205.058773,192.604079 205.058773,194.769342 C205.058773,196.934562 206.831398,198.664401 208.999393,198.664401 C211.167346,198.664401 212.940014,196.934562 212.940014,194.769342 C212.940014,192.604122 211.167389,190.833688 208.999393,190.833688 Z M234.99922,190.833688 C232.831268,190.833688 231.0586,192.604079 231.0586,194.769342 C231.0586,196.934562 232.831224,198.664401 234.99922,198.664401 C237.167172,198.664401 238.93984,196.934562 238.93984,194.769342 C238.93984,192.604122 237.167216,190.833688 234.99922,190.833688 Z M-11.9991333,204.466395 L-11.9991333,210.998842 C-10.197172,210.998842 -8.74915501,209.552607 -8.74915501,207.752959 C-8.74915501,205.953312 -10.197172,204.466481 -11.9991333,204.466481 L-11.9991333,204.466395 Z M14.0006933,204.466395 C12.198732,204.466395 10.750715,205.953182 10.750715,207.752873 C10.750715,209.55252 12.198732,210.998755 14.0006933,210.998755 C15.8026546,210.998755 17.2506717,209.55252 17.2506717,207.752873 C17.2506717,205.953226 15.8026546,204.466395 14.0006933,204.466395 Z M40.00052,204.466395 C38.1985587,204.466395 36.7505417,205.953182 36.7505417,207.752873 C36.7505417,209.55252 38.1985587,210.998755 40.00052,210.998755 C41.8024813,210.998755 43.2504983,209.55252 43.2504983,207.752873 C43.2504983,205.953226 41.8024813,204.466395 40.00052,204.466395 Z M66.0003467,204.466395 C64.1983853,204.466395 62.7503683,205.953182 62.7503683,207.752873 C62.7503683,209.55252 64.1983853,210.998755 66.0003467,210.998755 C67.802308,210.998755 69.250325,209.55252 69.250325,207.752873 C69.250325,205.953226 67.802308,204.466395 66.0003467,204.466395 Z M92.0001733,204.466395 C90.198212,204.466395 88.750195,205.953182 88.750195,207.752873 C88.750195,209.55252 90.198212,210.998755 92.0001733,210.998755 C93.8021347,210.998755 95.2501517,209.55252 95.2501517,207.752873 C95.2501517,205.953226 93.8021347,204.466395 92.0001733,204.466395 Z M118,204.466395 C116.198039,204.466395 114.750022,205.953182 114.750022,207.752873 C114.750022,209.55252 116.198039,210.998755 118,210.998755 C119.801961,210.998755 121.249978,209.55252 121.249978,207.752873 C121.249978,205.953226 119.801961,204.466395 118,204.466395 Z M143.999827,204.466395 C142.197865,204.466395 140.749848,205.953182 140.749848,207.752873 C140.749848,209.55252 142.197865,210.998755 143.999827,210.998755 C145.801788,210.998755 147.249805,209.55252 147.249805,207.752873 C147.249805,205.953226 145.801788,204.466395 143.999827,204.466395 Z M169.999653,204.466395 C168.197692,204.466395 166.749675,205.953182 166.749675,207.752873 C166.749675,209.55252 168.197692,210.998755 169.999653,210.998755 C171.801615,210.998755 173.249632,209.55252 173.249632,207.752873 C173.249632,205.953226 171.801615,204.466395 169.999653,204.466395 Z M195.99948,204.466395 C194.197519,204.466395 192.749502,205.953182 192.749502,207.752873 C192.749502,209.55252 194.197519,210.998755 195.99948,210.998755 C197.801441,210.998755 199.249458,209.55252 199.249458,207.752873 C199.249458,205.953226 197.801441,204.466395 195.99948,204.466395 Z M221.999307,204.466395 C220.197345,204.466395 218.749328,205.953182 218.749328,207.752873 C218.749328,209.55252 220.197345,210.998755 221.999307,210.998755 C223.801268,210.998755 225.249285,209.55252 225.249285,207.752873 C225.249285,205.953226 223.801268,204.466395 221.999307,204.466395 Z M247.999133,204.466395 C246.197172,204.466395 244.749155,205.953182 244.749155,207.752873 C244.749155,209.55252 246.197172,210.998755 247.999133,210.998755 L247.999133,204.466308 L247.999133,204.466395 Z M1.00077999,218.138053 C-0.435147099,218.138053 -1.59920267,219.300598 -1.59920267,220.734759 C-1.59920267,222.16892 -0.435147099,223.331465 1.00077999,223.331465 C2.43670709,223.331465 3.60076266,222.16892 3.60076266,220.734759 C3.60076266,219.300598 2.43670709,218.138053 1.00077999,218.138053 Z M27.0006067,218.138053 C25.5646796,218.138053 24.400624,219.300598 24.400624,220.734759 C24.400624,222.16892 25.5646796,223.331465 27.0006067,223.331465 C28.4365338,223.331465 29.6005893,222.16892 29.6005893,220.734759 C29.6005893,219.300598 28.4365338,218.138053 27.0006067,218.138053 Z M53.0004333,218.138053 C51.5645062,218.138053 50.4004507,219.300598 50.4004507,220.734759 C50.4004507,222.16892 51.5645062,223.331465 53.0004333,223.331465 C54.4363604,223.331465 55.600416,222.16892 55.600416,220.734759 C55.600416,219.300598 54.4363604,218.138053 53.0004333,218.138053 Z M79.00026,218.138053 C77.5643329,218.138053 76.4002773,219.300598 76.4002773,220.734759 C76.4002773,222.16892 77.5643329,223.331465 79.00026,223.331465 C80.4361871,223.331465 81.6002427,222.16892 81.6002427,220.734759 C81.6002427,219.300598 80.4361871,218.138053 79.00026,218.138053 Z M105.000087,218.138053 C103.56416,218.138053 102.400104,219.300598 102.400104,220.734759 C102.400104,222.16892 103.56416,223.331465 105.000087,223.331465 C106.436014,223.331465 107.600069,222.16892 107.600069,220.734759 C107.600069,219.300598 106.436014,218.138053 105.000087,218.138053 Z M130.999913,218.138053 C129.563986,218.138053 128.399931,219.300598 128.399931,220.734759 C128.399931,222.16892 129.563986,223.331465 130.999913,223.331465 C132.43584,223.331465 133.599896,222.16892 133.599896,220.734759 C133.599896,219.300598 132.43584,218.138053 130.999913,218.138053 Z M156.99974,218.138053 C155.563813,218.138053 154.399757,219.300598 154.399757,220.734759 C154.399757,222.16892 155.563813,223.331465 156.99974,223.331465 C158.435667,223.331465 159.599723,222.16892 159.599723,220.734759 C159.599723,219.300598 158.435667,218.138053 156.99974,218.138053 Z M182.999567,218.138053 C181.56364,218.138053 180.399584,219.300598 180.399584,220.734759 C180.399584,222.16892 181.56364,223.331465 182.999567,223.331465 C184.435494,223.331465 185.599549,222.16892 185.599549,220.734759 C185.599549,219.300598 184.435494,218.138053 182.999567,218.138053 Z M208.999393,218.138053 C207.563466,218.138053 206.399411,219.300598 206.399411,220.734759 C206.399411,222.16892 207.563466,223.331465 208.999393,223.331465 C210.43532,223.331465 211.599376,222.16892 211.599376,220.734759 C211.599376,219.300598 210.43532,218.138053 208.999393,218.138053 Z M234.99922,218.138053 C233.563293,218.138053 232.399237,219.300598 232.399237,220.734759 C232.399237,222.16892 233.563293,223.331465 234.99922,223.331465 C236.435147,223.331465 237.599203,222.16892 237.599203,220.734759 C237.599203,219.300598 236.435147,218.138053 234.99922,218.138053 Z M-11.9991333,231.730078 L-11.9991333,235.706155 C-10.901074,235.706155 -10.0084999,234.814835 -10.0084999,233.718116 C-10.0084999,232.621397 -10.9010307,231.730078 -11.9991333,231.730078 L-11.9991333,231.730078 Z M14.0006933,231.730078 C12.902634,231.730078 12.0100599,232.621397 12.0100599,233.718116 C12.0100599,234.814835 12.9025906,235.706155 14.0006933,235.706155 C15.0987527,235.706155 15.9913267,234.814835 15.9913267,233.718116 C15.9913267,232.621397 15.0987527,231.730078 14.0006933,231.730078 Z M40.00052,231.730078 C38.9024607,231.730078 38.0098866,232.621397 38.0098866,233.718116 C38.0098866,234.814835 38.9024607,235.706155 40.00052,235.706155 C41.0985793,235.706155 41.9911534,234.814835 41.9911534,233.718116 C41.9911534,232.621397 41.0986227,231.730078 40.00052,231.730078 Z M66.0003467,231.730078 C64.9022873,231.730078 64.0097133,232.621397 64.0097133,233.718116 C64.0097133,234.814835 64.902244,235.706155 66.0003467,235.706155 C67.098406,235.706155 67.9909801,234.814835 67.9909801,233.718116 C67.9909801,232.621397 67.098406,231.730078 66.0003467,231.730078 Z M92.0001733,231.730078 C90.902114,231.730078 90.0095399,232.621397 90.0095399,233.718116 C90.0095399,234.814835 90.9020707,235.706155 92.0001733,235.706155 C93.0982327,235.706155 93.9908067,234.814835 93.9908067,233.718116 C93.9908067,232.621397 93.098276,231.730078 92.0001733,231.730078 Z M118,231.730078 C116.901941,231.730078 116.009367,232.621397 116.009367,233.718116 C116.009367,234.814835 116.901897,235.706155 118,235.706155 C119.098059,235.706155 119.990633,234.814835 119.990633,233.718116 C119.990633,232.621397 119.098103,231.730078 118,231.730078 Z M143.999827,231.730078 C142.901767,231.730078 142.009193,232.621397 142.009193,233.718116 C142.009193,234.814835 142.901724,235.706155 143.999827,235.706155 C145.097886,235.706155 145.99046,234.814835 145.99046,233.718116 C145.99046,232.621397 145.097929,231.730078 143.999827,231.730078 Z M169.999653,231.730078 C168.901594,231.730078 168.00902,232.621397 168.00902,233.718116 C168.00902,234.814835 168.901551,235.706155 169.999653,235.706155 C171.097713,235.706155 171.990287,234.814835 171.990287,233.718116 C171.990287,232.621397 171.097756,231.730078 169.999653,231.730078 Z M195.99948,231.730078 C194.901421,231.730078 194.008847,232.621397 194.008847,233.718116 C194.008847,234.814835 194.901377,235.706155 195.99948,235.706155 C197.097539,235.706155 197.990113,234.814835 197.990113,233.718116 C197.990113,232.621397 197.097583,231.730078 195.99948,231.730078 Z M221.999307,231.730078 C220.901247,231.730078 220.008673,232.621397 220.008673,233.718116 C220.008673,234.814835 220.901204,235.706155 221.999307,235.706155 C223.097366,235.706155 223.98994,234.814835 223.98994,233.718116 C223.98994,232.621397 223.097409,231.730078 221.999307,231.730078 Z M247.999133,231.730078 C246.901074,231.730078 246.0085,232.621397 246.0085,233.718116 C246.0085,234.814835 246.901031,235.706155 247.999133,235.706155 L247.999133,231.730078 L247.999133,231.730078 Z M1.00077999,245.362785 C0.268754875,245.362785 -0.339857734,245.970544 -0.339857734,246.701647 C-0.339857734,247.43275 0.268711542,248 1.00077999,248 C1.73280511,248 2.34141772,247.43275 2.34141772,246.701647 C2.34141772,245.970544 1.73284845,245.362785 1.00077999,245.362785 Z M27.0006067,245.362785 C26.2685815,245.362785 25.6599689,245.970544 25.6599689,246.701647 C25.6599689,247.43275 26.2685382,248 27.0006067,248 C27.7326318,248 28.3412444,247.43275 28.3412444,246.701647 C28.3412444,245.970544 27.7326751,245.362785 27.0006067,245.362785 Z M53.0004333,245.362785 C52.2683649,245.362785 51.6597956,245.970544 51.6597956,246.701647 C51.6597956,247.43275 52.2683649,248 53.0004333,248 C53.7324585,248 54.3410711,247.43275 54.3410711,246.701647 C54.3410711,245.970544 53.7325018,245.362785 53.0004333,245.362785 Z M79.00026,245.362785 C78.2681915,245.362785 77.6596223,245.970544 77.6596223,246.701647 C77.6596223,247.43275 78.2681915,248 79.00026,248 C79.7322851,248 80.3408977,247.43275 80.3408977,246.701647 C80.3408977,245.970544 79.7323285,245.362785 79.00026,245.362785 Z M105.000087,245.362785 C104.268018,245.362785 103.659449,245.970544 103.659449,246.701647 C103.659449,247.43275 104.268018,248 105.000087,248 C105.732112,248 106.340724,247.43275 106.340724,246.701647 C106.340724,245.970544 105.732155,245.362785 105.000087,245.362785 Z M130.999913,245.362785 C130.267888,245.362785 129.659276,245.970544 129.659276,246.701647 C129.659276,247.43275 130.267845,248 130.999913,248 C131.731938,248 132.340551,247.43275 132.340551,246.701647 C132.340551,245.970544 131.731982,245.362785 130.999913,245.362785 Z M156.99974,245.362785 C156.267715,245.362785 155.659102,245.970544 155.659102,246.701647 C155.659102,247.43275 156.267672,248 156.99974,248 C157.731765,248 158.340378,247.43275 158.340378,246.701647 C158.340378,245.970544 157.731808,245.362785 156.99974,245.362785 Z M182.999567,245.362785 C182.267542,245.362785 181.658929,245.970544 181.658929,246.701647 C181.658929,247.43275 182.267498,248 182.999567,248 C183.731592,248 184.340204,247.43275 184.340204,246.701647 C184.340204,245.970544 183.731635,245.362785 182.999567,245.362785 Z M208.999393,245.362785 C208.267368,245.362785 207.658756,245.970544 207.658756,246.701647 C207.658756,247.43275 208.267325,248 208.999393,248 C209.731418,248 210.340031,247.43275 210.340031,246.701647 C210.340031,245.970544 209.731462,245.362785 208.999393,245.362785 Z M234.99922,245.362785 C234.267195,245.362785 233.658582,245.970544 233.658582,246.701647 C233.658582,247.43275 234.267152,248 234.99922,248 C235.731245,248 236.339858,247.43275 236.339858,246.701647 C236.339858,245.970544 235.731288,245.362785 234.99922,245.362785 Z" id="use19704" transform="translate(118.000000, 130.500000) rotate(90.000000) translate(-118.000000, -130.500000) "></path>
            <rect id="Rectangle" x="235" y="0" width="30" height="260"></rect>
        </g>
    </g>
</svg>