<?xml version="1.0" encoding="UTF-8"?>
<svg width="232px" height="19px" viewBox="0 0 232 19" version="1.1" xmlns="http://www.w3.org/2000/svg" xmlns:xlink="http://www.w3.org/1999/xlink">
    <title>Divergence_logo</title>
    <defs>
        <filter id="filter-1">
            <feColorMatrix in="SourceGraphic" type="matrix" values="0 0 0 0 0.143178 0 0 0 0 0.143178 0 0 0 0 0.143178 0 0 0 1.000000 0"></feColorMatrix>
        </filter>
    </defs>
    <g id="Design" stroke="none" stroke-width="1" fill="none" fill-rule="evenodd">
        <g id="Desktop-HD_wireframes" transform="translate(-440.000000, -5746.000000)">
            <g id="Divergence_logo" transform="translate(440.211833, 5746.248775)" filter="url(#filter-1)">
                <g>
                    <path d="M11.7012267,3.58834966 C11.161171,3.58834966 10.8011288,3.22952549 10.8011288,2.69125839 L10.8011288,1.79418254 L9.90104627,1.79418254 C9.36097518,1.79418254 9.00094835,1.43534141 9.00094835,0.897088187 L9.00094835,0 L-2.1911302e-14,0 L-2.1911302e-14,17.9418254 L9.00094835,17.9418254 L9.00094835,17.0446108 C9.00094835,16.5064979 9.36097518,16.1475504 9.90104627,16.1475504 L10.8011288,16.1475504 L10.8011288,15.2505053 C10.8011288,14.7122537 11.161171,14.3534141 11.7012267,14.3534141 L12.6013246,14.3534141 L12.6013246,3.58834966 L11.7012267,3.58834966 Z M10.8011288,4.48544094 L10.8011288,13.4563228 C10.8011288,13.9945745 10.4411019,14.3534141 9.90104627,14.3534141 L9.00094835,14.3534141 L9.00094835,15.2505053 C9.00094835,15.788757 8.6409061,16.1475504 8.10085043,16.1475504 L2.70027834,16.1475504 C2.16022267,16.1475504 1.80019584,15.788757 1.80019584,15.2505053 L1.80019584,2.69125839 C1.80019584,2.15300671 2.16022267,1.79418254 2.70027834,1.79418254 L8.10085043,1.79418254 C8.6409061,1.79418254 9.00094835,2.15300671 9.00094835,2.69125839 L9.00094835,3.58834966 L9.90104627,3.58834966 C10.4411019,3.58834966 10.8011288,3.94718926 10.8011288,4.48544094 Z" id="Shape" fill="#FFFFFF" fill-rule="nonzero"></path>
                    <polygon id="Path" fill="#FFFFFF" fill-rule="nonzero" points="15.3376056 0 15.3376056 17.9418254 17.1377398 17.9418254 17.1377398 0"></polygon>
                    <path d="M30.6752113,0 L30.6752113,2.69125839 C30.6752113,3.22952549 30.3151844,3.58834966 29.7750671,3.58834966 L28.8750771,3.58834966 L28.8750771,8.0737906 C28.8750771,8.61204228 28.5150503,8.97088187 27.9749329,8.97088187 L27.0747887,8.97088187 L27.0747887,13.4563228 C27.0747887,13.9945745 26.7147619,14.3534141 26.1747988,14.3534141 C25.6346814,14.3534141 25.2746546,13.9945745 25.2746546,13.4563228 L25.2746546,8.97088187 L24.3745104,8.97088187 C23.8345473,8.97088187 23.4745204,8.61204228 23.4745204,8.0737906 L23.4745204,3.58834966 L22.5743762,3.58834966 C22.0342589,3.58834966 21.6742321,3.22952549 21.6742321,2.69125839 L21.6742321,0 L19.8740979,0 L19.8740979,3.58834966 L20.7742421,3.58834966 C21.3142052,3.58834966 21.6742321,3.94718926 21.6742321,4.48544094 L21.6742321,8.97088187 L22.5743762,8.97088187 C23.1144936,8.97088187 23.4745204,9.32972146 23.4745204,9.86797314 L23.4745204,14.3534141 L24.3745104,14.3534141 C24.9146277,14.3534141 25.2746546,14.7122537 25.2746546,15.2505053 L25.2746546,17.9418254 L27.0747887,17.9418254 L27.0747887,15.2505053 C27.0747887,14.7122537 27.4348156,14.3534141 27.9749329,14.3534141 L28.8750771,14.3534141 L28.8750771,9.86797314 C28.8750771,9.32972146 29.2351039,8.97088187 29.7750671,8.97088187 L30.6752113,8.97088187 L30.6752113,4.48544094 C30.6752113,3.94718926 31.0352381,3.58834966 31.5753554,3.58834966 L32.4753454,3.58834966 L32.4753454,0 L30.6752113,0 Z" id="Path" fill="#FFFFFF" fill-rule="nonzero"></path>
                    <path d="M37.0118377,6.27962348 L37.0118377,2.69125839 C37.0118377,2.15300671 37.3718645,1.79418254 37.9119819,1.79418254 L46.0128169,1.79418254 L46.0128169,0 L35.2117035,0 L35.2117035,17.9418254 L46.0128169,17.9418254 L46.0128169,16.1475504 L37.9119819,16.1475504 C37.3718645,16.1475504 37.0118377,15.788757 37.0118377,15.2505053 L37.0118377,9.86797314 C37.0118377,9.32972146 37.3718645,8.97088187 37.9119819,8.97088187 L44.2126827,8.97088187 L44.2126827,7.17671475 L37.9119819,7.17671475 C37.3718645,7.17671475 37.0118377,6.81787516 37.0118377,6.27962348 Z" id="Path" fill="#FFFFFF" fill-rule="nonzero"></path>
                    <path d="M58.6572368,1.79418254 C58.1171194,1.79418254 57.7570926,1.43534141 57.7570926,0.897088187 L57.7570926,0 L48.7561134,0 L48.7561134,17.9418254 L50.5564018,17.9418254 L50.5564018,11.6621557 C50.5564018,11.1238886 50.9164286,10.7650644 51.4563918,10.7650644 L53.2566801,10.7650644 C53.7966433,10.7650644 54.1566701,11.1238886 54.1566701,11.6621557 L54.1566701,12.5592315 L55.0568143,12.5592315 C55.5969316,12.5592315 55.9569584,12.9180711 55.9569584,13.4563228 L55.9569584,16.1475504 L56.8569484,16.1475504 C57.3970658,16.1475504 57.7570926,16.5064979 57.7570926,17.0446108 L57.7570926,17.9418254 L59.5572268,17.9418254 L59.5572268,16.1475504 L58.6572368,16.1475504 C58.1171194,16.1475504 57.7570926,15.788757 57.7570926,15.2505053 L57.7570926,12.5592315 L56.8569484,12.5592315 C56.3169853,12.5592315 55.9569584,12.2004074 55.9569584,11.6621557 C55.9569584,11.1238886 56.3169853,10.7650644 56.8569484,10.7650644 L57.7570926,10.7650644 L57.7570926,9.86797314 C57.7570926,9.32972146 58.1171194,8.97088187 58.6572368,8.97088187 L59.5572268,8.97088187 L59.5572268,1.79418254 L58.6572368,1.79418254 Z M57.7570926,2.69125839 L57.7570926,8.0737906 C57.7570926,8.61204228 57.3970658,8.97088187 56.8569484,8.97088187 L51.4563918,8.97088187 C50.9164286,8.97088187 50.5564018,8.61204228 50.5564018,8.0737906 L50.5564018,2.69125839 C50.5564018,2.15300671 50.9164286,1.79418254 51.4563918,1.79418254 L56.8569484,1.79418254 C57.3970658,1.79418254 57.7570926,2.15300671 57.7570926,2.69125839 Z" id="Shape" fill="#FFFFFF" fill-rule="nonzero"></path>
                    <path d="M76.7020592,5.38253221 L76.7020592,3.58834966 L75.8020692,3.58834966 C75.2619518,3.58834966 74.901925,3.22952549 74.901925,2.69125839 L74.901925,1.79418254 L74.0017808,1.79418254 C73.4618177,1.79418254 73.1017908,1.43534141 73.1017908,0.897088187 L73.1017908,0 L65.9009458,0 L65.9009458,0.897088187 C65.9009458,1.43534141 65.540919,1.79418254 65.0009558,1.79418254 L64.1008117,1.79418254 L64.1008117,2.69125839 C64.1008117,3.22952549 63.7407848,3.58834966 63.2006675,3.58834966 L62.3005233,3.58834966 L62.3005233,14.3534141 L63.2006675,14.3534141 C63.7407848,14.3534141 64.1008117,14.7122537 64.1008117,15.2505053 L64.1008117,16.1475504 L65.0009558,16.1475504 C65.540919,16.1475504 65.9009458,16.5064979 65.9009458,17.0446108 L65.9009458,17.9418254 L73.1017908,17.9418254 L73.1017908,17.0446108 C73.1017908,16.5064979 73.4618177,16.1475504 74.0017808,16.1475504 C74.5418982,16.1475504 74.901925,16.5064979 74.901925,17.0446108 L74.901925,17.9418254 L76.7020592,17.9418254 L76.7020592,8.97088187 L69.5013683,8.97088187 L69.5013683,10.7650644 L74.0017808,10.7650644 C74.5418982,10.7650644 74.901925,11.1238886 74.901925,11.6621557 L74.901925,13.4563228 C74.901925,13.9945745 74.5418982,14.3534141 74.0017808,14.3534141 L73.1017908,14.3534141 L73.1017908,15.2505053 C73.1017908,15.788757 72.741764,16.1475504 72.2016467,16.1475504 L66.80109,16.1475504 C66.2609726,16.1475504 65.9009458,15.788757 65.9009458,15.2505053 L65.9009458,14.3534141 L65.0009558,14.3534141 C64.4608385,14.3534141 64.1008117,13.9945745 64.1008117,13.4563228 L64.1008117,4.48544094 C64.1008117,3.94718926 64.4608385,3.58834966 65.0009558,3.58834966 L65.9009458,3.58834966 L65.9009458,2.69125839 C65.9009458,2.15300671 66.2609726,1.79418254 66.80109,1.79418254 L72.2016467,1.79418254 C72.741764,1.79418254 73.1017908,2.15300671 73.1017908,2.69125839 L73.1017908,3.58834966 L74.0017808,3.58834966 C74.5418982,3.58834966 74.901925,3.94718926 74.901925,4.48544094 L74.901925,5.38253221 L76.7020592,5.38253221 Z" id="Path" fill="#FFFFFF" fill-rule="nonzero"></path>
                    <path d="M81.231613,6.27962348 L81.231613,2.69125839 C81.231613,2.15300671 81.5916399,1.79418254 82.131603,1.79418254 L90.232438,1.79418254 L90.232438,0 L79.4313247,0 L79.4313247,17.9418254 L90.232438,17.9418254 L90.232438,16.1475504 L82.131603,16.1475504 C81.5916399,16.1475504 81.231613,15.788757 81.231613,15.2505053 L81.231613,9.86797314 C81.231613,9.32972146 81.5916399,8.97088187 82.131603,8.97088187 L88.4323039,8.97088187 L88.4323039,7.17671475 L82.131603,7.17671475 C81.5916399,7.17671475 81.231613,6.81787516 81.231613,6.27962348 Z" id="Path" fill="#FFFFFF" fill-rule="nonzero"></path>
                    <path d="M103.777002,0 L103.777002,11.6621557 C103.777002,12.2004074 103.416975,12.5592315 102.876858,12.5592315 C102.336741,12.5592315 101.976714,12.2004074 101.976714,11.6621557 L101.976714,10.7650644 L101.076724,10.7650644 C100.536606,10.7650644 100.17658,10.4062248 100.17658,9.86797314 L100.17658,7.17671475 L99.2764354,7.17671475 C98.7364723,7.17671475 98.3764454,6.81787516 98.3764454,6.27962348 L98.3764454,5.38253221 L97.4763012,5.38253221 C96.9361839,5.38253221 96.5761571,5.02369261 96.5761571,4.48544094 L96.5761571,1.79418254 L95.6761671,1.79418254 C95.1360497,1.79418254 94.7760229,1.43534141 94.7760229,0.897088187 L94.7760229,0 L92.9758887,0 L92.9758887,17.9418254 L94.7760229,17.9418254 L94.7760229,6.27962348 C94.7760229,5.7413718 95.1360497,5.38253221 95.6761671,5.38253221 C96.2161302,5.38253221 96.5761571,5.7413718 96.5761571,6.27962348 L96.5761571,7.17671475 L97.4763012,7.17671475 C98.0164186,7.17671475 98.3764454,7.53553892 98.3764454,8.0737906 L98.3764454,10.7650644 L99.2764354,10.7650644 C99.8165528,10.7650644 100.17658,11.1238886 100.17658,11.6621557 L100.17658,12.5592315 L101.076724,12.5592315 C101.616687,12.5592315 101.976714,12.9180711 101.976714,13.4563228 L101.976714,16.1475504 L102.876858,16.1475504 C103.416975,16.1475504 103.777002,16.5064979 103.777002,17.0446108 L103.777002,17.9418254 L105.577136,17.9418254 L105.577136,0 L103.777002,0 Z" id="Path" fill="#FFFFFF" fill-rule="nonzero"></path>
                    <path d="M122.714876,5.38253221 L122.714876,3.58834966 L121.814886,3.58834966 C121.274769,3.58834966 120.914742,3.22952549 120.914742,2.69125839 L120.914742,1.79418254 L120.014598,1.79418254 C119.474635,1.79418254 119.114608,1.43534141 119.114608,0.897088187 L119.114608,0 L111.913763,0 L111.913763,0.897088187 C111.913763,1.43534141 111.553736,1.79418254 111.013773,1.79418254 L110.113629,1.79418254 L110.113629,2.69125839 C110.113629,3.22952549 109.753602,3.58834966 109.213484,3.58834966 L108.313494,3.58834966 L108.313494,14.3534141 L109.213484,14.3534141 C109.753602,14.3534141 110.113629,14.7122537 110.113629,15.2505053 L110.113629,16.1475504 L111.013773,16.1475504 C111.553736,16.1475504 111.913763,16.5064979 111.913763,17.0446108 L111.913763,17.9418254 L119.114608,17.9418254 L119.114608,17.0446108 C119.114608,16.5064979 119.474635,16.1475504 120.014598,16.1475504 L120.914742,16.1475504 L120.914742,15.2505053 C120.914742,14.7122537 121.274769,14.3534141 121.814886,14.3534141 L122.714876,14.3534141 L122.714876,12.5592315 L120.914742,12.5592315 L120.914742,13.4563228 C120.914742,13.9945745 120.554715,14.3534141 120.014598,14.3534141 L119.114608,14.3534141 L119.114608,15.2505053 C119.114608,15.788757 118.754581,16.1475504 118.214464,16.1475504 L112.813907,16.1475504 C112.27379,16.1475504 111.913763,15.788757 111.913763,15.2505053 L111.913763,14.3534141 L111.013773,14.3534141 C110.473655,14.3534141 110.113629,13.9945745 110.113629,13.4563228 L110.113629,4.48544094 C110.113629,3.94718926 110.473655,3.58834966 111.013773,3.58834966 L111.913763,3.58834966 L111.913763,2.69125839 C111.913763,2.15300671 112.27379,1.79418254 112.813907,1.79418254 L118.214464,1.79418254 C118.754581,1.79418254 119.114608,2.15300671 119.114608,2.69125839 L119.114608,3.58834966 L120.014598,3.58834966 C120.554715,3.58834966 120.914742,3.94718926 120.914742,4.48544094 L120.914742,5.38253221 L122.714876,5.38253221 Z" id="Path" fill="#FFFFFF" fill-rule="nonzero"></path>
                    <path d="M127.24443,6.27962348 L127.24443,2.69125839 C127.24443,2.15300671 127.604457,1.79418254 128.14442,1.79418254 L136.245255,1.79418254 L136.245255,0 L125.444142,0 L125.444142,17.9418254 L136.245255,17.9418254 L136.245255,16.1475504 L128.14442,16.1475504 C127.604457,16.1475504 127.24443,15.788757 127.24443,15.2505053 L127.24443,9.86797314 C127.24443,9.32972146 127.604457,8.97088187 128.14442,8.97088187 L134.445121,8.97088187 L134.445121,7.17671475 L128.14442,7.17671475 C127.604457,7.17671475 127.24443,6.81787516 127.24443,6.27962348 Z" id="Path" fill="#FFFFFF" fill-rule="nonzero"></path>
                    <polygon id="Path" fill="#FFFFFF" fill-rule="nonzero" points="153.998972 0 147.808978 18.2418735 145.710646 18.2418735 139.048376 0 141.146708 0 146.733523 15.2710276 151.90064 0"></polygon>
                    <path d="M158.715555,16.5219166 C159.79949,16.5219166 160.638268,16.2613404 161.23343,15.7401881 C161.845553,15.2015355 162.229478,14.5500489 162.386749,13.7856202 L164.485235,13.7856202 C164.397349,14.5847872 164.092058,15.3492159 163.567822,16.0789371 C163.043586,16.8085504 162.352828,17.3992411 161.495548,17.8510092 C160.65677,18.2853542 159.728564,18.5024496 158.715555,18.5024496 C157.560694,18.5024496 156.519931,18.233239 155.593266,17.6946635 C154.685105,17.1560881 153.958883,16.3742054 153.416762,15.3492159 C152.892217,14.3241956 152.629945,13.1167566 152.629945,11.7268988 C152.629945,10.4934022 152.901006,9.37283217 153.442973,8.36518876 C153.985095,7.34016847 154.719026,6.54100142 155.64569,5.96768759 C156.572354,5.37699689 157.596157,5.08166696 158.715555,5.08166696 C160.445534,5.08166696 161.836301,5.64628463 162.884774,6.7755508 C163.951748,7.88742468 164.485235,9.66817752 164.485235,12.1177939 L154.728277,12.1177939 C154.797661,13.5771438 155.183129,14.6803524 155.881596,15.4273425 C156.598566,16.15711 157.543733,16.5219166 158.715555,16.5219166 Z M158.715555,7.16644589 C157.753427,7.16644589 156.93161,7.44441436 156.250103,8.00035129 C155.585557,8.55630365 155.130705,9.32071694 154.885548,10.293622 L162.386749,10.293622 C162.212518,9.28597859 161.836301,8.51286915 161.259642,7.97429368 C160.682982,7.4357182 159.834953,7.16644589 158.715555,7.16644589 Z" id="Shape" fill="#FFFFFF" fill-rule="nonzero"></path>
                    <path d="M177.396862,18.2418735 L175.298375,18.2418735 L175.272164,11.4663073 C175.272164,9.98958049 175.062469,8.90376423 174.641538,8.20882764 C174.22215,7.51390647 173.50518,7.16644589 172.490629,7.16644589 C171.267925,7.16644589 170.279586,7.57471786 169.527153,8.39124638 C168.793222,9.20779032 168.426257,10.4065332 168.426257,11.9875058 L168.426257,18.2418735 L166.327771,18.2418735 L166.327771,5.21195504 L168.426257,5.21195504 L168.426257,7.42703747 C168.91503,6.62787042 169.536404,6.03717971 170.287295,5.65498078 C171.039728,5.27276642 171.861545,5.08166696 172.754289,5.08166696 C174.450346,5.08166696 175.639129,5.62022701 176.320636,6.69736253 C177.020645,7.77449806 177.37065,9.36415144 177.37065,11.4663073 L177.396862,18.2418735 Z" id="Path" fill="#FFFFFF" fill-rule="nonzero"></path>
                    <path d="M181.78811,7.03614239 L181.78811,15.5055154 C181.78811,15.853053 181.840533,16.0789371 181.94538,16.1831676 C182.050228,16.2699749 182.259922,16.3134557 182.574464,16.3134557 L184.67295,16.3134557 L184.67295,18.2418735 L182.574464,18.2418735 C181.683262,18.2418735 181.035677,18.1723351 180.633248,18.0334125 C180.249323,17.8770668 179.996456,17.607702 179.873106,17.2254722 C179.751298,16.8432425 179.689623,16.2264941 179.689623,15.3752735 L179.689623,7.03614239 L177.853255,7.03614239 L177.853255,5.21195504 L179.689623,5.21195504 L179.689623,2.34538593 L181.78811,2.34538593 L181.78811,5.21195504 L184.67295,5.21195504 L184.67295,7.03614239 L181.78811,7.03614239 Z" id="Path" fill="#FFFFFF" fill-rule="nonzero"></path>
                    <path d="M197.829733,5.18589742 L197.829733,18.2418735 L195.731247,18.2418735 L195.731247,16.3916285 C194.90943,17.7814709 193.642012,18.476392 191.928994,18.476392 C190.197473,18.476392 188.903843,17.9031245 188.046563,16.7564351 C187.207785,15.5924769 186.786855,13.9941119 186.786855,11.9614482 L186.760643,5.18589742 L188.859129,5.18589742 L188.885341,11.9875058 C188.885341,13.412102 189.173671,14.5066144 189.751872,15.2710276 C190.328532,16.0180332 191.141098,16.3916285 192.191112,16.3916285 C194.551716,16.3916285 195.731247,14.7498445 195.731247,11.4663073 L195.731247,5.18589742 L197.829733,5.18589742 Z" id="Path" fill="#FFFFFF" fill-rule="nonzero"></path>
                    <path d="M202.039041,7.53128336 C203.018129,5.98506448 204.635551,5.21195504 206.891308,5.21195504 L206.891308,7.29673397 C205.369482,7.29673397 204.180699,7.68764448 203.323419,8.46943465 C202.467681,9.23384794 202.039041,10.4065332 202.039041,11.9875058 L202.039041,18.2418735 L199.940555,18.2418735 L199.940555,5.21195504 L202.039041,5.21195504 L202.039041,7.53128336 Z" id="Path" fill="#FFFFFF" fill-rule="nonzero"></path>
                    <path d="M213.768052,16.5219166 C214.851987,16.5219166 215.692307,16.2613404 216.285927,15.7401881 C216.89805,15.2015355 217.283517,14.5500489 217.440788,13.7856202 L219.539274,13.7856202 C219.451388,14.5847872 219.144555,15.3492159 218.620319,16.0789371 C218.096083,16.8085504 217.405325,17.3992411 216.548045,17.8510092 C215.709267,18.2853542 214.782603,18.5024496 213.768052,18.5024496 C212.614733,18.5024496 211.57397,18.233239 210.647305,17.6946635 C209.737602,17.1560881 209.01138,16.3742054 208.470184,15.3492159 C207.945948,14.3241956 207.68383,13.1167566 207.68383,11.7268988 C207.68383,10.4934022 207.953657,9.37283217 208.496396,8.36518876 C209.037592,7.34016847 209.773065,6.54100142 210.699729,5.96768759 C211.626393,5.37699689 212.648654,5.08166696 213.768052,5.08166696 C215.499573,5.08166696 216.888798,5.64628463 217.938812,6.7755508 C219.005787,7.88742468 219.539274,9.66817752 219.539274,12.1177939 L209.780774,12.1177939 C209.8517,13.5771438 210.235626,14.6803524 210.935635,15.4273425 C211.652605,16.15711 212.59623,16.5219166 213.768052,16.5219166 Z M213.768052,7.16644589 C212.805925,7.16644589 211.984107,7.44441436 211.3026,8.00035129 C210.638054,8.55630365 210.183202,9.32071694 209.938045,10.293622 L217.440788,10.293622 C217.265015,9.28597859 216.888798,8.51286915 216.312139,7.97429368 C215.735479,7.4357182 214.88745,7.16644589 213.768052,7.16644589 Z" id="Shape" fill="#FFFFFF" fill-rule="nonzero"></path>
                    <path d="M220.771229,14.0722848 C220.893037,15.6358034 221.443485,16.7650696 222.422573,17.4599908 C223.401661,18.154912 224.599694,18.5024496 226.016674,18.5024496 C227.5385,18.5024496 228.744243,18.2071814 229.635444,17.6164907 C230.545148,17.0258 231,16.061514 231,14.7237869 C231,13.6292745 230.649995,12.7519191 229.951528,12.0917363 C229.251519,11.414192 228.11516,10.9798624 226.54091,10.7887475 C224.180305,10.528156 223.000774,9.88535002 223.000774,8.86032973 C223.000774,8.07853956 223.296813,7.53996409 223.891976,7.24461874 C224.504098,6.9318965 225.211817,6.7755508 226.016674,6.7755508 C226.873954,6.7755508 227.555461,7.01008477 228.062736,7.47915271 C228.570012,7.94823606 228.892263,8.53892676 229.032573,9.25122482 L231,9.25122482 C230.878192,7.84399017 230.370917,6.7755508 229.478174,6.04587586 C228.603933,5.31620092 227.450613,4.95136345 226.016674,4.95136345 C224.723044,4.95136345 223.568183,5.24670881 222.553632,5.83739951 C221.540623,6.4280748 221.033347,7.43573362 221.033347,8.86032973 C221.033347,9.95484214 221.374101,10.7887475 222.055607,11.3620614 C222.755617,11.9353752 223.81334,12.3002127 225.230319,12.4565738 C226.628796,12.6476887 227.607884,12.9343379 228.167583,13.3165522 C228.744243,13.6813897 229.032573,14.1504576 229.032573,14.7237869 C229.032573,15.4708233 228.787415,15.9833411 228.298642,16.2613404 C227.808327,16.5393397 227.048185,16.6782623 226.016674,16.6782623 C224.144842,16.6782623 223.09637,15.8095723 222.869715,14.0722848 L220.771229,14.0722848 Z" id="Path" fill="#FFFFFF" fill-rule="nonzero"></path>
                </g>
            </g>
        </g>
    </g>
</svg>