<?xml version="1.0" encoding="UTF-8"?>
<svg width="181px" height="50px" viewBox="0 0 181 50" version="1.1" xmlns="http://www.w3.org/2000/svg" xmlns:xlink="http://www.w3.org/1999/xlink">
    <title>Launchub_logo</title>
    <defs>
        <filter id="filter-1">
            <feColorMatrix in="SourceGraphic" type="matrix" values="0 0 0 0 0.000000 0 0 0 0 0.000000 0 0 0 0 0.000000 0 0 0 1.000000 0"></feColorMatrix>
        </filter>
    </defs>
    <g id="Design" stroke="none" stroke-width="1" fill="none" fill-rule="evenodd">
        <g id="Desktop-HD_wireframes" transform="translate(-792.000000, -5947.000000)">
            <g id="Launchub_logo" transform="translate(792.000000, 5947.403061)" filter="url(#filter-1)">
                <g>
                    <g id="Group" transform="translate(14.988524, 0.328755)" fill-rule="nonzero">
                        <polygon id="Path" fill="#000000" points="9.44278231 0 0 23.9954286 4.61365306 23.9954286 11.8376463 4.27997279 19.0173129 23.9954286 23.6297347 23.9954286 14.1869524 0"></polygon>
                        <path d="M12.6006707,32.6083197 L12.6006707,48.6151224 L10.7914245,48.6151224 L10.7914245,32.6083197 L12.6006707,32.6083197 Z M16.219163,27.6831497 L16.219163,43.6899524 L14.4099168,43.6899524 L14.4099168,27.6831497 L16.219163,27.6831497 Z M8.98172606,27.6831497 L8.98172606,43.6899524 L7.17247998,43.6899524 L7.17247998,27.6831497 L8.98172606,27.6831497 Z" id="Shape" fill="#850079"></path>
                    </g>
                    <g id="Group" fill-rule="nonzero">
                        <path d="M101.008234,0 C105.655231,0 109.685267,2.45227476 111.860529,6.1103381 L112.047619,6.43620588 L108.613315,8.23526963 C107.181712,5.59708703 104.320322,3.87753752 101.008234,3.87753752 C96.1827629,3.87753752 92.3804496,7.55606749 92.3804496,12.3131473 C92.3804496,17.0706712 96.1827629,20.7483128 101.008234,20.7483128 C104.206112,20.7483128 106.983839,19.1457223 108.460158,16.6602292 L108.613315,16.3905807 L112.047619,18.1896445 C109.921795,22.0276471 105.791907,24.6258503 101.008234,24.6258503 C94.0569386,24.6258503 88.4145764,19.1096101 88.4145764,12.3131473 C88.4145764,5.51712866 94.0569386,0 101.008234,0 Z M43.9653558,0.32916202 L43.9653558,15.8344257 C43.9653558,18.7915535 46.3674147,20.9895206 49.6245284,20.9895206 C52.7858446,20.9895206 55.1801838,18.9189442 55.3182926,16.093342 L55.3245909,15.8344257 L55.3245909,0.32916202 L59.3140896,0.32916202 L59.3140896,16.5136278 C59.3140896,21.1494374 55.1614854,24.6258503 49.6245284,24.6258503 C44.2005705,24.6258503 40.1442759,21.2898839 39.9809719,16.7959845 L39.9758573,16.5136278 L39.9758573,0.32916202 L43.9653558,0.32916202 Z M67.4757287,0.329606233 L80.6663803,18.1252335 L80.6663803,0.329606233 L84.5082207,0.329606233 L84.5082207,24.3242295 L80.626399,24.3242295 L67.4757287,6.48773462 L67.4757287,24.3242295 L63.593907,24.3242295 L63.593907,0.329606233 L67.4757287,0.329606233 Z M4.03538623,0.329606233 L4.03538623,20.6847903 L12.7240516,20.6847903 L12.7240516,24.3242295 L0,24.3242295 L0,0.329606233 L4.03538623,0.329606233 Z" id="Shape" fill="#000000"></path>
                        <path d="M143.950782,0 L143.950782,15.715323 C143.950782,18.7125126 146.3468,20.940257 149.595722,20.940257 C152.751818,20.940257 155.141111,18.8379938 155.275066,15.9703066 L155.280995,15.715323 L155.280995,0 L159.260913,0 L159.260913,16.4037266 C159.260913,21.1023403 155.118752,24.6258503 149.595722,24.6258503 C144.183152,24.6258503 140.135507,21.2418713 139.975766,16.6842146 L139.970866,16.4037266 L139.970866,0 L143.950782,0 Z M173.253164,0.000450234422 C177.106642,0.000450234422 180.1974,2.59423266 180.1974,6.6071441 C180.1974,9.2013767 178.952939,11.0252637 176.986094,11.9977633 C179.354466,12.8896715 181,14.8351208 181,17.7940408 C181,21.7090763 178.096562,24.1966565 174.413628,24.3156729 L174.135979,24.3201433 L163.780127,24.3201433 L163.780127,0.000450234422 L173.253164,0.000450234422 Z M119.785767,0.000450234422 L119.785767,10.2954388 L131.629897,10.2954388 L131.629897,0.000450234422 L135.674167,0.000450234422 L135.674167,24.3201433 L131.629897,24.3201433 L131.629897,13.9841837 L119.785767,13.9841837 L119.785767,24.3201433 L115.741497,24.3201433 L115.741497,0.000450234422 L119.785767,0.000450234422 Z M173.574023,13.903142 L167.673938,13.903142 L167.673938,20.6313984 L173.574023,20.6313984 C175.500989,20.6313984 177.066307,19.2127197 177.066307,17.3077911 C177.066307,15.4734154 175.614791,14.0147883 173.786581,13.9092581 L173.574023,13.903142 Z M172.811757,3.68874492 L167.673938,3.68874492 L167.673938,10.4170013 L172.811757,10.4170013 C174.697935,10.4170013 176.263708,8.91728083 176.263708,7.01235226 C176.263708,5.13895656 174.81177,3.79160887 173.01995,3.69437515 L172.811757,3.68874492 Z" id="Shape" fill="#850079"></path>
                        <path d="M155.834441,31.8047376 C157.008642,31.8047376 157.99061,32.3650321 158.534289,33.0834744 L157.868034,33.6261468 C157.464119,33.04823 156.728209,32.6447276 155.852082,32.6447276 C154.800005,32.6447276 153.818489,33.2230962 153.818489,34.414174 C153.818489,37.1279879 159.059874,36.2879979 159.059874,39.7731205 C159.059874,41.6112482 157.552772,42.5926675 155.852082,42.5926675 C154.292059,42.5926675 153.012018,41.7341516 152.504072,40.5082812 L153.275262,40.0704381 C153.64254,41.0518573 154.589681,41.7517737 155.869722,41.7517737 C157.148859,41.7517737 158.218575,41.0518573 158.218575,39.8083649 C158.218575,37.0231586 152.976285,37.8464302 152.976285,34.4665886 C152.976285,32.7676309 154.326435,31.8047376 155.834441,31.8047376 Z M105.374114,31.945263 L105.374114,38.86219 C105.374114,40.5082812 106.670891,41.7517737 108.371583,41.7517737 C110.089462,41.7517737 111.386691,40.5082812 111.386691,38.86219 L111.386691,31.945263 L112.228443,31.945263 L112.228443,38.9850933 C112.228443,41.0342352 110.580672,42.5926675 108.371583,42.5926675 C106.180586,42.5926675 104.532815,41.0342352 104.532815,38.9850933 L104.532815,31.945263 L105.374114,31.945263 Z M143.636052,31.945263 L143.636052,32.7676309 L138.868236,32.7676309 L138.868236,36.795426 L143.039906,36.795426 L143.039906,37.6010753 L138.868236,37.6010753 L138.868236,41.6288704 L143.636052,41.6288704 L143.636052,42.4525938 L138.026484,42.4525938 L138.026484,31.945263 L143.636052,31.945263 Z M125.653049,31.945263 C127.248804,31.945263 128.527941,33.2230962 128.527941,34.8167728 C128.527941,36.2703758 127.441037,37.4438314 126.038419,37.6010753 L129.176105,42.4525938 L128.212228,42.4525938 L125.179479,37.6363197 L122.900282,37.6363197 L122.900282,42.4525938 L122.059434,42.4525938 L122.059434,31.945263 L125.653049,31.945263 Z M95.8050113,31.945263 L95.8050113,32.785253 L92.8423706,32.785253 L92.8423706,42.4525938 L92.0010712,42.4525938 L92.0010712,32.785253 L89.0384307,32.785253 L89.0384307,31.945263 L95.8050113,31.945263 Z M72.6335436,31.945263 L79.4354044,40.9637465 L79.4354044,31.945263 L80.2767038,31.945263 L80.2767038,42.4525938 L79.5403407,42.4525938 L72.7389321,33.4332067 L72.7389321,42.4525938 L71.8976327,42.4525938 L71.8976327,31.945263 L72.6335436,31.945263 Z M62.2756094,31.945263 L62.2756094,32.7676309 L57.5073411,32.7676309 L57.5073411,36.795426 L61.6799151,36.795426 L61.6799151,37.6010753 L57.5073411,37.6010753 L57.5073411,41.6288704 L62.2756094,41.6288704 L62.2756094,42.4525938 L56.6660416,42.4525938 L56.6660416,31.945263 L62.2756094,31.945263 Z M40.3837309,31.945263 L43.7141007,41.3844193 L47.0449229,31.945263 L47.9739708,31.945263 L44.1700309,42.4525938 L43.2409829,42.4525938 L39.4365905,31.945263 L40.3837309,31.945263 Z M125.600129,32.785253 L122.900282,32.785253 L122.900282,36.8306702 L125.600129,36.8306702 C126.775234,36.8306702 127.686642,35.9730581 127.686642,34.8167728 C127.686642,33.643769 126.775234,32.785253 125.600129,32.785253 Z" id="Shape" fill="#000000"></path>
                    </g>
                </g>
            </g>
        </g>
    </g>
</svg>