<?xml version="1.0" encoding="UTF-8"?>
<svg width="180px" height="37px" viewBox="0 0 180 37" version="1.1" xmlns="http://www.w3.org/2000/svg" xmlns:xlink="http://www.w3.org/1999/xlink">
    <title>Leminscap_logo</title>
    <defs>
        <filter id="filter-1">
            <feColorMatrix in="SourceGraphic" type="matrix" values="0 0 0 0 0.000000 0 0 0 0 0.000000 0 0 0 0 0.000000 0 0 0 1.000000 0"></feColorMatrix>
        </filter>
    </defs>
    <g id="Design" stroke="none" stroke-width="1" fill="none" fill-rule="evenodd">
        <g id="Desktop-HD_wireframes" transform="translate(-142.000000, -5739.000000)">
            <g id="Leminscap_logo" transform="translate(142.280769, 5739.100000)" filter="url(#filter-1)">
                <g>
                    <path d="M145.794872,8.35897436 C142.923077,8.35897436 140.358974,9.53846154 138.512821,11.4871795 L125.179487,24.0512821 C123.948718,25.1794872 122.410256,25.7948718 120.820513,25.7435897 C120.717949,25.7435897 120.615385,25.7435897 120.512821,25.7435897 C116.974359,25.4871795 114.102564,22.5641026 113.846154,19.025641 C113.692308,16.974359 114.410256,15.025641 115.794872,13.5384615 C117.179487,12.0512821 119.076923,11.2307692 121.128205,11.2307692 C122.820513,11.2307692 124.512821,11.8461538 125.794872,12.9230769 C126.410256,13.4358974 127.333333,13.3846154 127.846154,12.7692308 C128.358974,12.1538462 128.307692,11.2307692 127.692308,10.7179487 C125.846154,9.17948718 123.538462,8.30769231 121.128205,8.30769231 C118.307692,8.30769231 115.641026,9.48717949 113.692308,11.5384615 C111.74359,13.6410256 110.769231,16.3076923 110.974359,19.1794872 C111.333333,24.1538462 115.333333,28.2051282 120.307692,28.5641026 C120.461538,28.5641026 120.615385,28.5641026 120.717949,28.5641026 C120.820513,28.5641026 120.923077,28.5641026 121.025641,28.5641026 C123.230769,28.5641026 125.487179,27.6410256 127.179487,26.0512821 L135.74359,18 C135.74359,18.1538462 135.74359,18.2564103 135.74359,18.4102564 C135.74359,24 140.307692,28.5641026 145.897436,28.5641026 C147.692308,28.5641026 149.487179,28.1025641 151.025641,27.1794872 C151.692308,26.7692308 151.948718,25.8974359 151.538462,25.1794872 C151.128205,24.5128205 150.25641,24.2564103 149.538462,24.6666667 C148.410256,25.3333333 147.179487,25.6410256 145.846154,25.6410256 C141.846154,25.6410256 138.564103,22.4102564 138.564103,18.3589744 C138.564103,16.4615385 139.333333,14.7179487 140.512821,13.3846154 L140.717949,13.1794872 C140.769231,13.1282051 140.769231,13.1282051 140.820513,13.0769231 C142.102564,11.8461538 143.897436,11.0769231 145.794872,11.0769231 C149.794872,11.0769231 153.076923,14.3076923 153.076923,18.3589744 L153.076923,27.0769231 C153.076923,27.8974359 153.74359,28.5128205 154.512821,28.5128205 C155.333333,28.5128205 155.948718,27.8461538 155.948718,27.0769231 L155.948718,18.3589744 C155.948718,12.9230769 151.384615,8.35897436 145.794872,8.35897436 Z" id="Path" fill="#FFFFFF" fill-rule="nonzero"></path>
                    <path d="M169.384615,8.35897436 C166.974359,8.35897436 164.769231,9.17948718 162.974359,10.6666667 L162.974359,9.94871795 C162.974359,9.12820513 162.307692,8.51282051 161.538462,8.51282051 C160.717949,8.51282051 160.102564,9.17948718 160.102564,9.94871795 L160.102564,34.5641026 C160.102564,35.3846154 160.769231,36 161.538462,36 C162.358974,36 162.974359,35.3333333 162.974359,34.5641026 L162.974359,26.3589744 C164.769231,27.8461538 167.025641,28.6666667 169.384615,28.6666667 C174.974359,28.6666667 179.538462,24.1025641 179.538462,18.5128205 C179.487179,12.9230769 174.974359,8.35897436 169.384615,8.35897436 Z M169.384615,25.7435897 C167.487179,25.7435897 165.692308,25.025641 164.358974,23.7435897 C164.358974,23.7435897 164.358974,23.7435897 164.358974,23.7435897 C163.794872,23.1794872 163.333333,22.5641026 162.974359,21.8974359 L162.974359,15.025641 C163.076923,14.8205128 163.333333,14.4615385 163.589744,14.1025641 C164.974359,12.2564103 167.076923,11.1794872 169.384615,11.1794872 C173.384615,11.1794872 176.666667,14.4102564 176.666667,18.4615385 C176.615385,22.5128205 173.384615,25.7435897 169.384615,25.7435897 Z" id="Shape" fill="#FFFFFF" fill-rule="nonzero"></path>
                    <path d="M15.3333333,28.5641026 L9.58974359,28.5641026 C4.30769231,28.5641026 -1.82190445e-15,24.2564103 -1.82190445e-15,18.974359 L-1.82190445e-15,1.43589744 C-1.82190445e-15,0.615384615 0.666666667,0 1.43589744,0 C2.20512821,0 2.87179487,0.666666667 2.87179487,1.43589744 L2.87179487,18.974359 C2.87179487,22.6666667 5.8974359,25.6923077 9.58974359,25.6923077 L15.2820513,25.6923077 C16.1025641,25.6923077 16.7179487,26.3589744 16.7179487,27.1282051 C16.7692308,27.8974359 16.1025641,28.5641026 15.3333333,28.5641026 Z" id="Path" fill="#FFFFFF" fill-rule="nonzero"></path>
                    <path d="M27.025641,28.5641026 C21.4358974,28.5641026 16.8205128,24 16.8205128,18.3589744 C16.8205128,12.7179487 21.3846154,8.15384615 27.025641,8.15384615 C29.7435897,8.15384615 32.3076923,9.23076923 34.2051282,11.1282051 C34.7692308,11.6923077 34.7692308,12.6153846 34.2051282,13.1794872 L23.2307692,24.1538462 C23.1282051,24.2564103 23.025641,24.3076923 22.9230769,24.4102564 C24.1025641,25.1794872 25.4871795,25.6410256 27.025641,25.6410256 C28.6153846,25.6410256 30.1025641,25.1282051 31.3333333,24.2051282 C32,23.7435897 32.8717949,23.8461538 33.3333333,24.5128205 C33.7948718,25.1794872 33.6923077,26.0512821 33.025641,26.5128205 C31.2820513,27.8461538 29.1794872,28.5641026 27.025641,28.5641026 Z M27.025641,11.0769231 C23.025641,11.0769231 19.7435897,14.3589744 19.7435897,18.3589744 C19.7435897,19.8461538 20.2051282,21.2820513 20.974359,22.4615385 C21.025641,22.3589744 21.1282051,22.2564103 21.2307692,22.1538462 L31.0769231,12.3076923 C29.8461538,11.4871795 28.4615385,11.0769231 27.025641,11.0769231 Z" id="Shape" fill="#FFFFFF" fill-rule="nonzero"></path>
                    <path d="M54.6666667,8.46153846 C52.6153846,8.46153846 50.7179487,9.43589744 49.5384615,10.9230769 C48.3076923,9.38461538 46.4615385,8.41025641 44.3589744,8.41025641 C42.7692308,8.41025641 41.2820513,8.97435897 40.1538462,9.94871795 C39.8974359,9.74358974 39.5897436,9.58974359 39.2307692,9.58974359 C38.4102564,9.58974359 37.7948718,10.2564103 37.7948718,11.025641 L37.7948718,27.1282051 C37.7948718,27.9487179 38.4615385,28.5641026 39.2307692,28.5641026 C40,28.5641026 40.6666667,27.8974359 40.6666667,27.1282051 L40.6666667,15.025641 C40.6666667,12.974359 42.3589744,11.3333333 44.3589744,11.3333333 C46.4102564,11.3333333 48.0512821,13.025641 48.0512821,15.025641 L48.0512821,27.0769231 C48.0512821,27.8974359 48.7179487,28.5128205 49.4871795,28.5128205 C50.3076923,28.5128205 50.9230769,27.8461538 50.9230769,27.0769231 L50.9230769,15.0769231 C50.9230769,13.025641 52.6153846,11.3846154 54.6153846,11.3846154 C56.6666667,11.3846154 58.3076923,13.0769231 58.3076923,15.0769231 L58.3076923,27.1282051 C58.3076923,27.9487179 58.974359,28.5641026 59.7435897,28.5641026 C60.5641026,28.5641026 61.1794872,27.8974359 61.1794872,27.1282051 L61.1794872,15.0769231 C61.2820513,11.4358974 58.3076923,8.46153846 54.6666667,8.46153846 Z" id="Path" fill="#FFFFFF" fill-rule="nonzero"></path>
                    <path d="M73.5384615,8.46153846 C71.4871795,8.46153846 69.5897436,9.23076923 68.1538462,10.5128205 C67.9487179,10 67.4358974,9.58974359 66.8205128,9.58974359 C66,9.58974359 65.3846154,10.2564103 65.3846154,11.025641 L65.3846154,27.1282051 C65.3846154,27.9487179 66.0512821,28.5641026 66.8205128,28.5641026 C67.6410256,28.5641026 68.2564103,27.8974359 68.2564103,27.1282051 L68.2564103,16.6153846 C68.2564103,16.6153846 68.2564103,16.6153846 68.2564103,16.5641026 C68.2564103,13.6410256 70.6153846,11.2820513 73.5384615,11.2820513 C76.4615385,11.2820513 78.8205128,13.6410256 78.8205128,16.5641026 L78.8205128,27.1282051 C78.8205128,27.9487179 79.4871795,28.5641026 80.2564103,28.5641026 C81.0769231,28.5641026 81.6923077,27.8974359 81.6923077,27.1282051 L81.6923077,16.6153846 C81.6923077,12.1025641 78.0512821,8.46153846 73.5384615,8.46153846 Z" id="Path" fill="#FFFFFF" fill-rule="nonzero"></path>
                    <path d="M102.615385,28.5641026 C102.564103,28.5641026 102.564103,28.5641026 102.564103,28.5641026 L95.2820513,28.5641026 C94.4615385,28.5641026 93.8461538,27.8974359 93.8461538,27.1282051 C93.8461538,26.3076923 94.5128205,25.6923077 95.2820513,25.6923077 L102.615385,25.6923077 C102.666667,25.6923077 104,25.6923077 104.820513,24.8717949 C105.282051,24.4102564 105.538462,23.6923077 105.538462,22.7692308 C105.538462,21.8461538 105.282051,21.1282051 104.820513,20.6666667 C104,19.8461538 102.666667,19.8461538 102.666667,19.8461538 C102.666667,19.8461538 102.666667,19.8461538 102.666667,19.8461538 L98.6153846,19.8461538 C98.6153846,19.8461538 98.6153846,19.8461538 98.6153846,19.8461538 C98.3076923,19.8461538 96,19.7948718 94.3589744,18.1538462 C93.3846154,17.1794872 92.8717949,15.8461538 92.8717949,14.2564103 C92.8717949,10 96.6153846,8.56410256 98.5641026,8.41025641 C98.6153846,8.41025641 98.6153846,8.41025641 98.6666667,8.41025641 L105.74359,8.41025641 C106.564103,8.41025641 107.179487,9.07692308 107.179487,9.84615385 C107.179487,10.6153846 106.512821,11.2820513 105.74359,11.2820513 L98.7692308,11.2820513 C98.2051282,11.3333333 95.7948718,11.7435897 95.7948718,14.2564103 C95.7948718,15.0769231 96,15.6923077 96.4615385,16.1025641 C97.2820513,16.9230769 98.6666667,16.974359 98.7179487,16.974359 L102.769231,16.974359 C102.974359,16.974359 105.282051,16.974359 106.974359,18.6153846 C108.051282,19.6410256 108.564103,21.025641 108.564103,22.7692308 C108.564103,24.5128205 108.051282,25.8974359 106.974359,26.9230769 C105.230769,28.4615385 103.076923,28.5641026 102.615385,28.5641026 Z" id="Path" fill="#FFFFFF" fill-rule="nonzero"></path>
                    <g id="Group" transform="translate(84.448718, 1.474359)" fill="#FFFFFF" fill-rule="nonzero">
                        <path d="M2.78205128,27.0897436 C1.96153846,27.0897436 1.34615385,26.4230769 1.34615385,25.6538462 L1.34615385,8.73076923 C1.34615385,7.91025641 2.01282051,7.29487179 2.78205128,7.29487179 C3.55128205,7.29487179 4.21794872,7.96153846 4.21794872,8.73076923 L4.21794872,25.6538462 C4.21794872,26.4230769 3.6025641,27.0897436 2.78205128,27.0897436 Z" id="Path"></path>
                        <path d="M0.884615385,3.70512821 C0.679487179,3.70512821 0.423076923,3.6025641 0.269230769,3.44871795 C-0.0897435897,3.08974359 -0.0897435897,2.57692308 0.269230769,2.21794872 L2.21794872,0.269230769 C2.57692308,-0.0897435897 3.08974359,-0.0897435897 3.44871795,0.269230769 L5.34615385,2.16666667 C5.70512821,2.52564103 5.70512821,3.03846154 5.34615385,3.3974359 C4.98717949,3.75641026 4.47435897,3.75641026 4.11538462,3.3974359 L2.83333333,2.11538462 L1.5,3.44871795 C1.34615385,3.65384615 1.08974359,3.70512821 0.884615385,3.70512821 Z" id="Path"></path>
                    </g>
                </g>
            </g>
        </g>
    </g>
</svg>