<?xml version="1.0" encoding="UTF-8"?>
<svg width="210px" height="41px" viewBox="0 0 210 41" version="1.1" xmlns="http://www.w3.org/2000/svg" xmlns:xlink="http://www.w3.org/1999/xlink">
    <title>Supernova_logo</title>
    <g id="Design" stroke="none" stroke-width="1" fill="none" fill-rule="evenodd">
        <g id="Desktop-HD_wireframes" transform="translate(-127.000000, -5946.000000)" fill="#000000" fill-rule="nonzero">
            <g id="Supernova_logo" transform="translate(127.000000, 5946.000000)">
                <path d="M10.0141519,30.5804059 C11.8624942,30.5804059 13.5591067,30.1872884 15.1039894,29.4010533 C16.6488721,28.6148183 17.8696055,27.5389177 18.7661896,26.1733515 C19.6627736,24.8077853 20.1110653,23.283593 20.1110653,21.6007739 C20.1110653,19.5317342 19.6420832,17.8833995 18.7041184,16.6557691 C17.7661535,15.4281387 16.7109433,14.5522457 15.5384877,14.0280888 C14.3660321,13.5039319 12.8142524,12.9521882 10.8831485,12.3728571 C9.00721946,11.793526 7.71751787,11.2141949 7.01404439,10.6348638 C6.31057091,10.0555327 5.95883417,9.2692976 5.95883417,8.27615857 C5.95883417,7.28301954 6.37953911,6.45540369 7.22094835,5.793311 C8.0623576,5.13121832 9.18653602,4.80017197 10.593483,4.80017197 C11.9176683,4.80017197 13.0142594,5.15880572 13.883256,5.87607259 C14.7522527,6.59333945 15.186751,7.5313043 15.186751,8.6899665 L20.3179693,8.6899665 C20.3179693,7.08990897 19.883471,5.62778783 19.0144743,4.30360246 C18.1454777,2.97941709 16.9730221,1.93110388 15.4971069,1.1586622 C14.0211918,0.386220523 12.4004445,0 10.6348638,0 C8.84169629,0 7.19336095,0.386220523 5.68985902,1.1586622 C4.18635709,1.93110388 3.00010748,2.97941709 2.13111083,4.30360246 C1.26211418,5.62778783 0.827615857,7.07611558 0.827615857,8.64858571 C0.827615857,10.5521022 1.26901119,12.0693981 2.15180123,13.2004729 C3.03459127,14.3315477 4.0346273,15.1522672 5.15190871,15.6626301 C6.26919012,16.172993 7.72441488,16.7040469 9.51758236,17.2557906 C10.9797035,17.697186 12.0762945,18.0834065 12.8073554,18.4144528 C13.5384163,18.7454992 14.083263,19.1731005 14.4418967,19.6972574 C14.8005305,20.2214143 14.979847,20.9386812 14.979847,21.8490586 C14.979847,22.9249592 14.5315553,23.8353367 13.6349712,24.580191 C12.7383872,25.3250452 11.5452412,25.6974724 10.0555327,25.6974724 C8.70375989,25.6974724 7.53820131,25.3112518 6.55885567,24.5388102 C5.57951003,23.7663685 5.08983752,22.8146103 5.08983752,21.6835355 L0,21.6835355 C0,23.283593 0.455188721,24.7664045 1.36556616,26.1319707 C2.27594361,27.4975369 3.496677,28.5803345 5.02776633,29.3803629 C6.55885567,30.1803914 8.22098439,30.5804059 10.0141519,30.5804059 Z M32.9729681,30.6217867 C34.8488972,30.6217867 36.5317163,30.2217722 38.0214249,29.4217437 C39.5111334,28.6217153 40.6766926,27.4975369 41.5181019,26.0492091 C42.3595111,24.6008814 42.780216,22.9525467 42.780216,21.1042044 L42.780216,7.11749637 L37.5662361,7.11749637 L37.5662361,21.3938699 C37.5662361,22.7456427 37.1593252,23.8146463 36.3455027,24.6008814 C35.5316803,25.3871164 34.4075025,25.780234 32.9729681,25.780234 C31.5660212,25.780234 30.4349464,25.4009098 29.5797431,24.6422622 C28.7245399,23.8836145 28.2969385,22.8008169 28.2969385,21.3938699 L28.2969385,7.11749637 L23.1657202,7.11749637 L23.1657202,21.1042044 C23.1657202,22.9525467 23.5864252,24.6008814 24.4278344,26.0492091 C25.2692436,27.4975369 26.4348029,28.6217153 27.9245114,29.4217437 C29.4142199,30.2217722 31.0970391,30.6217867 32.9729681,30.6217867 Z M52.207513,36.5392401 L52.207513,25.6147108 L52.3730362,25.6147108 C54.3317269,28.9803484 57.2559698,30.6631675 61.1457643,30.6631675 C63.1872165,30.6631675 65.0493522,30.1252172 66.7321713,29.0493166 C68.4149904,27.973416 69.7391758,26.5112948 70.7047274,24.6629525 C71.6702791,22.8146103 72.1530552,20.7869514 72.1530552,18.579976 C72.1530552,16.3730006 71.6702791,14.3453417 70.7047274,12.4969994 C69.7391758,10.6486572 68.4149904,9.18653602 66.7321713,8.1106354 C65.0493522,7.03473479 63.1872165,6.49678448 61.1457643,6.49678448 C59.1870736,6.49678448 57.3870091,6.9726636 55.7455708,7.92442183 C54.1041325,8.87618007 52.9385739,10.1520876 52.2488938,11.7521452 L52.0833707,11.7521452 L52.0833707,7.11749637 L46.9935331,7.11749637 L46.9935331,36.5392401 L52.207513,36.5392401 Z M59.7801981,25.780234 C58.5111869,25.780234 57.3456284,25.4836714 56.2835211,24.8905469 C55.2214139,24.2974224 54.3800047,23.4560125 53.7592928,22.3663185 C53.1385809,21.2766245 52.8282249,20.0145104 52.8282249,18.579976 C52.8282249,17.1454416 53.1385809,15.8833275 53.7592928,14.7936334 C54.3800047,13.7039394 55.2214139,12.8625296 56.2835211,12.2694051 C57.3456284,11.6762806 58.5111869,11.379718 59.7801981,11.379718 C61.0767961,11.379718 62.2561487,11.6762806 63.3182559,12.2694051 C64.3803631,12.8625296 65.2286694,13.7039394 65.8631747,14.7936334 C66.49768,15.8833275 66.8149329,17.1454416 66.8149329,18.579976 C66.8149329,20.0145104 66.49768,21.2766245 65.8631747,22.3663185 C65.2286694,23.4560125 64.3803631,24.2974224 63.3182559,24.8905469 C62.2561487,25.4836714 61.0767961,25.780234 59.7801981,25.780234 Z M86.4632857,30.6217867 C89.2771797,30.6217867 91.7531302,29.8424487 93.8911381,28.2837719 C96.0291459,26.7250952 97.5119574,24.69054 98.3395733,22.180105 L92.6290239,22.180105 C92.104867,23.3387672 91.3048385,24.2284542 90.2289379,24.8491661 C89.1530373,25.469878 87.9254069,25.780234 86.5460473,25.780234 C84.808054,25.780234 83.2838617,25.256077 81.9734697,24.2077638 C80.6630777,23.1594506 79.8561523,21.8490586 79.5526933,20.2765885 L98.7533812,20.2765885 C98.8637302,19.7248448 98.9189044,19.1731005 98.9189044,18.6213568 C98.9189044,16.3592066 98.3671607,14.3039609 97.2636727,12.4556187 C96.1601847,10.6072764 94.6566827,9.15205223 92.7531663,8.089945 C90.8496498,7.02783778 88.7530227,6.49678448 86.4632857,6.49678448 C84.1735487,6.49678448 82.0769217,7.02783778 80.1734052,8.089945 C78.2698888,9.15205223 76.7663868,10.593483 75.6628988,12.4142379 C74.5594108,14.2349927 74.0076671,16.2488582 74.0076671,18.4558336 C74.0076671,20.662809 74.5594108,22.6973649 75.6628988,24.5595006 C76.7663868,26.4216362 78.2698888,27.8975514 80.1734052,28.9872454 C82.0769217,30.0769394 84.1735487,30.6217867 86.4632857,30.6217867 Z M93.1669742,16.3454132 L79.6354549,16.3454132 C79.8285655,14.883292 80.5458324,13.6832491 81.7872561,12.7452842 C83.0286799,11.8073194 84.5597693,11.3383372 86.3805242,11.3383372 C88.1461049,11.3383372 89.6634002,11.8211134 90.9324114,12.786665 C92.2014226,13.7522166 92.9462768,14.9384662 93.1669742,16.3454132 Z M107.146158,30.0010748 L107.146158,11.9590491 L115.711983,11.9590491 L115.711983,7.11749637 L101.932178,7.11749637 L101.932178,30.0010748 L107.146158,30.0010748 Z M123.153001,30.0010748 L123.153001,11.9590491 L133.53958,11.9590491 L133.53958,30.0010748 L138.670799,30.0010748 L138.670799,7.11749637 L118.021783,7.11749637 L118.021783,30.0010748 L123.153001,30.0010748 Z M153.891407,40.4027014 C156.098382,40.4027014 158.132938,39.8578541 159.995074,38.7681601 C161.857209,37.6784661 163.333125,36.2094479 164.422819,34.3611056 C165.512513,32.5127633 166.05736,30.5126919 166.05736,28.3608907 C166.05736,26.1539153 165.512513,24.1262564 164.422819,22.2779141 C163.333125,20.4295718 161.857209,18.9743477 159.995074,17.9122405 C158.132938,16.8501332 156.098382,16.3190799 153.891407,16.3190799 C151.684431,16.3190799 149.649875,16.8501332 147.78774,17.9122405 C145.925604,18.9743477 144.449689,20.4295718 143.359995,22.2779141 C142.270301,24.1262564 141.725454,26.1539153 141.725454,28.3608907 C141.725454,30.5126919 142.270301,32.5127633 143.359995,34.3611056 C144.449689,36.2094479 145.925604,37.6784661 147.78774,38.7681601 C149.649875,39.8578541 151.684431,40.4027014 153.891407,40.4027014 Z M176.654605,30.0010748 L185.013525,7.11749637 L179.55126,7.11749637 L173.882092,22.6766745 L168.254304,7.07611558 L162.792039,7.07611558 L171.109578,30.0010748 L176.654605,30.0010748 Z M196.137434,30.6217867 C200.027229,30.6217867 202.910091,28.9251742 204.78602,25.5319492 L204.951543,25.5319492 L204.951543,30.0010748 L210,30.0010748 L210,7.11749637 L204.951543,7.11749637 L204.951543,11.6693836 L204.78602,11.6693836 C204.041166,10.0969135 202.903194,8.83479928 201.372105,7.88304104 C199.841015,6.9312828 198.096125,6.45540369 196.137434,6.45540369 C194.013221,6.45540369 192.089014,6.99335399 190.364814,8.06925461 C188.640614,9.14515522 187.288842,10.6072764 186.309496,12.4556187 C185.33015,14.3039609 184.840478,16.3316198 184.840478,18.5385952 C184.840478,20.7455706 185.33015,22.7732295 186.309496,24.6215718 C187.288842,26.469914 188.640614,27.9320352 190.364814,29.0079358 C192.089014,30.0838364 194.013221,30.6217867 196.137434,30.6217867 Z M197.213335,25.7388532 C195.861562,25.7388532 194.661519,25.4284972 193.613206,24.8077853 C192.564893,24.1870734 191.75107,23.3249738 191.171739,22.2214858 C190.592408,21.1179977 190.302743,19.890368 190.302743,18.5385952 C190.302743,17.1592357 190.592408,15.9247082 191.171739,14.8350142 C191.75107,13.7453202 192.564893,12.890117 193.613206,12.2694051 C194.661519,11.6486932 195.861562,11.3383372 197.213335,11.3383372 C198.565108,11.3383372 199.772047,11.6486932 200.834154,12.2694051 C201.896262,12.890117 202.723877,13.7453202 203.317002,14.8350142 C203.910126,15.9247082 204.206689,17.1592357 204.206689,18.5385952 C204.206689,19.890368 203.910126,21.1179977 203.317002,22.2214858 C202.723877,23.3249738 201.896262,24.1870734 200.834154,24.8077853 C199.772047,25.4284972 198.565108,25.7388532 197.213335,25.7388532 Z" id="Supernova"></path>
            </g>
        </g>
    </g>
</svg>