<?xml version="1.0" encoding="UTF-8"?>
<svg width="98px" height="86px" viewBox="0 0 98 86" version="1.1" xmlns="http://www.w3.org/2000/svg" xmlns:xlink="http://www.w3.org/1999/xlink">
    <title>Tomahawk_logo</title>
    <defs>
        <filter id="filter-1">
            <feColorMatrix in="SourceGraphic" type="matrix" values="0 0 0 0 0.000000 0 0 0 0 0.000000 0 0 0 0 0.000000 0 0 0 1.000000 0"></feColorMatrix>
        </filter>
    </defs>
    <g id="Design" stroke="none" stroke-width="1" fill="none" fill-rule="evenodd">
        <g id="Desktop-HD_wireframes" transform="translate(-834.000000, -5713.000000)">
            <g id="Tomahawk_logo" transform="translate(834.000000, 5713.000000)" filter="url(#filter-1)">
                <g>
                    <polygon id="Path" fill="#09090A" fill-rule="nonzero" points="29.8771489 21 29.8771489 9.19045493 36 9.19045493 36 6 20 6 20 9.19045493 26.0473274 9.19045493 26.0473274 21"></polygon>
                    <path d="M56,13.4999653 C56,9.05044092 52.233661,6 47.5129601,6 C42.766339,6 39,9.05044092 39,13.4999653 C39,17.9495452 42.766339,21 47.5129601,21 C52.233661,21 56,17.9495452 56,13.4999653 Z M51.950003,13.4999653 C51.950003,16.1834194 50.144228,17.9265166 47.5129601,17.9265166 C44.8559184,17.9265166 43.0501434,16.1834194 43.0501434,13.4999653 C43.0501434,10.8164973 44.8559184,9.07338627 47.5129601,9.07338627 C50.144228,9.07338627 51.950003,10.8164973 51.950003,13.4999653 Z" id="Shape" fill="#09090A" fill-rule="nonzero"></path>
                    <polygon id="Path" fill="#09090A" fill-rule="nonzero" points="69.4185138 21 73.8011009 9.45236827 73.9061292 9.45236827 73.9061292 21 78 21 78 6 71.7015768 6 68.5525142 14.9761517 68.4737057 14.9761517 65.2458345 6 59 6 59 21 62.7789347 21 62.7789347 9.45236827 62.8839631 9.45236827 67.2927699 21"></polygon>
                    <path d="M89.3230019,9.928556 L89.4241027,9.928556 L91.4985343,15.0475813 L87.2738454,15.0475813 L89.3230019,9.928556 Z M93.9271058,21 L98,21 L91.650329,6 L87.3498146,6 L81,21 L84.8705492,21 L86.1607322,17.785668 L92.6116475,17.785668 L93.9271058,21 Z" id="Shape" fill="#09090A" fill-rule="nonzero"></path>
                    <polygon id="Path" fill="#09090A" fill-rule="nonzero" points="24.725512 51 24.725512 44.8571689 32.274488 44.8571689 32.274488 51 36 51 36 36 32.274488 36 32.274488 41.7143954 24.725512 41.7143954 24.725512 36 21 36 21 51"></polygon>
                    <path d="M47.3228583,39.9286469 L47.4241027,39.9286469 L49.4985343,45.0476968 L45.2738454,45.0476968 L47.3228583,39.9286469 Z M51.9271058,51 L56,51 L49.650329,36 L45.349671,36 L39,51 L42.8705492,51 L44.1607322,47.7857966 L50.6116475,47.7857966 L51.9271058,51 Z" id="Shape" fill="#09090A" fill-rule="nonzero"></path>
                    <polygon id="Path" fill="#09090A" fill-rule="nonzero" points="70.3540457 36 66.7756366 36 63.8715464 46.047716 63.7677711 46.047716 60.941402 36 57 36 61.3303019 51 65.5051616 51 68.4092518 40.97619 68.5130271 40.97619 71.4171173 51 75.6696981 51 80 36 76.1882804 36 73.3619113 46.0714779 73.2581359 46.0714779"></polygon>
                    <polygon id="Path" fill="#09090A" fill-rule="nonzero" points="98 51 91.3715809 42.0476392 97.5335495 36 93.1636595 36 86.731604 42.4524568 86.731604 36 83 36 83 51 86.731604 51 86.731604 46.3809597 88.67099 44.4048273 93.4582745 51"></polygon>
                    <polygon id="Path" fill="#09090A" fill-rule="nonzero" points="20 80 24 80 24 77 20 77"></polygon>
                    <polygon id="Path" fill="#09090A" fill-rule="nonzero" points="34.5829352 80 41 65 36.885834 65 32.6681125 75.6191555 32.5647038 75.6191555 28.3211302 65 24 65 30.4170648 80"></polygon>
                    <path d="M55.3671533,73.9678708 C54.98073,75.6192775 53.821314,76.9495311 51.3478833,76.9495311 C48.7713382,76.9495311 47.0451583,75.2064258 47.0451583,72.5 C47.0451583,69.7935742 48.7455962,68.0504689 51.3736254,68.0504689 C53.6924575,68.0504689 54.8776156,69.266134 55.3156692,70.7797847 L58.8196594,69.3349426 C57.8405839,66.7431053 55.3156692,65 51.3993674,65 C46.6844771,65 43,68.0504689 43,72.5 C43,76.9495311 46.6844771,80 51.3736254,80 C55.6248663,80 58.2014114,78.004689 59,75.0688086 L55.3671533,73.9678708 Z" id="Path" fill="#09090A" fill-rule="nonzero"></path>
                    <polygon id="Path" fill="#EC5029" fill-rule="nonzero" points="0 5.93104141 7 0 7 80.0690447 0 86"></polygon>
                </g>
            </g>
        </g>
    </g>
</svg>