<?xml version="1.0" encoding="UTF-8"?>
<svg width="233px" height="38px" viewBox="0 0 233 38" version="1.1" xmlns="http://www.w3.org/2000/svg" xmlns:xlink="http://www.w3.org/1999/xlink">
    <title>Wintermute_logo</title>
    <defs>
        <filter id="filter-1">
            <feColorMatrix in="SourceGraphic" type="matrix" values="0 0 0 0 0.000000 0 0 0 0 0.000000 0 0 0 0 0.000000 0 0 0 1.000000 0"></feColorMatrix>
        </filter>
        <filter id="filter-2">
            <feColorMatrix in="SourceGraphic" type="matrix" values="0 0 0 0 0.000000 0 0 0 0 0.000000 0 0 0 0 0.000000 0 0 0 1.000000 0"></feColorMatrix>
        </filter>
    </defs>
    <g id="Design" stroke="none" stroke-width="1" fill="none" fill-rule="evenodd">
        <g id="Desktop-HD_wireframes" transform="translate(-439.000000, -5947.000000)">
            <g id="Wintermute_logo" transform="translate(439.712166, 5947.927348)" filter="url(#filter-1)">
                <g>
                    <g id="Untitled-8" transform="translate(0.000000, 0.000000)" fill="#A3EC26" fill-rule="nonzero">
                        <path d="M0.0296753523,24.0927 C0.0222566042,24.122446 0.0185471102,24.152072 0.0148377361,24.1836172 C0.00927356708,24.2188806 0.00556413305,24.2522249 0.00370942204,24.2874883 C0.00370942204,24.2967239 0,24.3059596 0,24.3171143 C0,24.3375047 0.00556413305,24.356096 0.00556413305,24.3746872 C0.00741885607,24.4098307 0.00927356708,24.4432949 0.0166924231,24.4784384 C0.0222566042,24.5099836 0.0296753523,24.5397295 0.0370942204,24.5693556 C0.0445130884,24.5991016 0.0537866435,24.6287277 0.0649148856,24.6583537 C0.0760432477,24.6880997 0.0890261768,24.7177258 0.103863913,24.7455527 C0.116846842,24.7733796 0.131684818,24.7994073 0.148377361,24.8272342 C0.165069904,24.853142 0.183616775,24.8791698 0.202163645,24.9032784 C0.220710515,24.9291862 0.241112912,24.9532949 0.263369636,24.9774035 C0.283770834,24.999713 0.307881885,25.0219026 0.330138609,25.042293 C0.35424966,25.0626834 0.376506385,25.0830738 0.402472963,25.1016651 C0.430293868,25.1220555 0.4599691,25.1387276 0.489644332,25.1573189 C0.506336875,25.1665545 0.521173892,25.1796284 0.539721962,25.188864 L23.8831586,36.8605703 C23.8923942,36.8642886 23.9016299,36.8660877 23.9090664,36.869806 C23.9221402,36.8754433 23.933175,36.8827599 23.9462489,36.8883972 C23.9572837,36.8939146 23.9703575,36.8958337 23.9833114,36.9013511 C24.0017828,36.9087876 24.0222931,36.914305 24.0407644,36.9199424 C24.0593557,36.9254598 24.077827,36.9310971 24.0964182,36.9346954 C24.107573,36.9366145 24.1168086,36.9421319 24.1279634,36.944051 C24.1391181,36.9458502 24.1501529,36.9458502 24.1613077,36.9477693 C24.1816981,36.9514875 24.2020885,36.9532867 24.224398,36.9552058 C24.2467075,36.9570049 24.268897,36.9588041 24.2892874,36.9588041 C24.3078787,36.9588041 24.3282691,36.9588041 24.3468603,36.9588041 C24.3690499,36.9588041 24.3894403,36.9570049 24.4117498,36.9552058 C24.4321402,36.9532867 24.4525306,36.9495684 24.4748401,36.9477693 C24.4858749,36.9458502 24.4970296,36.9458502 24.5081844,36.944051 C24.5193391,36.9421319 24.5285748,36.9384137 24.5397295,36.9346954 C24.5582009,36.9310971 24.5767921,36.9254598 24.5953834,36.9199424 C24.6138547,36.914305 24.6342451,36.9068685 24.6528363,36.9013511 C24.6657902,36.8976329 24.676945,36.8939146 24.6898989,36.8883972 C24.7029727,36.8827599 24.7140075,36.8754433 24.7270814,36.869806 C24.736317,36.8660877 24.7455527,36.8642886 24.7529892,36.8605703 L48.0964018,25.188864 C48.1149931,25.1796284 48.127947,25.1665545 48.1465382,25.1573189 C48.1761643,25.1406467 48.2057903,25.1220555 48.2336172,25.1016651 C48.259645,25.0830738 48.2818345,25.0626834 48.3059432,25.042293 C48.3300518,25.0219026 48.3523613,24.999713 48.3727517,24.9774035 C48.3950612,24.9532949 48.4135325,24.9291862 48.4339229,24.9032784 C48.4525142,24.8791698 48.4711054,24.853142 48.4877776,24.8272342 C48.5044497,24.8012065 48.5174036,24.7733796 48.5322766,24.7455527 C48.5471496,24.7177258 48.5601036,24.6880997 48.5712583,24.6583537 C48.5822931,24.6287277 48.5916487,24.5991016 48.5990852,24.5693556 C48.6064018,24.5397295 48.6138383,24.5099836 48.6194756,24.4784384 C48.624993,24.4432949 48.6269121,24.4098307 48.6305104,24.3746872 C48.6324295,24.356096 48.6361478,24.3375047 48.6361478,24.3171143 C48.6361478,24.3078787 48.6342287,24.298643 48.6324295,24.2874883 C48.6305104,24.2522249 48.6269121,24.2188806 48.6212748,24.1836172 C48.6175565,24.1538712 48.6138383,24.122446 48.6064018,24.0927 C48.5990852,24.0648731 48.5897296,24.035247 48.580494,24.0074201 C48.5693392,23.9740758 48.5581845,23.9388124 48.5415123,23.9072672 C48.5377941,23.8979116 48.5359949,23.888676 48.5322766,23.8812395 L36.8586512,0.537866435 C36.8531338,0.526738073 36.8438982,0.519319565 36.8382608,0.51004553 C36.8049165,0.448840738 36.7659349,0.3913446 36.7196367,0.339412644 C36.7084819,0.326429955 36.6992463,0.313446066 36.6880915,0.302317704 C36.6342369,0.246677093 36.5730657,0.196599464 36.5062571,0.153941542 C36.4895849,0.14281318 36.4729128,0.135393472 36.4562406,0.126120637 C36.402386,0.0964450449 36.344933,0.0723337537 36.285561,0.0519319565 C36.2651706,0.0445130884 36.2447802,0.0389489074 36.2243898,0.0333848463 C36.1501447,0.0148377361 36.0742205,0.00185471102 35.9962571,0.00185471102 C35.9925389,0.00185471102 35.9907397,0 35.9888206,0 C35.979585,0 35.9684302,0.00370942204 35.9591946,0.00370942204 C35.8979034,0.00556413305 35.8386513,0.0111282781 35.7810784,0.0241112912 C35.7626071,0.0278206653 35.7440159,0.0370942204 35.7254246,0.0408037144 C35.6754082,0.0556413305 35.6271909,0.0723337537 35.5807727,0.0927356708 C35.5733362,0.0964450449 35.5641006,0.0982997319 35.5566641,0.102009226 C35.5381928,0.111282781 35.5251189,0.12426631 35.5066476,0.133539145 C35.4769016,0.150231688 35.4472755,0.168778559 35.4194486,0.189180956 C35.3935408,0.207727826 35.3712313,0.228130223 35.3471227,0.24853142 C35.323014,0.268933817 35.3007045,0.291189342 35.2803141,0.313446066 C35.2581246,0.337557117 35.2395333,0.361669368 35.2191429,0.387634747 C35.2005517,0.411745798 35.1820804,0.437712376 35.1654082,0.463677754 C35.1486161,0.489644332 35.1356622,0.517465238 35.1207892,0.545284943 C35.1060362,0.573105848 35.0929623,0.602781081 35.0819275,0.632457513 C35.0707728,0.662132745 35.0633363,0.691807977 35.0541006,0.72148321 C35.0466641,0.751158442 35.0392276,0.780833674 35.0337102,0.812364433 C35.0280729,0.847603847 35.0262737,0.880988933 35.0225555,0.916228346 C35.0206364,0.934775217 35.0169181,0.953322087 35.0169181,0.973724484 L35.0169181,21.9690995 L25.0071495,11.959187 C24.9607314,11.9128168 24.910595,11.872012 24.8568603,11.8367726 C24.8345508,11.8219356 24.808643,11.8108048 24.7845343,11.797827 C24.7529892,11.7811308 24.7233631,11.7625875 24.6898989,11.7477505 C24.6583537,11.7347726 24.6250094,11.7273481 24.5934643,11.7180765 C24.5656374,11.710652 24.5378105,11.6995332 24.5099836,11.6939678 C24.4470132,11.680978 24.3839229,11.6754126 24.3190334,11.6754126 C24.2559431,11.6754126 24.1910537,11.6828371 24.1279634,11.6939678 C24.0983373,11.6995332 24.0723096,11.710652 24.0426835,11.7180765 C24.0092193,11.7273481 23.9776741,11.7347726 23.9462489,11.7477505 C23.9127846,11.7607284 23.8831586,11.7811308 23.8516134,11.797827 C23.8275048,11.8108048 23.8033961,11.8219356 23.7792875,11.8367726 C23.7254328,11.872012 23.6754164,11.9128168 23.6289982,11.959187 L13.6191097,21.9690995 L13.6191097,0.973724484 C13.6191097,0.953322087 13.6135923,0.934775217 13.6135923,0.916228346 C13.6117932,0.880988933 13.6098741,0.847603847 13.6024376,0.812364433 C13.5969202,0.780833674 13.5894837,0.751158442 13.5820472,0.72148321 C13.5746107,0.691807977 13.565375,0.662132745 13.5542202,0.632457513 C13.5430655,0.602781081 13.5301116,0.573105848 13.5152386,0.545284943 C13.5022847,0.517465238 13.4874117,0.49149866 13.4707395,0.463677754 C13.4540674,0.437712376 13.4355961,0.411745798 13.4170048,0.387634747 C13.3984136,0.361669368 13.3780232,0.337557117 13.3558336,0.313446066 C13.3354432,0.291189342 13.3112146,0.268933817 13.2890251,0.24853142 C13.2649164,0.228130223 13.2426069,0.207727826 13.2166991,0.189180956 C13.1888722,0.168778559 13.1592462,0.152086016 13.1295002,0.133539145 C13.112828,0.12426631 13.097955,0.111282781 13.0794837,0.102009226 C13.0720472,0.0982997319 13.0626916,0.0964450449 13.055375,0.0927356708 C13.0089569,0.0704790667 12.9607396,0.0556413305 12.9125223,0.0408037144 C12.8921319,0.0352395333 12.8735406,0.0259659782 12.8531502,0.0222566042 C12.7956973,0.00927356708 12.7381244,0.00370942204 12.6769532,0.00185471102 C12.6677175,0.00370942204 12.6565628,0 12.6473271,0 C12.6436089,0 12.6416898,0.00185471102 12.6398906,0.00185471102 C12.5601282,0.00185471102 12.4840839,0.0148377361 12.411758,0.0333848463 C12.3913676,0.0389489074 12.3709772,0.0463677754 12.3505868,0.0519319565 C12.2912147,0.0704790667 12.2336418,0.0964450449 12.1799071,0.126120637 C12.163235,0.135393472 12.1465628,0.14281318 12.1297707,0.153941542 C12.0630821,0.196599464 12.001791,0.244821566 11.9480562,0.302317704 C11.9369375,0.313446066 11.9276538,0.328284282 11.9165231,0.339412644 C11.8701649,0.3913446 11.8312072,0.448840738 11.797827,0.51004553 C11.7922616,0.521173892 11.7829899,0.5285936 11.7774246,0.537866435 L0.103863913,23.8812395 C0.100154539,23.8905951 0.0982997319,23.8979116 0.0945903579,23.9072672 C0.0797526217,23.9388124 0.0686243796,23.9740758 0.0556413305,24.0074201 C0.0463677754,24.035247 0.0370942204,24.0630739 0.0296753523,24.0927 Z M12.2429974,25.2890169 L19.391033,32.4370524 L5.09488992,25.2890169 L12.2429974,25.2890169 Z M36.3913512,25.2890169 L43.5393867,25.2890169 L29.2431957,32.4370524 L36.3913512,25.2890169 Z M36.9607232,23.3434126 L36.9607232,5.09304279 L46.0859081,23.3434126 L36.9607232,23.3434126 Z M25.2890169,33.6388867 L25.2890169,14.9916237 L34.6125884,24.3153152 L25.2890169,33.6388867 Z M23.3452118,33.6388867 L14.0216402,24.3153152 L23.3452118,14.9916237 L23.3452118,33.6388867 L23.3452118,33.6388867 Z M2.54838052,23.3434126 L11.6735654,5.09304279 L11.6735654,23.3434126 L2.54838052,23.3434126 Z" id="Shape"></path>
                    </g>
                    <g filter="url(#filter-2)" id="Untitled-9">
                        <g transform="translate(62.370643, 9.595484)">
                            <path d="M0.0249868585,0.812364433 C-0.0714585463,0.47851597 0.119579135,0.237403058 0.455281926,0.237403058 L2.65496497,0.237403058 C2.84599905,0.237403058 3.03704513,0.40432729 3.08526244,0.571251521 L5.57243576,10.1156079 L5.66702324,10.1156079 L9.46918563,0.26151411 C9.51741493,0.118700929 9.63611106,0 9.87536245,0 L10.3056599,0 C10.5449113,0 10.6636194,0.118700929 10.7118367,0.26151411 L14.5436731,10.1156079 L14.6401078,10.1156079 L17.0790398,0.571251521 C17.1272571,0.40432729 17.3183272,0.237403058 17.5093972,0.237403058 L19.7090419,0.237403058 C20.0428448,0.237403058 20.2358339,0.476661643 20.1393993,0.812364433 L15.6194468,16.8853296 C15.5712295,17.0762797 15.3801594,17.2191324 15.1890894,17.2191324 L14.8070692,17.2191324 C14.5918905,17.2191324 14.4490377,17.0985892 14.4008204,16.9557364 L10.1201912,6.12241148 L10.0014831,6.12241148 L5.7671761,16.9557364 C5.69483815,17.0985892 5.60025067,17.2191324 5.36099928,17.2191324 L4.97891912,17.2191324 C4.78788504,17.2191324 4.59685096,17.0744805 4.54863365,16.8853296 L0.0249868585,0.812364433 Z" id="Path" fill="#FFFFFF" fill-rule="nonzero"></path>
                            <path d="M24.8759699,0.694525898 C24.8759699,0.455267313 25.0911486,0.240120979 25.330436,0.240120979 L27.5541893,0.240120979 C27.7934767,0.240120979 28.0086554,0.455267313 28.0086554,0.694525898 L28.0086554,16.5282576 C28.0086554,16.767425 27.7934767,16.9826038 27.5541893,16.9826038 L25.330436,16.9826038 C25.0911486,16.9826038 24.8759699,16.767425 24.8759699,16.5282576 L24.8759699,0.694525898 Z" id="Path" fill="#FFFFFF" fill-rule="nonzero"></path>
                            <path d="M34.3872531,0.430292668 C34.3872531,0.191035283 34.6024318,0 34.8415992,0 L35.4387982,0 L45.3875155,10.5700021 L45.4116241,10.5700021 L45.4116241,0.693662304 C45.4116241,0.454404919 45.6026942,0.239257385 45.8660902,0.239257385 L48.0657349,0.239257385 C48.3050222,0.239257385 48.520201,0.454404919 48.520201,0.693662304 L48.520201,16.7888949 C48.520201,17.0280624 48.3050222,17.2191324 48.0657349,17.2191324 L47.4907255,17.2191324 L37.4939108,6.24110761 L37.4698022,6.24110761 L37.4698022,16.5254989 C37.4698022,16.7647863 37.2787321,16.9798451 37.0153361,16.9798451 L34.8398001,16.9798451 C34.6005127,16.9798451 34.385334,16.7647863 34.385334,16.5254989 L34.385334,0.430292668 L34.3872531,0.430292668 Z" id="Path" fill="#FFFFFF" fill-rule="nonzero"></path>
                            <path d="M57.1109174,3.10935768 L53.4515598,3.10935768 C53.1881638,3.10935768 52.9970938,2.89421494 52.9970938,2.65495156 L52.9970938,0.694525898 C52.9970938,0.455267313 53.1881638,0.240120979 53.4515598,0.240120979 L63.9028406,0.240120979 C64.1662366,0.240120979 64.3571867,0.455267313 64.3571867,0.694525898 L64.3571867,2.65495156 C64.3571867,2.89421494 64.1662366,3.10935768 63.9028406,3.10935768 L60.243483,3.10935768 L60.243483,16.5263385 C60.243483,16.7656259 60.0283043,16.9808046 59.7891368,16.9808046 L57.5652636,16.9808046 C57.3259762,16.9808046 57.1109174,16.7656259 57.1109174,16.5263385 L57.1109174,3.10935768 L57.1109174,3.10935768 Z" id="Path" fill="#FFFFFF" fill-rule="nonzero"></path>
                            <path d="M68.8217254,0.694525898 C68.8217254,0.455267313 69.0126755,0.240120979 69.2760715,0.240120979 L79.0096101,0.240120979 C79.2730061,0.240120979 79.4640762,0.455267313 79.4640762,0.694525898 L79.4640762,2.65495156 C79.4640762,2.89421494 79.2730061,3.10935768 79.0096101,3.10935768 L71.9301823,3.10935768 L71.9301823,7.03207532 L77.8375218,7.03207532 C78.0766892,7.03207532 78.2918679,7.24723005 78.2918679,7.48648144 L78.2918679,9.47101935 C78.2918679,9.73439138 78.0766892,9.92542546 77.8375218,9.92542546 L71.9301823,9.92542546 L71.9301823,14.1115151 L79.0096101,14.1115151 C79.2730061,14.1115151 79.4640762,14.3266939 79.4640762,14.5659812 L79.4640762,16.5282576 C79.4640762,16.767425 79.2730061,16.9826038 79.0096101,16.9826038 L69.2760715,16.9826038 C69.0126755,16.9826038 68.8217254,16.767425 68.8217254,16.5282576 L68.8217254,0.694525898 Z" id="Path" fill="#FFFFFF" fill-rule="nonzero"></path>
                            <path d="M85.0598024,0.694525898 C85.0598024,0.455267313 85.2507525,0.240120979 85.5141485,0.240120979 L92.3544089,0.240120979 C95.2235784,0.240120979 97.567995,2.53625543 97.567995,5.3832354 C97.567995,7.58292804 96.108282,9.37643187 94.0291806,10.2147653 L97.3063981,16.2889702 C97.4733595,16.6005836 97.3063981,16.9826038 96.9002692,16.9826038 L94.3890112,16.9826038 C94.1738325,16.9826038 94.0550884,16.8638597 94.0068711,16.767425 L90.8260883,10.429908 L88.1719775,10.429908 L88.1719775,16.5282576 C88.1719775,16.767425 87.9567988,16.9826038 87.7176314,16.9826038 L85.5178668,16.9826038 C85.2544707,16.9826038 85.0635206,16.767425 85.0635206,16.5282576 L85.0635206,0.694525898 L85.0598024,0.694525898 Z M92.0910129,7.8685496 C93.3577367,7.8685496 94.4594181,6.76871528 94.4594181,5.42960557 C94.4594181,4.16283382 93.3596558,3.10935768 92.0910129,3.10935768 L88.1923679,3.10935768 L88.1923679,7.8685496 L92.0910129,7.8685496 L92.0910129,7.8685496 Z" id="Shape" fill="#FFFFFF" fill-rule="nonzero"></path>
                            <path d="M104.697439,0.357959514 C104.721548,0.166924231 104.864401,0 105.127797,0 L105.509817,0 C105.700887,0 105.84374,0.0945898781 105.916066,0.239257385 L111.177869,11.5288907 C111.226086,11.5288907 111.226086,11.5288907 111.250195,11.5288907 L116.511998,0.239257385 C116.584324,0.0964454047 116.703068,0 116.918127,0 L117.300267,0 C117.563663,0 117.706396,0.166924231 117.730505,0.357959514 L120.553256,16.4290643 C120.625222,16.7628672 120.433313,16.9798451 120.122659,16.9798451 L117.947603,16.9798451 C117.732424,16.9798451 117.541354,16.7888949 117.493137,16.6219335 L116.081761,7.55795579 C116.057652,7.55795579 116.009435,7.55795579 116.009435,7.55795579 L111.823285,16.9576555 C111.775068,17.1005083 111.632215,17.2210515 111.417156,17.2210515 L110.988718,17.2210515 C110.773539,17.2210515 110.654795,17.1005083 110.582469,16.9576555 L106.348222,7.55795579 C106.348222,7.55795579 106.300005,7.55795579 106.275896,7.55795579 L104.888509,16.6219335 C104.864401,16.7888949 104.673331,16.9798451 104.458272,16.9798451 L102.304925,16.9798451 C101.993312,16.9798451 101.802242,16.7647863 101.850459,16.4290643 L104.697439,0.357959514 Z" id="Path" fill="#FFFFFF" fill-rule="nonzero"></path>
                            <path d="M125.482936,0.694525898 C125.482936,0.455267313 125.698834,0.240120979 125.937522,0.240120979 L128.209253,0.240120979 C128.473128,0.240120979 128.663839,0.455267313 128.663839,0.694525898 L128.663839,10.4762782 C128.663839,12.5090694 130.051585,14.1115151 132.132606,14.1115151 C134.213626,14.1115151 135.625362,12.5090694 135.625362,10.5003868 L135.625362,0.694525898 C135.625362,0.455267313 135.816072,0.240120979 136.078749,0.240120979 L138.351679,0.240120979 C138.590366,0.240120979 138.806265,0.455267313 138.806265,0.694525898 L138.806265,10.6432036 C138.806265,14.2784766 135.912027,17.219972 132.132606,17.219972 C128.378373,17.219972 125.482936,14.2784766 125.482936,10.6432036 L125.482936,0.694525898 L125.482936,0.694525898 Z" id="Path" fill="#FFFFFF" fill-rule="nonzero"></path>
                            <path d="M147.275478,3.10935768 L143.616001,3.10935768 C143.353325,3.10935768 143.162614,2.89421494 143.162614,2.65495156 L143.162614,0.694525898 C143.162614,0.455267313 143.353325,0.240120979 143.616001,0.240120979 L154.067881,0.240120979 C154.331757,0.240120979 154.522467,0.455267313 154.522467,0.694525898 L154.522467,2.65495156 C154.522467,2.89421494 154.331757,3.10935768 154.067881,3.10935768 L150.408404,3.10935768 L150.408404,16.5263385 C150.408404,16.7656259 150.193705,16.9808046 149.953818,16.9808046 L147.730064,16.9808046 C147.491377,16.9808046 147.275478,16.7656259 147.275478,16.5263385 L147.275478,3.10935768 L147.275478,3.10935768 Z" id="Path" fill="#FFFFFF" fill-rule="nonzero"></path>
                            <path d="M158.986766,0.694525898 C158.986766,0.455267313 159.177476,0.240120979 159.441352,0.240120979 L169.174771,0.240120979 C169.437447,0.240120979 169.629357,0.455267313 169.629357,0.694525898 L169.629357,2.65495156 C169.629357,2.89421494 169.437447,3.10935768 169.174771,3.10935768 L162.095703,3.10935768 L162.095703,7.03207532 L168.002922,7.03207532 C168.24161,7.03207532 168.456309,7.24723005 168.456309,7.48648144 L168.456309,9.47101935 C168.456309,9.73439138 168.24161,9.92542546 168.002922,9.92542546 L162.095703,9.92542546 L162.095703,14.1115151 L169.174771,14.1115151 C169.437447,14.1115151 169.629357,14.3266939 169.629357,14.5659812 L169.629357,16.5282576 C169.629357,16.767425 169.437447,16.9826038 169.174771,16.9826038 L159.441352,16.9826038 C159.177476,16.9826038 158.986766,16.767425 158.986766,16.5282576 L158.986766,0.694525898 Z" id="Path" fill="#FFFFFF" fill-rule="nonzero"></path>
                        </g>
                    </g>
                </g>
            </g>
        </g>
    </g>
</svg>