<?xml version="1.0" encoding="UTF-8"?>
<svg width="41px" height="40px" viewBox="0 0 41 40" version="1.1" xmlns="http://www.w3.org/2000/svg" xmlns:xlink="http://www.w3.org/1999/xlink">
    <title>Aave logo</title>
    <defs>
        <linearGradient x1="87.2792784%" y1="18.632268%" x2="12.8792784%" y2="81.232268%" id="linearGradient-1">
            <stop stop-color="#B6509E" offset="0%"></stop>
            <stop stop-color="#2EBAC6" offset="100%"></stop>
        </linearGradient>
    </defs>
    <g id="Page-1" stroke="none" stroke-width="1" fill="none" fill-rule="evenodd">
        <g id="Group" transform="translate(0.500000, 0.000000)" fill-rule="nonzero">
            <g id="Aave-logo">
                <circle id="Oval" fill="url(#linearGradient-1)" cx="20" cy="20" r="20"></circle>
                <path d="M28.7525773,27.9690722 L21.9896907,11.6185567 C21.6082474,10.7731959 21.0412371,10.3608247 20.2938144,10.3608247 L19.6958763,10.3608247 C18.9484536,10.3608247 18.3814433,10.7731959 18,11.6185567 L15.056701,18.742268 L12.8298969,18.742268 C12.1649485,18.7474227 11.6237113,19.2835052 11.6185567,19.9536082 L11.6185567,19.9690722 C11.6237113,20.6340206 12.1649485,21.1752577 12.8298969,21.1804124 L14.0257732,21.1804124 L11.2164948,27.9690722 C11.1649485,28.1185567 11.1340206,28.2731959 11.1340206,28.4329897 C11.1340206,28.814433 11.2525773,29.1134021 11.4639175,29.3453608 C11.6752577,29.5773196 11.9793814,29.6907216 12.3608247,29.6907216 C12.6134021,29.685567 12.8556701,29.6082474 13.056701,29.4587629 C13.2731959,29.3092784 13.4226804,29.0927835 13.5412371,28.8453608 L16.6340206,21.1752577 L18.7783505,21.1752577 C19.443299,21.1701031 19.9845361,20.6340206 19.9896907,19.9639175 L19.9896907,19.9329897 C19.9845361,19.2680412 19.443299,18.7268041 18.7783505,18.7216495 L17.6340206,18.7216495 L19.9948454,12.8402062 L26.4278351,28.8402062 C26.5463918,29.0876289 26.6958763,29.3041237 26.9123711,29.4536082 C27.1134021,29.6030928 27.3608247,29.6804124 27.6082474,29.685567 C27.9896907,29.685567 28.2886598,29.5721649 28.5051546,29.3402062 C28.7216495,29.1082474 28.8350515,28.8092784 28.8350515,28.4278351 C28.8402062,28.2731959 28.814433,28.1134021 28.7525773,27.9690722 Z" id="Path" fill="#FFFFFF"></path>
            </g>
        </g>
    </g>
</svg>