<?xml version="1.0" encoding="UTF-8"?>
<svg width="41px" height="40px" viewBox="0 0 41 40" version="1.1" xmlns="http://www.w3.org/2000/svg" xmlns:xlink="http://www.w3.org/1999/xlink">
    <title>Compound logo</title>
    <g id="Page-1" stroke="none" stroke-width="1" fill="none" fill-rule="evenodd">
        <g id="Compound-logo" transform="translate(0.500000, 0.000000)">
            <path d="M20,40 C31.046,40 40,31.046 40,20 C40,8.954 31.046,0 20,0 C8.954,0 0,8.954 0,20 C0,31.046 8.954,40 20,40 Z" id="Path" fill="#070A0E" fill-rule="nonzero"></path>
            <path d="M11.554,26.706 C10.956,26.34 10.59,25.69 10.59,24.99 L10.59,21.082 C10.59,20.618 10.968,20.242 11.432,20.2439921 C11.58,20.2439921 11.726,20.284 11.854,20.358 L20.672,25.5 C21.188,25.8 21.5060066,26.352 21.5060066,26.95 L21.5060066,30.998 C21.508,31.554 21.058,32.006 20.502,32.006 C20.316,32.006 20.132,31.954 19.974,31.858 L11.554,26.706 Z M24.698,19.288 C25.214,19.588 25.53,20.142 25.532,20.738 L25.532,28.954 C25.532,29.196 25.402,29.42 25.19,29.538 L23.26,30.624 C23.236,30.638 23.21,30.648 23.182,30.656 L23.182,26.094 C23.182,25.504 22.872,24.956 22.364,24.652 L14.62,20.02 L14.62,14.87 C14.62,14.406 14.998,14.03 15.462,14.0319921 C15.61,14.0319921 15.756,14.072 15.884,14.146 L24.698,19.288 Z M28.558,13.22 C29.076,13.52 29.394,14.074 29.394,14.672 L29.394,26.672 C29.392,26.918 29.256,27.144 29.04,27.262 L27.21,28.25 L27.21,19.896 C27.21,19.306 26.9,18.76 26.396,18.456 L18.48,13.708 L18.48,8.824 C18.48,8.676 18.52,8.53 18.592,8.402 C18.826,8.002 19.34,7.866 19.74,8.098 L28.558,13.22 Z" id="Shape" fill="#00D395"></path>
        </g>
    </g>
</svg>